<svg width="88" height="131" viewBox="0 0 88 131" fill="none" xmlns="http://www.w3.org/2000/svg">
<g clip-path="url(#clip0_11_1141)">
<path d="M58.4811 59.3686C61.9694 57.4385 64.7102 54.6957 65.6923 50.763C66.6743 46.8302 65.9561 42.9555 64.0653 39.5597C59.7709 31.8393 50.9621 28.5741 42.9594 26.078C39.0314 24.859 35.2352 24.3366 31.7909 26.9923C28.3465 29.648 27.0127 33.5952 26.4411 37.6441C25.8695 41.6929 25.3565 46.3078 27.2619 50.2115C28.9035 53.5928 31.8641 56.3936 35.0593 58.3527C42.124 62.6918 51.1526 63.2143 58.6569 59.7459C60.577 58.8607 58.9061 56.0453 56.9861 56.9306C51.5777 59.4266 45.1433 59.3541 39.6763 57.0757C36.9794 55.9438 34.5317 54.2604 32.553 52.1271C29.9294 49.2827 29.0354 46.2207 29.2699 42.4185C29.4751 38.9502 29.7389 35.119 31.5857 32.057C33.4324 28.9949 36.4518 27.7324 39.9694 28.6176C46.6236 30.301 54.0547 32.8551 58.8328 37.9634C61.3245 40.6191 62.9368 44.0149 62.8195 47.6864C62.6729 51.7933 60.3278 54.6086 56.8248 56.5533C54.9781 57.5836 56.6343 60.3989 58.4957 59.3686H58.4811Z" fill="#17299A"/>
<path d="M27.8479 34.6691C28.1117 36.2074 29.5188 37.4119 30.8819 38.0359C32.4208 38.7325 34.165 39.1098 35.8359 38.6019C37.5947 38.0649 39.1044 36.7734 39.9398 35.1625C40.9512 33.2324 41.0684 31.0701 40.746 28.9659C40.5847 27.9065 40.2623 27.0213 39.5001 26.2376C38.738 25.454 37.5947 24.859 36.5101 25.2218C35.6893 25.483 35.0737 26.3682 35.3522 27.2245C35.616 28.0371 36.4955 28.6466 37.3749 28.3709C37.5508 28.3274 37.4921 28.3274 37.2136 28.3709C37.0524 28.3709 36.9205 28.3419 36.7886 28.2693C36.8619 28.2983 36.9352 28.3419 36.9938 28.3854C36.8326 28.2548 36.8179 28.2403 36.9645 28.3564C37.0231 28.4144 37.3895 28.8353 37.155 28.5015C37.199 28.5596 37.4335 28.8498 37.4042 28.9078C37.3162 28.6757 37.3016 28.6466 37.3456 28.8063C37.3749 28.9224 37.4042 29.053 37.4335 29.1691C37.4775 29.4158 37.5361 29.6625 37.5654 29.9092C37.5361 29.6625 37.5947 30.243 37.5947 30.2139C37.6094 30.4606 37.624 30.7073 37.624 30.954C37.624 31.4765 37.5947 31.7957 37.5214 32.1731C37.4775 32.4198 37.4042 32.6519 37.3309 32.8841C37.2869 33.0002 37.2576 33.1163 37.2136 33.2324C37.2723 33.1018 37.2576 33.1308 37.1843 33.2905C37.0231 33.6097 36.8472 33.9145 36.642 34.2047C36.8179 33.958 36.4515 34.4079 36.4222 34.466C36.2756 34.6111 36.129 34.7417 35.9825 34.8868C35.8359 35.0029 35.8212 35.0174 35.9532 34.9158C35.8652 34.9739 35.7919 35.0319 35.704 35.09C35.5281 35.1916 35.3522 35.2931 35.1763 35.3802C35.4695 35.2351 35.0151 35.4383 34.9418 35.4528C34.7806 35.5108 34.6047 35.5398 34.4288 35.5689C34.7659 35.4963 34.2969 35.5689 34.2236 35.5689C34.0624 35.5689 33.9012 35.5689 33.74 35.5398C33.5494 35.5253 33.5787 35.5253 33.7986 35.5398C33.7106 35.5398 33.6227 35.5108 33.5348 35.4963C33.3589 35.4528 33.183 35.4092 33.0218 35.3657C32.8605 35.3222 32.6847 35.2496 32.5088 35.1916C32.8605 35.3076 32.4648 35.1625 32.4062 35.1335C32.0837 34.9739 31.7759 34.7997 31.4828 34.582C31.8199 34.8288 31.3949 34.4805 31.3362 34.4224C31.2776 34.3644 31.219 34.3063 31.175 34.2483C31.3069 34.4224 31.3216 34.4369 31.219 34.3063C31.1457 34.1902 30.9991 33.7839 31.1164 34.2047C31.0724 34.0596 31.0284 33.929 31.0138 33.7839C30.8672 32.9422 29.7679 32.3907 28.9911 32.6374C28.0677 32.9277 27.6867 33.7404 27.8332 34.6401L27.8479 34.6691Z" fill="#17299A"/>
<path d="M46.477 42.3751V4.1795C46.477 2.07526 43.1792 2.07526 43.1792 4.1795V42.3751C43.1792 44.4794 46.477 44.4794 46.477 42.3751Z" fill="#17299A"/>
<path d="M50.9619 42.2155C50.9619 28.6758 50.9619 15.1216 50.9619 1.58184C50.9619 -0.522399 47.6641 -0.522399 47.6641 1.58184C47.6641 15.1216 47.6641 28.6758 47.6641 42.2155C47.6641 44.3197 50.9619 44.3197 50.9619 42.2155Z" fill="#17299A"/>
<path d="M44.3956 43.9569C44.8499 44.1891 45.319 44.4067 45.8026 44.5664C45.9932 44.6244 46.1837 44.6825 46.3743 44.7115C46.682 44.755 47.0045 44.8131 47.3123 44.7986C47.8986 44.755 48.4555 44.6389 48.9685 44.3342C49.5401 44.0004 49.9945 43.4635 50.1704 42.8249C50.2876 42.4186 50.229 41.9397 50.0092 41.5624C49.804 41.2286 49.4229 40.8948 49.0272 40.8078C48.6021 40.7062 48.1331 40.7352 47.752 40.9674C47.3709 41.1996 47.1071 41.5188 46.9898 41.9397C46.9898 41.9832 46.9605 42.0123 46.9459 42.0558L47.1071 41.664C47.1071 41.664 47.0485 41.7801 47.0045 41.8381L47.2683 41.5043C47.2683 41.5043 47.1511 41.6204 47.0924 41.6785L47.4296 41.4173C47.327 41.4898 47.2244 41.5479 47.1218 41.5914L47.5175 41.4318C47.3563 41.5043 47.1804 41.5479 47.0045 41.5624L47.4442 41.5043C47.2537 41.5334 47.0631 41.5188 46.8726 41.5043L47.3123 41.5624C46.9752 41.5188 46.6674 41.4173 46.3596 41.2867L46.7553 41.4463C46.5208 41.3447 46.301 41.2431 46.0811 41.127C45.6854 40.9239 45.2457 40.8368 44.806 40.9674C44.4249 41.069 44.0145 41.3592 43.824 41.722C43.6188 42.0993 43.5162 42.5637 43.6627 42.9846C43.7946 43.3764 44.0438 43.7682 44.4249 43.9569H44.3956Z" fill="#17299A"/>
<path d="M33.6227 54.7974H21.0471C18.9218 54.7974 18.9218 58.0626 21.0471 58.0626H33.6227C35.7479 58.0626 35.7479 54.7974 33.6227 54.7974Z" fill="#17299A"/>
<path d="M19.728 58.3238C21.9851 61.7631 25.4295 64.1867 28.5954 66.7553C32.0984 69.5996 35.6014 72.4585 39.1044 75.3029C39.7933 75.8688 40.7606 75.9704 41.4348 75.3029C42.0211 74.7224 42.1237 73.5614 41.4348 72.9954C38.0198 70.2236 34.6194 67.4519 31.2043 64.6801C28.2143 62.2566 24.6967 59.9201 22.5714 56.6694C21.4135 54.9135 18.5701 56.5533 19.728 58.3238Z" fill="#17299A"/>
<path d="M58.9939 59.2816C62.6141 59.5573 66.1171 60.4861 69.6201 61.3859L68.8873 58.6576C60.4742 65.1009 51.0059 70.2092 40.9952 73.7356C39.0165 74.4322 39.8666 77.5958 41.8746 76.8847C52.4716 73.1406 62.3357 67.7711 71.2324 60.965C72.2437 60.1959 71.5988 58.5125 70.4995 58.2368C66.7034 57.2499 62.9219 56.3066 58.9939 56.0164C56.8833 55.8568 56.8833 59.122 58.9939 59.2816Z" fill="#17299A"/>
<path d="M39.4858 76.0865C39.4858 83.8069 39.4858 91.5273 39.4858 99.2477C39.4858 101.352 42.7836 101.352 42.7836 99.2477C42.7836 91.5273 42.7836 83.8069 42.7836 76.0865C42.7836 73.9822 39.4858 73.9822 39.4858 76.0865Z" fill="#17299A"/>
<path d="M69.1514 59.9782C69.1514 69.4836 69.1514 78.989 69.1514 88.5088C69.1514 90.6131 72.4492 90.6131 72.4492 88.5088C72.4492 79.0035 72.4492 69.4981 72.4492 59.9782C72.4492 57.874 69.1514 57.874 69.1514 59.9782Z" fill="#17299A"/>
<path d="M19.23 56.5969V82.8636C19.23 84.9679 22.5278 84.9679 22.5278 82.8636V56.5969C22.5278 54.4926 19.23 54.4926 19.23 56.5969Z" fill="#17299A"/>
<path d="M19.23 83.5892C20.5784 88.2475 23.759 92.485 26.7197 96.2582C29.6803 100.031 33.4911 103.195 37.5511 105.865C39.3246 107.026 40.9808 104.211 39.222 103.05C35.5138 100.612 32.0548 97.7529 29.2993 94.27C27.9069 92.5141 26.6464 90.6275 25.4005 88.7555C24.1547 86.8834 23.0408 84.9098 22.4105 82.733C21.8242 80.7158 18.6437 81.572 19.23 83.6037V83.5892Z" fill="#17299A"/>
<path d="M37.9465 106.068L39.6614 107.128C40.5115 107.65 41.8746 107.186 42.0798 106.155C42.1824 105.633 42.3289 105.111 42.4315 104.588C42.5488 103.935 42.6074 103.282 42.6367 102.629C42.6807 101.729 42.6954 100.829 42.6954 99.9152C42.6954 99.059 41.9332 98.2463 41.0538 98.2899C40.1744 98.3334 39.4122 99.001 39.4122 99.9152C39.4122 101.178 39.4269 102.469 39.2803 103.732L39.3389 103.297C39.251 103.964 39.0604 104.632 38.9285 105.285L41.3469 104.312L39.6321 103.253C38.8992 102.803 37.7853 103.079 37.3749 103.833C36.9645 104.588 37.1844 105.589 37.9612 106.068H37.9465Z" fill="#17299A"/>
<path d="M68.9168 87.6526C64.6809 91.2371 60.0787 94.3862 55.2126 97.0564C50.3465 99.7266 45.0847 102.165 39.6176 103.471C36.8621 104.124 38.0347 108.318 40.7902 107.665C46.609 106.286 52.2226 103.688 57.4404 100.815C62.6583 97.9416 67.5097 94.5458 72.0387 90.7291C74.1933 88.9151 71.0713 85.8386 68.9314 87.6526H68.9168Z" fill="#17299A"/>
<path d="M25.8106 84.2423C27.4521 86.1724 30.6913 86.0854 32.4208 84.3584C34.1504 82.6315 34.3555 79.6275 32.8752 77.6539C32.0104 76.4929 30.8379 75.6657 29.4308 75.2304C28.61 74.9837 27.5987 75.5351 27.4082 76.3768C27.203 77.262 27.672 78.1183 28.5661 78.3795C28.654 78.4085 28.8446 78.5101 28.9472 78.5101C28.7126 78.4085 28.6687 78.394 28.8299 78.4665C28.8885 78.4956 28.9472 78.5246 29.0058 78.5536C29.123 78.6117 29.2403 78.6842 29.3575 78.7423C29.4455 78.8003 29.5921 78.9454 29.68 78.96C29.4748 78.8003 29.4455 78.7858 29.5774 78.8874C29.6214 78.9309 29.68 78.9745 29.724 79.018C29.8266 79.1051 29.9145 79.1921 30.0024 79.2937C30.0611 79.3518 30.1197 79.4824 30.193 79.5114C30.0318 79.3082 30.0171 79.2792 30.1197 79.4098C30.1637 79.4679 30.193 79.5114 30.2223 79.5695C30.2956 79.6856 30.3542 79.7871 30.4128 79.9032C30.4422 79.9613 30.4715 80.0193 30.5008 80.0774C30.3982 79.8307 30.3835 79.8016 30.4422 79.9613C30.4715 80.0774 30.5154 80.208 30.5448 80.3241C30.5448 80.3821 30.5741 80.4402 30.5887 80.5127C30.618 80.6869 30.6034 80.6433 30.5741 80.3531C30.5448 80.5418 30.5741 80.8175 30.5741 81.0061C30.5741 81.2964 30.662 80.5853 30.5741 81.0352C30.5448 81.1513 30.5154 81.2819 30.4715 81.398C30.4568 81.456 30.4275 81.5141 30.4128 81.5721C30.3542 81.7317 30.3689 81.6882 30.4715 81.4415C30.3982 81.5141 30.3542 81.6737 30.2956 81.7753C30.2663 81.8188 30.0318 82.1526 30.2076 81.9204C30.3835 81.6882 30.1344 81.993 30.0904 82.0365C30.0464 82.08 30.0024 82.1236 29.9585 82.1671C29.8266 82.2832 29.8705 82.2542 30.0757 82.0945C29.9731 82.1381 29.8705 82.2397 29.7679 82.2832C29.3869 82.4864 30.0171 82.2252 29.7533 82.2977C29.636 82.3267 29.5188 82.3703 29.4015 82.3993C28.9618 82.5009 29.68 82.3993 29.4015 82.3993C29.3136 82.3993 29.2256 82.3993 29.123 82.3993C29.0644 82.3993 29.0058 82.3993 28.9472 82.3993C28.7713 82.3848 28.8299 82.3993 29.1084 82.4283C28.9911 82.3848 28.8739 82.3848 28.7566 82.3558C28.698 82.3413 28.6394 82.3267 28.5807 82.2977C28.4195 82.2397 28.4635 82.2542 28.7273 82.3558C28.6394 82.2832 28.5074 82.2542 28.4195 82.1816C28.3755 82.1526 28.3169 82.1236 28.2729 82.08C28.4928 82.2542 28.5221 82.2832 28.4048 82.1671C28.3169 82.08 28.2436 81.993 28.1557 81.9059C27.5987 81.2528 26.3822 81.2964 25.8252 81.9059C25.1803 82.6025 25.239 83.5167 25.8252 84.2133L25.8106 84.2423Z" fill="#17299A"/>
<path d="M20.6369 84.4019C22.7622 84.4019 22.7622 81.1367 20.6369 81.1367C18.5117 81.1367 18.5117 84.4019 20.6369 84.4019Z" fill="#17299A"/>
<path d="M20.5492 77.2765C10.8316 77.3926 1.17275 84.1552 0.513191 94.2556C0.190739 99.1462 2.46256 103.587 6.41992 106.446C10.8023 109.624 16.4599 110.712 21.6777 111.641C34.4732 113.934 47.5618 114.181 60.4306 112.396C70.9982 110.93 83.0755 107.476 87.0915 96.4614C88.865 91.5854 88.0735 86.6078 84.1015 83.1249C80.6278 80.0774 75.791 78.0167 71.1301 77.9441C69.0049 77.9006 69.0049 81.1658 71.1301 81.2093C74.6331 81.2673 78.268 82.7476 81.0382 84.8373C84.2334 87.2463 85.3473 90.4099 84.336 94.2991C81.7564 104.109 70.8663 107.476 61.9256 108.898C51.0941 110.64 39.9842 110.77 29.0941 109.464C24.0375 108.855 18.8343 108.071 13.9829 106.489C10.0255 105.212 5.93624 102.963 4.42658 98.8704C0.718388 88.8716 11.3886 80.6433 20.5492 80.5272C22.6744 80.4982 22.6744 77.233 20.5492 77.262V77.2765Z" fill="#17299A"/>
<path d="M84.4238 92.4125V117.547C84.4238 119.652 87.7216 119.652 87.7216 117.547V92.4125C87.7216 90.3083 84.4238 90.3083 84.4238 92.4125Z" fill="#17299A"/>
<path d="M0.410156 92.993C0.410156 101.047 0.410156 109.101 0.410156 117.141C0.410156 119.245 3.70796 119.245 3.70796 117.141C3.70796 109.087 3.70796 101.033 3.70796 92.993C3.70796 90.8887 0.410156 90.8887 0.410156 92.993Z" fill="#17299A"/>
<path d="M0.249188 118.52C2.44772 122.119 6.17057 124.078 10.0253 125.529C14.8768 127.357 19.9481 128.678 25.0487 129.592C35.2938 131.421 45.7442 131.45 56.0187 129.781C58.1146 129.447 57.2205 126.298 55.1393 126.632C45.7149 128.17 36.012 128.156 26.5876 126.559C22.0586 125.79 17.603 124.673 13.2499 123.207C9.45372 121.93 5.26185 120.435 3.09263 116.865C1.99336 115.066 -0.850079 116.706 0.249188 118.52Z" fill="#17299A"/>
<path d="M85.435 116.024C76.3184 122.685 65.2524 124.978 54.2891 126.748C52.1931 127.082 53.0872 130.231 55.1685 129.897C66.381 128.098 77.7694 125.66 87.0912 118.853C88.7767 117.62 87.1352 114.79 85.4203 116.038L85.435 116.024Z" fill="#17299A"/>
<path d="M45.2312 20.9989C45.2312 20.9989 48.485 20.9989 48.529 19.0107L47.8841 41.2722L47.3271 42.7814L45.2165 42.23L44.8208 37.5136L45.2165 20.9989H45.2312Z" fill="#17299A"/>
<path d="M45.2458 5.86278C46.1838 5.70315 47.0632 5.20974 47.84 4.68731C48.6169 4.16487 49.4083 3.62793 50.1851 3.1055C50.5369 2.85879 50.83 2.55404 50.9473 2.13319C51.0499 1.74137 51.0059 1.21893 50.7861 0.870645C50.3317 0.174068 49.2911 -0.232268 48.5289 0.290164C47.884 0.725525 47.2391 1.16089 46.5942 1.59625C46.0226 1.98807 45.4363 2.3799 44.7914 2.65562L45.1871 2.49599C44.9233 2.59758 44.6595 2.68465 44.3664 2.72818C43.9853 2.78623 43.5749 3.16354 43.3843 3.48281C43.1791 3.8311 43.0912 4.35353 43.2231 4.74535C43.355 5.13718 43.6042 5.51449 43.9853 5.71766C44.3957 5.93534 44.7914 5.96436 45.2604 5.87729L45.2458 5.86278Z" fill="#17299A"/>
<path d="M42.1533 76.0866L70.06 61.6616V87.6672C70.06 87.6672 61.3832 97.9562 42.1533 103.819V76.0866Z" fill="#17299A"/>
<path d="M82.5476 101.134C78.8394 108.361 75.1019 115.559 71.3497 122.757C70.3824 124.615 73.2258 126.269 74.1931 124.412C77.9453 117.214 81.6828 110.016 85.391 102.789C86.3584 100.917 83.5003 99.2623 82.5476 101.134Z" fill="#17299A"/>
<path d="M69.0341 108.158C64.0214 114.195 59.3459 120.479 55.0074 127.009C53.8349 128.765 56.693 130.405 57.8509 128.664C62.0281 122.365 66.5277 116.285 71.3499 110.465C71.9215 109.783 72.0241 108.826 71.3499 108.158C70.7636 107.578 69.591 107.476 69.0194 108.158H69.0341Z" fill="#17299A"/>
<path d="M52.1636 111.133C47.8985 116.778 43.3842 122.235 38.6646 127.503C37.2576 129.07 39.588 131.392 40.9951 129.81C45.9052 124.339 50.5807 118.65 55.0217 112.787C55.5494 112.076 55.139 110.959 54.4355 110.553C53.6 110.059 52.7206 110.436 52.1783 111.133H52.1636Z" fill="#17299A"/>
<path d="M33.7107 110.538C27.7307 115.4 21.3842 119.811 14.7446 123.758C12.9272 124.847 14.5834 127.662 16.4155 126.574C23.2896 122.481 29.8413 117.881 36.0411 112.831C36.73 112.265 36.6274 111.104 36.0411 110.524C35.3669 109.856 34.3995 109.958 33.7107 110.524V110.538Z" fill="#17299A"/>
<path d="M18.6873 108.376C13.4548 111.206 7.97316 113.528 2.30094 115.327C0.292943 115.966 1.14304 119.115 3.18035 118.476C9.11639 116.604 14.8766 114.166 20.3582 111.206C22.2197 110.204 20.5634 107.374 18.6873 108.39V108.376Z" fill="#17299A"/>
<path d="M47.6054 56.5098C49.5255 56.6549 51.4016 56.8001 53.2483 56.1615C54.8606 55.5956 56.3409 54.6813 57.5135 53.4623C60.0345 50.8356 61.0898 47.0625 60.6647 43.4925C60.5621 42.6218 59.9758 41.8672 59.0231 41.8672C58.217 41.8672 57.2643 42.6218 57.3816 43.4925C57.5575 45.0163 57.4988 46.3514 57.1031 47.7591C56.8979 48.4702 56.7074 48.9491 56.3556 49.5876C55.9745 50.2696 55.6814 50.6615 55.2123 51.1549C54.3623 52.0401 53.307 52.7367 52.237 53.0705C51.4455 53.3317 51.0645 53.3897 50.317 53.4042C49.4229 53.4188 48.5288 53.3172 47.6347 53.2446C46.7407 53.172 45.9932 54.0428 45.9932 54.87C45.9932 55.8132 46.7553 56.4373 47.6347 56.4953L47.6054 56.5098Z" fill="#17299A"/>
</g>
<defs>
<clipPath id="clip0_11_1141">
<rect width="88" height="131" fill="white"/>
</clipPath>
</defs>
</svg>
