<svg width="35" height="35" viewBox="0 0 35 35" fill="none" xmlns="http://www.w3.org/2000/svg">
<path d="M25.219 18.6148H20.7137C20.7137 17.1725 20.5882 15.8479 20.752 14.5602C20.8891 13.4792 21.7695 12.9814 22.8466 12.9589C23.744 12.9401 24.6431 12.9553 25.6018 12.9553V8.46857C22.7487 8.52518 19.8013 7.70026 17.355 10.0627C14.898 12.435 15.8114 15.5478 15.5149 18.5725H11.2526V23.5904H15.4882V35C8.40577 34.5839 0.125989 27.9935 0.00136035 17.6802C-0.114366 8.17383 7.16749 0.430515 16.5324 0.0180534C26.1048 -0.403394 34.1629 6.60126 34.9365 16.0753C35.7777 26.3698 28.1149 33.7312 20.7591 34.832C20.7155 34.442 20.6363 34.0565 20.6354 33.6701C20.6238 30.7738 20.6612 27.8767 20.6096 24.9805C20.5918 23.992 20.8446 23.6074 21.9039 23.6128C24.7267 23.6272 24.7312 23.5778 25.0472 20.7732C25.1184 20.1379 25.1496 19.4981 25.219 18.6148Z" fill="white"/>
</svg>
