<svg width="280" height="215" viewBox="0 0 280 215" fill="none" xmlns="http://www.w3.org/2000/svg">
<g clip-path="url(#clip0_11_1077)">
<path d="M179.158 20.4052C180.128 18.2457 179.539 16.1902 178.592 14.1231C177.588 11.929 176.953 9.76954 176.953 7.34447C176.953 5.97026 175.244 5.68156 174.528 6.68623C173.454 8.19902 172.381 9.70025 171.307 11.213C170.325 12.5872 169.182 13.9499 168.651 15.5782C168.212 16.9408 168.12 18.7308 169.252 19.7585C170.383 20.7863 172.092 21.4214 173.57 21.791L172.658 20.1974C171.861 22.3799 171.746 24.7011 172.254 26.9645C172.611 28.5927 175.117 27.8998 174.759 26.2716C174.355 24.447 174.517 22.6455 175.163 20.8902C175.406 20.2435 174.898 19.4467 174.251 19.2966C173.604 19.1465 173.004 18.9502 172.415 18.673C172.011 18.4883 171.226 18.188 170.96 17.8185C170.88 17.703 170.984 16.9062 171.064 16.5828C171.226 15.9477 171.561 15.3934 171.919 14.8506C173.443 12.518 175.152 10.2892 176.768 8.01425L174.343 7.35602C174.343 9.49239 174.724 11.6172 175.521 13.6035C176.156 15.174 177.692 17.3335 176.907 19.1003C176.225 20.6131 178.465 21.9411 179.146 20.4168L179.158 20.4052Z" fill="#17299A"/>
<path d="M168.732 27.3456C169.506 27.8422 170.395 28.154 171.272 28.408C172.254 28.6852 173.235 28.9623 174.263 29.0316C176.156 29.1586 178.05 28.2232 178.696 26.3756C178.904 25.7635 178.454 24.8743 177.784 24.7819C175.244 24.3893 172.692 24.2507 170.118 24.4124C169.436 24.4586 168.79 24.9783 168.825 25.7058C168.859 26.3756 169.402 27.0453 170.118 26.9992C172.427 26.849 174.909 26.9414 177.091 27.2763L176.179 25.6827C176.133 25.8213 176.133 25.8213 176.179 25.6827C176.145 25.752 176.11 25.8097 176.064 25.879C176.202 25.648 175.96 25.9829 175.902 26.0407C175.787 26.1331 175.787 26.1446 175.902 26.0407C175.844 26.0869 175.775 26.1215 175.717 26.1677C175.625 26.2254 175.521 26.2832 175.417 26.3294C175.671 26.2139 175.244 26.3756 175.186 26.3871C175.117 26.4102 175.036 26.4218 174.967 26.4333C175.14 26.4102 175.129 26.4218 174.932 26.4333C174.621 26.4449 174.159 26.4333 173.986 26.4102C173.247 26.2947 172.531 26.0753 171.815 25.8675C171.099 25.6596 170.672 25.521 170.025 25.1053C169.46 24.7358 168.571 24.9667 168.247 25.5672C167.901 26.2139 168.109 26.953 168.709 27.3456H168.732Z" fill="#17299A"/>
<path d="M166.457 68.3986C166.527 61.3197 167.392 54.4602 168.628 47.5084C169.863 40.5565 170.279 33.6277 169.979 26.5604C169.909 24.8974 167.312 24.8859 167.381 26.5604C167.681 33.6162 167.254 40.4872 166.007 47.4275C164.76 54.3679 163.929 61.3082 163.859 68.3986C163.848 70.0731 166.446 70.0731 166.457 68.3986Z" fill="#17299A"/>
<path d="M176.41 25.9598C177.011 33.0272 176.988 40.0137 176.029 47.0464C175.071 54.0791 174.286 61.1118 174.228 68.2716C174.217 69.946 176.814 69.946 176.826 68.2716C176.884 61.1465 177.669 54.1831 178.616 47.1273C179.562 40.0715 179.608 33.0618 179.008 25.9598C178.87 24.3085 176.272 24.2854 176.41 25.9598Z" fill="#17299A"/>
<path d="M183.534 76.3667C183.534 76.4591 183.534 76.5515 183.534 76.6554C183.534 76.8633 183.603 76.2628 183.545 76.5168C183.534 76.5746 183.522 76.6323 183.511 76.6901C183.453 76.9441 183.372 77.1866 183.28 77.4291C183.245 77.51 183.21 77.5908 183.187 77.6832C183.095 77.9257 183.314 77.3829 183.21 77.6255C183.141 77.7756 183.072 77.9372 183.003 78.0874C182.853 78.3992 182.702 78.6994 182.529 78.9997C182.206 79.5771 181.86 80.1429 181.467 80.6741C181.421 80.7319 181.375 80.8011 181.328 80.8589C181.571 80.524 181.432 80.7203 181.375 80.7896C181.294 80.8935 181.201 80.9975 181.109 81.1014C181.028 81.1822 180.947 81.2746 180.867 81.3554C180.832 81.3901 180.797 81.4132 180.763 81.4478C180.624 81.5864 181.074 81.2169 180.867 81.367C180.312 81.7481 180.001 82.5218 180.405 83.1454C180.763 83.6997 181.582 84.023 182.183 83.6073C182.783 83.1916 183.187 82.6835 183.615 82.1292C184.042 81.5749 184.434 80.9513 184.781 80.3161C185.162 79.6233 185.508 78.9073 185.785 78.1567C185.993 77.6024 186.189 76.9672 186.143 76.3667C186.097 75.6854 185.577 75.0387 184.85 75.0734C184.192 75.108 183.499 75.6507 183.557 76.3667H183.534Z" fill="#17299A"/>
<path d="M168.49 76.0896L176.387 76.2397L180.174 76.309L182.068 76.3437C182.61 76.3437 183.511 76.2282 183.996 76.4129C184.654 76.667 185.416 76.1358 185.589 75.5007C185.785 74.7616 185.335 74.1611 184.677 73.907C184.077 73.6761 183.315 73.7685 182.691 73.7569L180.798 73.7223L176.687 73.6414L168.467 73.4913C166.792 73.4567 166.792 76.055 168.467 76.0896H168.49Z" fill="#17299A"/>
<path d="M162.093 73.8609C160.696 74.011 158.456 73.7916 157.313 74.7501C156.736 75.2236 156.724 75.7894 156.459 76.4245C156.216 76.9904 155.708 77.4754 155.327 77.9489C154.531 78.9305 153.769 79.9929 153.988 81.3209C154.288 83.1801 155.858 83.2378 157.406 83.3533C165.084 83.9538 172.785 84.4273 180.497 84.358C182.172 84.3465 182.172 81.7482 180.497 81.7597C174.482 81.8174 168.478 81.5287 162.474 81.1246C161.008 81.0206 159.553 80.9167 158.087 80.8012C157.787 80.7781 157.486 80.755 157.186 80.7319C156.967 80.7088 156.736 80.6973 156.516 80.6742C156.251 80.628 156.216 80.6396 156.424 80.7204C156.389 80.9398 156.759 80.3624 156.794 80.3047C156.932 80.0737 157.117 79.8543 157.29 79.6464C157.925 78.8496 158.652 78.099 158.976 77.1059C159.022 76.9557 159.276 76.5054 159.034 76.6786C158.768 76.8749 159.842 76.6786 159.853 76.6786L162.105 76.4476C163.756 76.2744 163.767 73.6761 162.105 73.8494L162.093 73.8609Z" fill="#17299A"/>
<path d="M161.435 84.5658C161.377 88.8385 161.516 93.0997 161.874 97.3609C162.047 99.4395 162.255 101.518 162.543 103.585C162.763 105.133 163.109 106.726 164.044 108.008C164.98 109.29 166.423 110.064 168.028 110.318C169.483 110.549 171.468 110.884 172.681 109.833C173.893 108.782 173.928 107.142 174.032 105.675C174.182 103.597 174.39 101.518 174.632 99.4511C175.232 94.5548 176.133 89.6931 177.288 84.9007C177.68 83.2724 175.175 82.5795 174.782 84.2078C173.697 88.6884 172.854 93.2152 172.242 97.7766C171.942 100.005 171.699 102.234 171.515 104.474C171.434 105.398 171.503 106.415 171.237 107.304C170.96 108.239 169.944 107.927 169.136 107.846C167.012 107.65 165.869 106.692 165.349 104.636C164.83 102.581 164.749 100.571 164.564 98.5503C164.137 93.8965 163.964 89.2196 164.021 84.5542C164.044 82.8798 161.447 82.8798 161.423 84.5542L161.435 84.5658Z" fill="#17299A"/>
<path d="M167.67 110.918C168.64 114.463 167.878 117.72 166.919 121.173C165.961 124.626 165.43 128.229 166.331 131.878C166.735 133.506 169.24 132.813 168.836 131.185C167.947 127.593 168.767 124.279 169.713 120.803C170.66 117.327 171.145 113.817 170.164 110.225C169.725 108.62 167.22 109.301 167.658 110.918H167.67Z" fill="#17299A"/>
<path d="M165.407 128.021C161.354 132.028 157.024 135.793 152.856 139.696C151.309 141.151 147.661 143.668 149.785 146.116C150.605 147.052 151.898 147.04 153.041 147.063C154.75 147.11 156.447 147.144 158.156 147.167C164.691 147.26 171.226 147.225 177.749 147.052C180.22 146.982 183.603 147.444 185.705 145.839C187.968 144.107 187.425 140.954 185.635 139.095C184.619 138.056 183.291 137.317 182.114 136.485C180.786 135.55 179.493 134.58 178.2 133.61C175.475 131.566 172.75 129.51 169.829 127.767C167.912 126.623 166.169 129.614 168.085 130.758C172.127 133.16 175.763 136.15 179.562 138.899C180.324 139.453 184.746 141.867 183.603 143.102C183.13 143.622 181.802 143.472 181.167 143.495C179.747 143.541 178.327 143.576 176.907 143.61C171.699 143.738 166.492 143.772 161.285 143.738C158.629 143.714 155.985 143.68 153.33 143.61C153.157 143.61 152.625 143.507 152.475 143.587H152.187C152.325 143.957 152.464 144.338 152.591 144.719C152.706 144.754 153.792 143.553 153.872 143.483C154.831 142.594 155.778 141.694 156.736 140.804C160.419 137.351 164.264 134.026 167.855 130.469C169.448 128.898 166.989 126.45 165.407 128.021Z" fill="#17299A"/>
<path d="M149.843 144.708L150.132 148.426C150.201 149.269 150.155 150.227 150.42 151.047C150.997 152.814 153.26 153.034 154.819 153.23C159.622 153.842 164.668 153.392 169.494 153.357C174.32 153.322 179.043 153.265 183.753 152.445C185.462 152.144 187.09 151.463 187.471 149.592C187.69 148.53 187.552 147.352 187.552 146.278C187.552 145.019 187.54 143.772 187.529 142.513C187.529 140.839 184.919 140.839 184.931 142.513C184.931 144.303 184.966 146.093 184.966 147.895C184.966 148.957 184.839 149.558 183.742 149.823C182.83 150.043 181.871 150.147 180.936 150.262C177.149 150.712 173.327 150.747 169.506 150.77C165.684 150.793 162.07 150.863 158.352 150.839C157.452 150.839 156.54 150.816 155.639 150.724C155.108 150.678 153.364 150.597 152.96 150.135C152.614 149.731 152.718 148.172 152.672 147.641L152.441 144.719C152.314 143.068 149.716 143.045 149.843 144.719V144.708Z" fill="#17299A"/>
<path d="M173.235 97.996C173.235 97.996 167.231 86.0323 162.89 87.4296L162.324 82.4062L176.052 83.0645L173.235 97.996Z" fill="#17299A"/>
<path d="M163.871 132.698C163.871 132.698 167.658 143.149 176.953 144.28C186.247 145.412 185.485 142.502 185.485 142.502L169.818 129.776L163.86 132.698H163.871Z" fill="#17299A"/>
<path d="M178.05 145.481C178.05 145.481 179.112 152.225 173.743 152.006L185.52 150.493L186.247 144.326L178.05 145.493V145.481Z" fill="#17299A"/>
<path d="M173.408 13.1878L177.438 18.4652L175.717 8.83423L173.408 13.1878Z" fill="#17299A"/>
<path d="M166.873 152.618C166.873 152.618 186.062 156.025 192.043 153.715C198.024 151.417 193.406 149.107 187.633 149.107" fill="#17299A"/>
<path d="M184.042 23.3037C185.404 24.2622 186.778 25.2322 188.141 26.1907C188.406 26.3755 188.845 26.3986 189.145 26.3177C189.445 26.2369 189.769 26.0059 189.919 25.7172C190.08 25.417 190.161 25.0475 190.046 24.7126C189.93 24.3777 189.734 24.1352 189.445 23.9388C188.083 22.9804 186.709 22.0103 185.347 21.0519C185.081 20.8671 184.642 20.844 184.342 20.9248C184.042 21.0057 183.719 21.2366 183.569 21.5253C183.407 21.8256 183.326 22.1951 183.442 22.53C183.557 22.8649 183.753 23.1074 184.042 23.3037Z" fill="#17299A"/>
<path d="M184.169 6.48994C186.27 5.05799 188.418 3.69533 190.611 2.42506C191.2 2.07862 191.454 1.23562 191.073 0.646669C190.692 0.0577231 189.93 -0.184784 189.295 0.184751C187.101 1.46657 184.954 2.81769 182.852 4.24963C182.298 4.63072 181.987 5.40443 182.391 6.02802C182.749 6.58232 183.568 6.90567 184.169 6.48994Z" fill="#17299A"/>
<path d="M185.474 15.1048H192.517C193.198 15.1048 193.844 14.5043 193.81 13.8114C193.775 13.1186 193.244 12.5181 192.517 12.5181H185.474C184.792 12.5181 184.146 13.1186 184.181 13.8114C184.215 14.5043 184.746 15.1048 185.474 15.1048Z" fill="#17299A"/>
<path d="M164.206 20.5437C162.647 21.6408 161.077 22.7378 159.518 23.8464C159.241 24.0427 159.01 24.2853 158.918 24.6201C158.837 24.9319 158.872 25.3477 159.045 25.6248C159.403 26.1791 160.223 26.514 160.823 26.0867C162.382 24.9897 163.952 23.8926 165.511 22.784C165.788 22.5877 166.019 22.3452 166.111 22.0103C166.192 21.6985 166.157 21.2828 165.984 21.0056C165.626 20.4513 164.806 20.1164 164.206 20.5437Z" fill="#17299A"/>
<path d="M166.123 4.13428C164.218 2.82936 162.266 1.59373 160.28 0.415833C159.692 0.0693945 158.826 0.26571 158.502 0.877752C158.179 1.48979 158.341 2.2866 158.964 2.65614C160.95 3.83403 162.901 5.06966 164.806 6.37458C165.372 6.75567 166.273 6.50161 166.584 5.91266C166.931 5.25443 166.723 4.55 166.123 4.13428Z" fill="#17299A"/>
<path d="M163.502 12.4026H156.459C155.777 12.4026 155.131 13.0031 155.165 13.696C155.2 14.3888 155.731 14.9893 156.459 14.9893H163.502C164.183 14.9893 164.829 14.3888 164.795 13.696C164.76 13.0031 164.229 12.4026 163.502 12.4026Z" fill="#17299A"/>
<path d="M62.4171 128.852C58.0181 130.4 54.3349 133.183 50.8481 136.208C49.3933 137.467 47.9962 138.703 46.3567 139.719C44.6017 140.804 42.7659 141.774 40.9532 142.756C37.3855 144.696 34.2797 146.763 31.2662 149.489C27.6754 152.722 24.2578 156.129 21.5214 160.124C20.8402 161.129 21.9602 162.249 22.9878 162.03C28.8531 160.771 34.3374 158.311 39.7871 155.863C44.8211 153.6 49.9244 151.509 55.097 149.581C65.8693 145.562 76.8495 142.121 87.8989 138.934C93.8566 137.213 99.8258 135.573 105.807 133.98C107.423 133.552 106.73 131.046 105.114 131.474C83.4884 137.248 61.7474 143.391 41.2188 152.399C35.0302 155.112 28.9455 158.092 22.295 159.524L23.7613 161.429C26.3707 157.618 29.6844 154.396 33.102 151.313C34.5799 149.985 36.0116 148.68 37.6857 147.606C39.3599 146.532 40.9763 145.678 42.6505 144.777C45.8833 143.022 48.9892 141.278 51.7602 138.841C55.1778 135.839 58.757 132.871 63.0983 131.347C64.6685 130.792 63.9873 128.286 62.4055 128.841L62.4171 128.852Z" fill="#17299A"/>
<path d="M75.499 118.979C77.5426 120.284 79.9557 121.762 80.6023 124.268C80.9024 125.434 80.6023 126.566 80.0019 127.593C79.6901 128.125 79.3207 128.61 78.9281 129.083C78.6164 129.476 79.0782 128.945 78.9743 129.025C78.8935 129.095 78.8126 129.21 78.7434 129.291C78.2353 129.857 77.7504 130.273 77.0577 130.584C76.134 130.989 75.1757 130.781 74.2289 130.527C73.5246 130.342 73.1436 130.203 72.5548 129.834C72.5201 129.811 72.4855 129.788 72.4508 129.764C72.7048 129.949 72.3931 129.684 72.3354 129.58C72.1622 129.268 72.1737 128.875 72.2315 128.517C72.4162 127.374 73.2013 126.543 73.9403 125.711C74.8986 124.637 75.7992 123.552 76.2264 122.154C76.7228 120.549 74.2174 119.868 73.7209 121.461C73.3283 122.755 72.2315 123.679 71.3886 124.683C70.4419 125.804 69.7606 127.051 69.6221 128.54C69.4951 129.891 70.0031 131.22 71.1346 132.005C71.6888 132.386 72.3469 132.651 72.982 132.859C74.3444 133.31 75.8915 133.621 77.3001 133.229C78.4201 132.917 79.4361 132.236 80.2674 131.427C80.9833 130.734 81.2835 130.307 81.8492 129.487C82.7382 128.194 83.3733 126.623 83.304 125.041C83.1424 121.092 79.8171 118.655 76.7806 116.727C75.3604 115.826 74.0673 118.078 75.4643 118.967L75.499 118.979Z" fill="#17299A"/>
<path d="M66.6661 135.735C66.7815 135.608 66.9085 135.492 67.0355 135.377C67.1048 135.319 67.1625 135.273 67.2318 135.215C67.3126 135.157 67.2664 135.181 67.1163 135.308C67.151 135.273 67.1972 135.25 67.2318 135.215C67.4974 135.019 67.7745 134.857 68.0747 134.707C68.1555 134.672 68.2247 134.638 68.3056 134.592C68.548 134.476 68.0169 134.707 68.2594 134.603C68.421 134.545 68.5827 134.488 68.7443 134.43C69.0676 134.326 69.4024 134.257 69.7373 134.21L69.3909 134.257C69.6795 134.222 69.9682 134.199 70.2684 134.21C70.9496 134.21 71.5962 133.61 71.5615 132.917C71.5269 132.224 70.9958 131.624 70.2684 131.624C68.2478 131.601 66.2389 132.444 64.8418 133.899C64.3684 134.384 64.3222 135.25 64.8418 135.735C65.3614 136.22 66.1696 136.254 66.6776 135.735H66.6661Z" fill="#17299A"/>
<path d="M71.573 139.107C71.7924 138.656 72.0695 138.229 72.3697 137.837L72.1618 138.102C72.5544 137.594 73.0162 137.144 73.5127 136.751L73.2472 136.959C73.5589 136.716 73.8937 136.497 74.2401 136.312C74.8405 135.989 75.083 135.111 74.7019 134.534C74.3209 133.956 73.5589 133.714 72.9239 134.072C71.3883 134.915 70.0836 136.243 69.31 137.813C69.1484 138.125 69.0791 138.472 69.183 138.818C69.2638 139.118 69.4947 139.442 69.7834 139.592C70.0836 139.754 70.4531 139.834 70.7879 139.719C71.0996 139.615 71.4114 139.419 71.5615 139.118L71.573 139.107Z" fill="#17299A"/>
<path d="M79.3087 137.317C79.0431 136.393 78.766 135.458 78.5005 134.534C78.4081 134.222 78.1887 133.922 77.9001 133.76C77.6114 133.598 77.2073 133.529 76.8956 133.633C76.5839 133.737 76.2837 133.933 76.122 134.233C75.9604 134.534 75.8911 134.892 75.995 135.238C76.2606 136.162 76.5377 137.097 76.8032 138.021C76.8956 138.333 77.115 138.633 77.4036 138.795C77.6923 138.957 78.0964 139.026 78.4081 138.922C78.7199 138.818 79.02 138.622 79.1817 138.321C79.3433 138.021 79.4126 137.663 79.3087 137.317Z" fill="#17299A"/>
<path d="M84.1236 134.776C84.0313 134.534 83.9274 134.28 83.8004 134.049C83.6733 133.818 83.5117 133.622 83.3501 133.425C83.0845 133.09 82.7497 132.825 82.4033 132.571C81.7105 132.074 80.833 131.82 79.9786 131.809C79.6438 131.809 79.2974 131.959 79.055 132.19C78.8125 132.421 78.6624 132.79 78.674 133.114C78.7086 133.829 79.2397 134.407 79.9671 134.407C80.0941 134.407 80.2211 134.407 80.3481 134.43L80.0017 134.384C80.2673 134.418 80.5213 134.499 80.7638 134.592L80.452 134.465C80.706 134.58 80.9485 134.719 81.1794 134.88L80.9139 134.672C81.1332 134.846 81.3411 135.042 81.5143 135.261L81.3064 134.996C81.4565 135.192 81.5835 135.412 81.6874 135.643L81.5604 135.331C81.5604 135.331 81.5951 135.412 81.6066 135.446C81.7336 135.77 81.8953 136.035 82.207 136.22C82.4841 136.382 82.8998 136.451 83.2115 136.347C83.5232 136.243 83.8234 136.047 83.9851 135.746C84.1467 135.446 84.2391 135.065 84.1121 134.742L84.1236 134.776Z" fill="#17299A"/>
<path d="M83.8347 130.838C90.7392 130.792 97.5628 131.901 104.352 133.032C105.991 133.31 106.696 130.804 105.045 130.527C98.0247 129.349 90.9701 128.182 83.8347 128.24C82.1606 128.24 82.1606 130.85 83.8347 130.838Z" fill="#17299A"/>
<path d="M63.6066 130.908H66.1005C66.4353 130.908 66.7817 130.758 67.0242 130.527C67.2666 130.296 67.4167 129.926 67.4052 129.603C67.3936 129.279 67.2782 128.921 67.0242 128.679C66.7702 128.436 66.4584 128.298 66.1005 128.298H63.6066C63.2717 128.298 62.9254 128.448 62.6829 128.679C62.4404 128.91 62.2903 129.279 62.3019 129.603C62.3134 129.926 62.4289 130.284 62.6829 130.527C62.9369 130.769 63.2487 130.908 63.6066 130.908Z" fill="#17299A"/>
<path d="M21.7526 161.221C20.1708 162.653 20.2863 164.766 19.455 166.568C19.0162 167.526 17.9425 167.746 17.4114 168.658C16.8225 169.663 16.9611 170.898 17.3883 171.938C17.7808 172.885 18.9008 173.935 18.7969 174.998C18.7391 175.575 18.3119 176.187 18.1272 176.73C17.9078 177.342 17.8386 177.966 17.9194 178.612C18.2311 181.245 20.8636 182.874 23.3806 182.1C24.9739 181.603 24.2927 179.097 22.6878 179.594C21.8681 179.848 20.956 179.617 20.598 178.762C20.2401 177.908 20.8636 177.03 21.1522 176.21C21.4986 175.206 21.4409 174.201 21.0252 173.231C20.6558 172.376 19.9861 171.66 19.709 170.771C19.3973 169.813 20.0554 169.79 20.6904 169.247C21.3254 168.704 21.6718 168.011 21.9605 167.284C22.48 165.956 22.4685 164.097 23.5884 163.092C24.8354 161.972 22.988 160.136 21.7526 161.256V161.221Z" fill="#17299A"/>
<path d="M105.518 133.437C106.396 133.344 106.892 133.899 106.361 134.615C105.922 135.204 105.438 135.573 105.172 136.301C104.606 137.848 105.137 139.476 105.784 140.908C106.2 141.844 106.904 143.022 106.569 144.084C106.35 144.777 105.715 145.354 105.345 145.955C104.999 146.521 104.837 147.156 104.514 147.733C104.121 148.415 103.532 148.969 103.024 149.569C102.147 150.586 101.42 151.567 101.039 152.872C100.577 154.477 99.4914 155.875 99.7454 157.63C99.9879 159.27 101.212 160.482 100.773 162.203C100.253 164.247 99.5029 166.245 98.8679 168.254C98.3599 169.848 100.865 170.54 101.373 168.947C102.066 166.753 103.013 164.489 103.44 162.226C103.602 161.337 103.532 160.505 103.244 159.651C102.955 158.796 102.239 157.849 102.297 156.879C102.343 156.013 103.024 155.205 103.313 154.396C103.636 153.473 103.74 152.814 104.352 152.018C105.345 150.736 106.546 149.673 107.192 148.161C107.874 146.555 109.259 145.377 109.259 143.507C109.259 141.44 107.377 139.684 107.539 137.675C107.62 136.682 108.67 136.185 109.074 135.308C109.352 134.696 109.386 133.991 109.201 133.344C108.751 131.785 107.135 130.677 105.53 130.85C103.925 131.023 103.867 133.633 105.53 133.448L105.518 133.437Z" fill="#17299A"/>
<path d="M27.6988 181.73C46.992 179.375 66.4007 177.677 85.5092 173.947C90.6355 172.942 95.7388 171.787 100.75 170.298C102.343 169.824 101.662 167.318 100.057 167.792C90.7972 170.552 81.2141 172.249 71.6772 173.704C62.1402 175.159 51.8066 176.384 41.8425 177.504C37.1318 178.035 32.4095 178.555 27.6988 179.132C26.0592 179.328 26.0362 181.938 27.6988 181.73Z" fill="#17299A"/>
<path d="M101.812 150.343C101.812 150.343 95.0922 153.496 85.6592 154.535C76.2262 155.574 68.3518 156.129 63.9067 157.918C59.4615 159.708 55.2703 163.854 47.9387 163.854C40.607 163.854 19.986 168.127 19.986 168.127C19.986 168.127 18.3349 169.848 18.8891 172.03C19.4433 174.213 22.5607 171.926 23.0918 172.03C23.623 172.134 27.8141 170.991 32.5364 171.568C37.2587 172.146 44.5673 168.612 46.253 168.831C47.9387 169.051 53.5846 164.997 60.72 165.979C67.8554 166.961 101.974 156.868 101.974 156.868L101.812 150.343Z" fill="#17299A"/>
<path d="M101.962 165.413C101.962 165.413 135.26 169.016 115.297 179.894C95.3344 190.772 27.7446 179.432 27.7446 179.432C27.7446 179.432 99.006 175.148 101.962 165.413Z" fill="#17299A"/>
<path d="M81.7795 124.995C81.7795 124.995 74.2977 131.635 71.5498 130.665C71.5498 130.665 75.1175 132.755 77.6576 131.739C80.1977 130.723 82.3452 128.587 81.7795 124.995Z" fill="#17299A"/>
<path d="M57.0716 172.296L60.4199 173.346C60.8356 173.474 61.3782 173.393 61.7592 173.173C62.1403 172.954 62.4635 172.55 62.5559 172.134C62.6598 171.695 62.6367 171.199 62.3827 170.794C62.1287 170.39 61.7939 170.136 61.3436 169.998L57.9953 168.947C57.5796 168.82 57.037 168.901 56.6559 169.12C56.2749 169.339 55.9516 169.744 55.8593 170.159C55.7554 170.598 55.7784 171.095 56.0325 171.499C56.2865 171.903 56.6213 172.157 57.0716 172.296Z" fill="#17299A"/>
<path d="M92.7828 143.888L96.1312 145.458C96.5584 145.654 96.9971 145.758 97.4705 145.631C97.8746 145.516 98.3133 145.216 98.5096 144.835C98.7174 144.43 98.8329 143.945 98.6828 143.495C98.5558 143.091 98.2902 142.652 97.8861 142.456L94.5378 140.885C94.1106 140.689 93.6719 140.585 93.1985 140.712C92.7944 140.827 92.3556 141.128 92.1594 141.509C91.9515 141.913 91.8361 142.398 91.9862 142.848C92.1132 143.253 92.3787 143.691 92.7828 143.888Z" fill="#17299A"/>
<path d="M34.1641 162.769L36.7389 163.011C36.9813 163.011 37.2007 162.965 37.4085 162.861C37.6279 162.792 37.8127 162.676 37.9628 162.503C38.2629 162.203 38.4939 161.706 38.4708 161.279C38.4477 160.852 38.3091 160.367 37.9628 160.055L37.6164 159.789C37.3508 159.627 37.0506 159.558 36.7389 159.558L34.1641 159.316C33.9217 159.316 33.7023 159.362 33.4945 159.466C33.2751 159.535 33.0904 159.651 32.9403 159.824C32.6401 160.124 32.4092 160.621 32.4323 161.048C32.4553 161.475 32.5939 161.96 32.9403 162.272L33.2867 162.538C33.5522 162.699 33.8524 162.769 34.1641 162.769Z" fill="#17299A"/>
<path d="M65.7193 149.627L63.5603 152.387C63.3871 152.549 63.2716 152.733 63.2023 152.941C63.0984 153.149 63.0407 153.368 63.0522 153.611C63.0522 154.038 63.237 154.546 63.5603 154.835C63.8835 155.124 64.3223 155.366 64.7841 155.343L65.246 155.285C65.5346 155.205 65.7886 155.054 66.008 154.835L68.1671 152.075C68.3403 151.913 68.4557 151.729 68.525 151.521C68.6289 151.313 68.6866 151.094 68.6751 150.851C68.6751 150.424 68.4904 149.916 68.1671 149.627C67.8438 149.338 67.405 149.096 66.9432 149.119L66.4814 149.177C66.1927 149.257 65.9387 149.408 65.7193 149.627Z" fill="#17299A"/>
<path d="M89.7926 162.907L87.6335 165.667C87.4603 165.829 87.3448 166.013 87.2756 166.221C87.1717 166.429 87.1139 166.649 87.1255 166.891C87.1255 167.318 87.3102 167.827 87.6335 168.115C87.9568 168.404 88.3955 168.646 88.8574 168.623L89.3192 168.566C89.6079 168.485 89.8619 168.335 90.0812 168.115L92.2403 165.355C92.4135 165.194 92.529 165.009 92.5982 164.801C92.7022 164.593 92.7599 164.374 92.7483 164.131C92.7483 163.704 92.5636 163.196 92.2403 162.907C91.917 162.618 91.4783 162.376 91.0165 162.399L90.5546 162.457C90.266 162.538 90.012 162.688 89.7926 162.907Z" fill="#17299A"/>
<path d="M28.0106 173.508C27.5141 174.028 27.0177 174.559 26.5212 175.079C26.348 175.24 26.2325 175.425 26.1633 175.633C26.0594 175.841 26.0016 176.06 26.0132 176.303C26.0132 176.545 26.0594 176.765 26.1633 176.973C26.2325 177.192 26.348 177.377 26.5212 177.527L26.8676 177.792C27.1331 177.954 27.4333 178.023 27.7451 178.023L28.2069 177.966C28.4955 177.885 28.7496 177.735 28.9689 177.515C29.4654 176.996 29.9619 176.464 30.4584 175.945C30.6315 175.783 30.747 175.598 30.8163 175.39C30.9202 175.183 30.9779 174.963 30.9664 174.721C30.9664 174.478 30.9202 174.259 30.8163 174.051C30.747 173.831 30.6315 173.647 30.4584 173.497L30.112 173.231C29.8464 173.069 29.5462 173 29.2345 173L28.7726 173.058C28.484 173.139 28.23 173.289 28.0106 173.508Z" fill="#17299A"/>
<path d="M161.193 174.305C161.169 176.603 160.442 178.774 160.038 181.014C159.634 183.255 159.634 185.287 160.338 187.424C161.597 191.211 163.929 194.687 167.462 196.685C168.917 197.505 170.233 195.265 168.778 194.445C165.649 192.678 163.652 189.502 162.659 186.119C161.516 182.227 163.756 178.231 163.802 174.305C163.825 172.631 161.227 172.631 161.204 174.305H161.193Z" fill="#17299A"/>
<path d="M220.862 164.154C214.142 160.655 206.152 159.604 198.659 159.512C190.323 159.408 182.229 161.383 174.124 163.138C169.979 164.039 165.857 165.332 162.728 168.335C161.977 169.051 162.416 170.194 163.305 170.506C172.53 173.716 182.241 171.568 191.627 170.483C201.014 169.397 211.405 170.875 220.885 168.138C222.49 167.676 221.808 165.17 220.192 165.632C210.944 168.3 201.083 166.799 191.627 167.884C182.171 168.97 172.958 171.118 163.986 168L164.564 170.171C167.947 166.926 172.704 166.083 177.114 165.17C182.102 164.143 187.055 162.861 192.135 162.376C196.788 161.926 201.522 162.041 206.164 162.618C210.805 163.196 215.423 164.247 219.545 166.395C221.023 167.168 222.339 164.928 220.862 164.154Z" fill="#17299A"/>
<path d="M221.254 171.614C220.839 176.626 217.433 180.934 215.343 185.345C215.043 185.98 215.17 186.742 215.805 187.123C216.37 187.458 217.283 187.296 217.583 186.661C219.903 181.765 223.379 177.18 223.852 171.626C223.91 170.921 223.217 170.333 222.559 170.333C221.809 170.333 221.324 170.933 221.266 171.626L221.254 171.614Z" fill="#17299A"/>
<path d="M180.624 199.145C184.954 198.729 189.307 198.613 193.648 198.821C197.354 198.994 201.522 200.103 204.998 198.336C206.487 197.574 205.171 195.334 203.681 196.096C202.111 196.893 200.31 196.754 198.613 196.604C196.65 196.431 194.687 196.269 192.724 196.188C188.695 196.038 184.654 196.165 180.636 196.558C178.985 196.72 178.973 199.318 180.636 199.156L180.624 199.145Z" fill="#17299A"/>
<path d="M229.371 171.014C230.122 170.667 230.93 170.529 231.75 170.54L230.503 168.901C230.133 171.314 228.69 173.37 227.501 175.437C226.889 176.511 226.312 177.608 225.884 178.774C225.63 179.467 225.33 180.645 224.557 180.945C223.899 181.199 223.448 181.823 223.644 182.539C223.818 183.162 224.58 183.705 225.238 183.451C226.623 182.908 227.432 181.846 227.986 180.495C228.471 179.34 228.898 178.22 229.521 177.111C230.861 174.732 232.581 172.353 232.997 169.582C233.124 168.762 232.662 167.942 231.75 167.942C230.445 167.931 229.233 168.231 228.055 168.774C227.42 169.074 227.258 169.986 227.593 170.552C227.974 171.21 228.736 171.314 229.371 171.014Z" fill="#17299A"/>
<path d="M216.913 189.121C221.15 189.56 225.642 189.872 229.625 188.07C231.53 187.204 233.077 185.737 234.497 184.236C236.068 182.573 237.557 180.737 238.608 178.693C239.658 176.649 240.143 174.536 240.467 172.342C240.79 170.148 240.778 167.815 239.774 165.783C238.261 162.711 234.243 161.348 231.114 160.817C229.163 160.482 227.073 160.343 225.145 160.932C223.032 161.591 221.393 163.138 219.534 164.27C218.102 165.136 219.407 167.388 220.85 166.51C222.293 165.632 223.494 164.547 224.937 163.808C226.3 163.103 227.847 163.046 229.348 163.173C231.911 163.392 235.479 164.235 237.141 166.406C238.215 167.803 238.18 169.894 237.984 171.545C237.753 173.427 237.326 175.483 236.472 177.18C235.617 178.878 234.417 180.483 233.112 181.915C231.911 183.232 230.606 184.606 229.025 185.472C225.411 187.435 220.862 186.927 216.936 186.511C215.273 186.338 215.285 188.936 216.936 189.109L216.913 189.121Z" fill="#17299A"/>
<path d="M226.762 190.715C229.059 191.038 234.394 191.061 235.756 193.417C238.181 197.62 228.725 199.976 226.219 200.542C205.979 205.103 185.254 204.872 164.783 202.47C131.162 198.533 156.886 191.269 156.886 191.269" stroke="#17299A" stroke-width="2" stroke-linecap="round" stroke-linejoin="round"/>
<path d="M154.265 187.204C154.265 187.204 108.001 195.9 150.34 206.293C192.678 216.675 245.478 207.505 249.588 198.163C253.699 188.821 229.475 187.204 229.475 187.204" stroke="#17299A" stroke-width="2" stroke-linecap="round" stroke-linejoin="round"/>
<path d="M180.728 196.72C180.728 196.72 212.191 190.599 221.289 172.053C221.289 172.053 220.042 193.821 208.843 198.186C199.386 201.87 180.059 196.673 180.059 196.673" fill="#17299A"/>
<path d="M177.311 210.427C177.311 210.427 186.617 213.822 194.745 214.908C202.873 215.993 222.663 207.067 231.218 210.531C239.785 213.995 288.809 199.572 251.17 190.992L244.335 190.357C244.335 190.357 255.626 195.981 246.447 201.096C237.268 206.201 196.338 213.291 177.311 210.427Z" fill="#17299A"/>
<path d="M166.781 177.469C166.781 177.561 166.781 177.665 166.758 177.758L166.815 177.296C166.758 177.7 166.631 178.07 166.481 178.439L166.654 178.023C165.915 179.744 164.714 181.395 165.257 183.37C165.499 184.248 166.492 184.871 167.393 184.583C168.293 184.294 168.859 183.393 168.605 182.446C168.582 182.354 168.559 182.261 168.547 182.169L168.605 182.631C168.582 182.423 168.582 182.215 168.605 182.007L168.547 182.469C168.605 182.077 168.72 181.707 168.882 181.349L168.709 181.765C169.321 180.345 170.21 179.063 170.256 177.469C170.291 176.557 169.436 175.691 168.524 175.737C167.554 175.783 166.827 176.499 166.792 177.469H166.781Z" fill="#17299A"/>
<path d="M229.971 168.023C227.12 168.185 224.337 169.051 221.935 170.598C221.173 171.095 220.792 172.157 221.312 172.965C221.797 173.728 222.871 174.109 223.679 173.589C224.198 173.254 224.741 172.942 225.307 172.665C225.457 172.596 225.607 172.527 225.757 172.457C226.08 172.307 225.445 172.573 225.803 172.434C226.092 172.319 226.392 172.215 226.681 172.111C227.258 171.926 227.835 171.776 228.436 171.66C228.597 171.626 228.759 171.603 228.932 171.568C229.059 171.545 229.383 171.418 228.967 171.568C229.256 171.476 229.66 171.499 229.96 171.476C230.86 171.43 231.738 170.714 231.692 169.743C231.657 168.854 230.93 167.954 229.96 168.011L229.971 168.023Z" fill="#17299A"/>
<path d="M242.245 180.437C241.864 181.453 241.933 182.758 242.707 183.509C243.815 184.583 245.87 184.444 246.806 183.208C247.741 181.973 247.302 179.94 245.94 179.224C244.577 178.508 242.649 178.936 242.245 180.437Z" fill="#17299A"/>
<path d="M250.327 183.901C249.588 185.229 250.962 187.862 252.452 188.128C253.941 188.394 254.946 186.211 254.946 186.211C254.946 186.211 257.001 179.328 250.327 183.901Z" fill="#17299A"/>
<path d="M248.722 172.088C247.51 174.42 249.115 177.492 251.805 177.585C252.625 177.619 253.467 177.458 254.264 177.284C255.153 177.1 256.042 176.857 256.885 176.545C258.328 176.003 260.834 174.871 259.991 172.885C259.644 172.065 258.848 171.637 258.063 171.314C257.278 170.991 256.504 170.817 255.696 170.679C254.645 170.506 253.571 170.379 252.509 170.402C251.689 170.413 250.719 170.459 250.004 170.921C249.415 171.302 249.172 172.076 249.542 172.7C249.888 173.289 250.731 173.554 251.32 173.162L251.435 173.092L251.482 173.069C251.239 173.162 251.181 173.196 251.308 173.15C251.424 173.127 251.528 173.081 251.643 173.058C251.689 173.058 251.724 173.046 251.77 173.035C252.013 172.989 251.77 172.977 251.701 173.035C251.77 172.965 252.14 173 252.232 172.989C252.936 172.954 253.641 172.989 254.333 173.069C254.426 173.069 254.53 173.092 254.622 173.104C254.299 173.069 254.541 173.092 254.622 173.104C254.795 173.127 254.98 173.162 255.153 173.196C255.523 173.266 255.892 173.346 256.262 173.439C256.562 173.52 256.862 173.624 257.162 173.728C257.335 173.785 257.381 173.728 257.139 173.716C257.197 173.716 257.289 173.785 257.335 173.808C257.451 173.866 257.566 173.935 257.67 174.005C257.901 174.143 257.566 174.005 257.589 173.935C257.589 173.935 257.693 174.028 257.705 174.039C257.843 174.201 257.52 173.751 257.624 173.924C257.693 174.039 257.682 174.132 257.566 173.762C257.566 173.785 257.578 173.808 257.589 173.843C257.532 173.577 257.532 173.635 257.589 173.358C257.566 173.474 257.485 173.577 257.659 173.219C257.532 173.497 257.682 173.127 257.728 173.162C257.728 173.162 257.532 173.358 257.52 173.37C257.381 173.554 257.786 173.196 257.578 173.323C257.52 173.358 257.462 173.404 257.405 173.439C257.127 173.612 256.827 173.751 256.539 173.901C256.262 174.039 256.804 173.797 256.516 173.901C256.446 173.924 256.365 173.959 256.296 173.982C256.135 174.039 255.961 174.109 255.788 174.166C255.407 174.293 255.026 174.409 254.634 174.513C254.287 174.605 253.929 174.686 253.571 174.755C253.387 174.79 253.202 174.825 253.017 174.859C252.925 174.871 252.844 174.882 252.752 174.905C252.474 174.952 253.017 174.882 252.763 174.905C252.463 174.94 252.151 174.975 251.851 174.963C251.793 174.963 251.736 174.963 251.689 174.963C251.378 174.963 252.082 175.079 251.736 174.963C251.689 174.952 251.366 174.813 251.632 174.952C251.539 174.905 251.447 174.848 251.354 174.79C251.597 174.94 251.331 174.767 251.285 174.721C251.239 174.675 251.181 174.617 251.135 174.559C251.227 174.675 251.227 174.675 251.135 174.559C251.077 174.467 251.02 174.374 250.973 174.27C250.916 174.132 250.916 174.132 250.973 174.27C250.95 174.224 250.939 174.166 250.927 174.109C250.904 174.016 250.881 173.935 250.87 173.843C250.939 174.155 250.881 173.716 250.87 173.647C250.87 173.335 250.777 173.855 250.881 173.566C250.893 173.497 250.916 173.427 250.939 173.358C250.881 173.497 250.881 173.508 250.939 173.358C251.262 172.734 251.1 171.949 250.477 171.58C249.888 171.233 249.022 171.418 248.699 172.042L248.722 172.088Z" fill="#17299A"/>
<path d="M107.181 158.45C106.673 159.905 107.065 161.556 108.058 162.711C108.913 163.681 110.298 164.166 111.58 164.027C112.249 163.958 112.907 163.773 113.485 163.415C113.97 163.115 114.281 162.734 114.662 162.33C114.951 162.03 115.274 161.775 115.586 161.521C115.678 161.452 115.759 161.383 115.852 161.314C115.678 161.452 115.805 161.348 115.898 161.279C116.152 161.083 116.417 160.886 116.671 160.678C117.353 160.159 118.092 159.593 118.53 158.842C119.165 157.734 118.611 156.567 117.48 156.129C116.81 155.874 116.036 155.84 115.321 155.84C114.328 155.84 113.323 155.955 112.342 156.117C111.36 156.279 110.356 156.521 109.421 156.914C108.543 157.283 107.677 157.826 107.389 158.785C107.192 159.454 107.631 160.205 108.301 160.378C108.97 160.551 109.698 160.147 109.894 159.466C109.952 159.27 109.732 159.789 109.825 159.616C109.94 159.42 109.825 159.72 109.721 159.72C109.744 159.72 109.929 159.477 109.952 159.501C109.986 159.535 109.64 159.708 109.882 159.558C109.94 159.524 109.998 159.489 110.044 159.454C110.171 159.385 110.298 159.327 110.425 159.258C110.668 159.131 110.136 159.362 110.402 159.258C110.483 159.235 110.552 159.2 110.633 159.177C110.795 159.119 110.956 159.062 111.129 159.016C111.487 158.912 111.845 158.819 112.215 158.738C112.596 158.658 112.988 158.588 113.369 158.531C113.704 158.484 113.081 158.565 113.415 158.531C113.508 158.531 113.612 158.507 113.704 158.496C113.9 158.473 114.085 158.461 114.281 158.45C114.951 158.404 115.621 158.415 116.29 158.45C116.556 158.473 115.967 158.38 116.21 158.45C116.267 158.461 116.325 158.473 116.394 158.484C116.498 158.507 116.602 158.554 116.706 158.577C116.914 158.611 116.383 158.427 116.568 158.519C116.602 158.542 116.637 158.554 116.671 158.577C116.441 158.415 116.521 158.531 116.371 158.276C116.244 158.057 116.21 157.861 116.279 157.56C116.221 157.815 116.464 157.249 116.267 157.584C116.129 157.815 116.314 157.526 116.325 157.526C116.325 157.549 116.198 157.676 116.186 157.688C115.956 157.93 115.702 158.161 115.436 158.369C115.286 158.496 115.136 158.611 114.986 158.727C114.72 158.935 115.205 158.565 114.94 158.761C114.859 158.819 114.778 158.889 114.697 158.946C114.328 159.235 113.958 159.512 113.589 159.801C113.346 159.997 113.115 160.193 112.896 160.413C112.804 160.505 112.711 160.609 112.63 160.713C112.561 160.794 112.492 160.886 112.411 160.967C112.353 161.025 112.307 161.071 112.249 161.117C112.365 161.025 112.365 161.025 112.249 161.117C112.157 161.175 112.053 161.233 111.961 161.279C111.822 161.337 111.822 161.337 111.961 161.279C111.891 161.302 111.822 161.325 111.753 161.348C111.684 161.371 111.603 161.383 111.533 161.406C111.383 161.429 111.383 161.429 111.545 161.406C111.476 161.406 111.395 161.418 111.326 161.418C111.21 161.418 111.106 161.418 110.991 161.418C110.841 161.406 110.841 161.406 111.002 161.418C110.933 161.406 110.852 161.394 110.783 161.371C110.679 161.348 110.575 161.314 110.46 161.279C110.737 161.371 110.333 161.21 110.275 161.163C110.229 161.129 109.986 160.909 110.183 161.106C110.09 161.013 110.009 160.932 109.929 160.84C110.079 161.025 109.848 160.702 109.836 160.69C109.79 160.621 109.755 160.54 109.721 160.471C109.767 160.586 109.755 160.575 109.709 160.424C109.536 159.835 109.525 159.697 109.721 159.108C109.952 158.45 109.455 157.688 108.809 157.514C108.093 157.318 107.446 157.757 107.215 158.427L107.181 158.45Z" fill="#17299A"/>
<path d="M117.93 163.069C117.145 164.385 118.115 166.291 119.697 166.545C121.279 166.799 122.907 165.286 122.595 163.819C123.01 165.794 125.562 158.08 118.808 162.364" fill="#17299A"/>
<path d="M172.739 120.78C200.657 127.432 228.275 135.365 255.338 144.915C263.051 147.641 270.729 150.447 278.418 153.218C279.989 153.784 280.67 151.278 279.111 150.712C265.522 145.805 251.967 140.839 238.227 136.381C224.487 131.924 210.898 127.928 197.077 124.245C189.215 122.143 181.329 120.157 173.42 118.274C171.792 117.882 171.099 120.388 172.727 120.78H172.739Z" fill="#17299A"/>
<path d="M151.263 116.45C155.096 117.27 158.976 117.905 162.809 118.759C163.49 118.909 164.217 118.551 164.402 117.847C164.587 117.189 164.183 116.403 163.49 116.253C159.657 115.399 155.777 114.764 151.944 113.944C151.263 113.794 150.536 114.152 150.351 114.856C150.178 115.503 150.57 116.311 151.263 116.45Z" fill="#17299A"/>
<path d="M46.7724 132.028C31.4856 134.984 16.2104 138.033 0.935149 141.081C-0.704371 141.405 -0.0116163 143.911 1.6279 143.587C16.9031 140.527 32.1784 137.49 47.4652 134.534C49.1047 134.222 48.412 131.716 46.7724 132.028Z" fill="#17299A"/>
<path d="M143.978 113.413C132.339 115.11 120.678 116.461 109.074 118.436C102.343 119.579 95.6349 120.792 88.9151 122.027C87.2756 122.328 87.9684 124.834 89.6079 124.533C104.883 121.716 120.158 119.129 135.561 117.166C138.597 116.773 141.634 116.369 144.67 115.93C146.321 115.688 145.617 113.182 143.978 113.424V113.413Z" fill="#17299A"/>
</g>
<defs>
<clipPath id="clip0_11_1077">
<rect width="280" height="215" fill="white"/>
</clipPath>
</defs>
</svg>
