<svg width="36" height="36" viewBox="0 0 36 36" fill="none" xmlns="http://www.w3.org/2000/svg">
<path d="M0.000119992 17.9688C0.036843 7.96406 8.06173 -0.0356508 18.0256 0.000119492C28.0583 0.0358898 36.0612 8.12916 35.9996 18.177C35.9391 28.0908 27.8169 36.0511 17.8154 35.9998C7.94605 35.9484 -0.0356849 27.8698 0.000119992 17.9688ZM17.942 7.47887C16.4382 7.47887 14.9344 7.44677 13.4315 7.48529C9.82811 7.57701 7.45029 9.96812 7.4154 13.5488C7.38694 16.5022 7.38603 19.4564 7.4154 22.4098C7.45121 25.9868 9.8125 28.4531 13.3884 28.5476C16.4401 28.6283 19.4982 28.6246 22.5499 28.5522C26.1294 28.4669 28.5219 26.018 28.5697 22.4566C28.6101 19.4564 28.6082 16.4554 28.5724 13.4553C28.532 10.0442 26.1671 7.62837 22.7344 7.49355C21.1397 7.43118 19.5395 7.48254 17.942 7.47887Z" fill="white"/>
<path d="M17.9394 20.9997C16.2934 20.9774 14.97 19.5997 15.0005 17.9399C15.0311 16.3024 16.4132 14.9741 18.0593 15.0004C19.7006 15.0267 21.0217 16.4036 20.9997 18.0658C20.9786 19.7136 19.6129 21.022 17.9394 20.9997Z" fill="white"/>
<path d="M26.9859 17.9513C26.9839 16.3857 27.0145 14.8201 26.9773 13.2554C26.918 10.771 25.3118 9.08668 22.8432 9.0417C19.5696 8.98237 16.2932 8.9862 13.0196 9.05415C10.7439 9.10104 9.07844 10.8236 9.04216 13.1089C8.9925 16.3369 8.98582 19.5658 9.02688 22.7938C9.05648 25.1049 10.6436 26.8486 12.946 26.9203C16.3151 27.0256 19.6919 27.0275 23.061 26.9203C25.3787 26.8466 26.9181 25.1231 26.9792 22.7938C27.0212 21.1803 26.9868 19.5658 26.9859 17.9513ZM18.0121 23.6177C14.8321 23.6034 12.2862 21.0683 12.3263 17.958C12.3683 14.7751 14.8712 12.3338 18.0742 12.352C21.1864 12.3692 23.7495 14.9885 23.696 18.0959C23.6435 21.1353 21.0737 23.6302 18.0111 23.6168L18.0121 23.6177ZM24.0513 13.5578C23.2224 13.5578 22.5501 12.884 22.5501 12.0534C22.5501 11.2227 23.2224 10.549 24.0513 10.549C24.8802 10.549 25.5525 11.2227 25.5525 12.0534C25.5525 12.884 24.8802 13.5578 24.0513 13.5578Z" fill="white"/>
</svg>
