<svg width="54" height="54" viewBox="0 0 54 54" fill="none" xmlns="http://www.w3.org/2000/svg">
<g clip-path="url(#clip0_280_16)">
<path d="M21.7 46.0099C21.16 46.0099 20.87 45.5599 20.87 45.1299C20.87 44.6999 21.13 44.2899 21.7 44.2899C21.97 44.3099 22.23 44.4099 22.44 44.5899L22.77 44.0499C22.62 43.9099 22.45 43.7999 22.26 43.7299C22.07 43.6599 21.87 43.6199 21.67 43.6299C21.46 43.6199 21.26 43.6599 21.08 43.7299C20.89 43.8099 20.72 43.9199 20.57 44.0599C20.43 44.1999 20.31 44.3699 20.24 44.5499C20.16 44.7399 20.12 44.9399 20.12 45.1399C20.12 46.0099 20.74 46.6699 21.67 46.6699C21.89 46.6699 22.11 46.6299 22.31 46.5499C22.51 46.4599 22.7 46.3399 22.85 46.1799L22.48 45.6499C22.48 45.6499 22.14 46.0099 21.7 46.0099Z" fill="#FFFBF2"/>
<path d="M19.16 30.0601H17.54L15.58 38.4001L13.62 30.0601H11.97L10.51 41.1201H11.95L12.95 33.4401L14.75 41.1201H16.4L18.17 33.5701L19.13 41.1201H20.56L19.16 30.0601Z" fill="#FFFBF2"/>
<path d="M13.27 27.7901H15.03L17.72 16.3501L19.03 25.6101H20.47L18.73 13.3501H16.97L14.15 25.3301L11.34 13.3501H9.52997L7.65997 27.7901H9.09997L10.58 16.3201L13.27 27.7901Z" fill="#FFFBF2"/>
<path d="M24.71 25.8099C25.51 26.1299 26.38 26.2199 27.23 26.0499C28.07 25.8799 28.85 25.4699 29.46 24.8599C30.06 24.2499 30.48 23.4699 30.65 22.6299C30.81 21.7799 30.73 20.9099 30.4 20.1099C30.07 19.3199 29.51 18.6399 28.79 18.1599C28.08 17.6799 27.23 17.4299 26.37 17.4299C25.22 17.4299 24.11 17.8899 23.3 18.7099C22.48 19.5199 22.02 20.6299 22.02 21.7799C22.02 22.6399 22.28 23.4899 22.75 24.1999C23.23 24.9199 23.91 25.4799 24.71 25.8099ZM23.93 20.1499C24.25 19.6699 24.71 19.2899 25.25 19.0699C25.79 18.8499 26.38 18.7899 26.95 18.8999C27.52 19.0099 28.04 19.2899 28.45 19.6999C28.86 20.1099 29.14 20.6299 29.25 21.1999C29.36 21.7699 29.31 22.3599 29.08 22.8999C28.86 23.4399 28.48 23.8899 28 24.2199C27.52 24.5399 26.95 24.7099 26.37 24.7099C25.59 24.7099 24.85 24.3999 24.3 23.8499C23.75 23.2999 23.44 22.5499 23.44 21.7799C23.44 21.1999 23.61 20.6299 23.93 20.1499Z" fill="#FFFBF2"/>
<path d="M37.39 42.3899H36.69L36.36 43.0099H36.91L37.39 42.3899Z" fill="#FFFBF2"/>
<path d="M37.6 45.9999H36.42V45.4499H37.32V44.8299H36.42V44.2899H37.54V43.6699H35.7V46.6199H37.6V45.9999Z" fill="#FFFBF2"/>
<path d="M26.41 43.6699L25.4 46.6199H26.14L26.32 45.9999H27.24L27.42 46.6199H28.17L27.16 43.6699H26.41ZM26.49 45.4199L26.66 44.8499C26.71 44.6699 26.78 44.3499 26.78 44.3499C26.78 44.3499 26.85 44.6699 26.9 44.8499L27.06 45.4199H26.48H26.49Z" fill="#FFFBF2"/>
<path d="M27.22 28.5701C26.12 28.5701 25.04 28.8901 24.12 29.5101C23.2 30.1201 22.48 30.9901 22.06 32.0101C21.64 33.0301 21.53 34.1601 21.74 35.2401C21.96 36.3201 22.49 37.3201 23.27 38.1001C24.05 38.8801 25.05 39.4101 26.13 39.6201C27.21 39.8401 28.34 39.7301 29.36 39.3101C30.38 38.8801 31.25 38.1701 31.86 37.2501C32.47 36.3301 32.8 35.2501 32.8 34.1501C32.8 32.6701 32.21 31.2501 31.17 30.2101C30.12 29.1601 28.7 28.5701 27.22 28.5701ZM28.17 38.2001C25.93 38.7301 23.69 37.3401 23.16 35.1101C22.63 32.8701 24.02 30.6301 26.25 30.1001C28.49 29.5701 30.73 30.9601 31.26 33.1901C31.79 35.4301 30.4 37.6701 28.17 38.2001Z" fill="#FFFBF2"/>
<path d="M46.15 32.5199C46.15 32.1199 46.53 31.8399 47.01 31.8399C47.73 31.8399 48.27 32.3399 48.27 32.3399L48.72 31.4999C48.72 31.4999 48.14 30.8899 47.02 30.8899C45.9 30.8899 45.1 31.5899 45.1 32.5399C45.1 34.2999 47.8 34.1199 47.8 35.1399C47.8 35.6099 47.41 35.8299 46.97 35.8299C46.17 35.8299 45.55 35.2299 45.55 35.2299L44.98 36.0099C45.24 36.2599 45.55 36.4599 45.89 36.5999C46.23 36.7299 46.59 36.7999 46.95 36.7899C48.14 36.7999 48.84 36.0299 48.84 35.1099C48.84 33.2899 46.15 33.5399 46.15 32.5199Z" fill="#FFFBF2"/>
<path d="M30.96 46.6199H31.68V45.5299H32.58V44.9099H31.68V44.2899H32.77V43.6699H30.96V46.6199Z" fill="#FFFBF2"/>
<path d="M41.57 33.2301C42.47 32.8301 43.23 32.1601 43.74 31.3101C44.25 30.4701 44.5 29.4901 44.44 28.5001C44.39 27.5201 44.04 26.5701 43.43 25.7901C42.83 25.0001 42.01 24.4201 41.07 24.1201L39.48 18.7401C40.28 18.3701 40.97 17.8001 41.48 17.0801C41.98 16.3601 42.28 15.5101 42.35 14.6301C42.41 13.7501 42.24 12.8701 41.84 12.0901C41.45 11.3001 40.85 10.6301 40.11 10.1501C39.37 9.68006 38.52 9.41006 37.63 9.38006C36.75 9.34006 35.88 9.55007 35.11 9.97006C34.34 10.4001 33.69 11.0201 33.24 11.7801C32.79 12.5401 32.56 13.4001 32.56 14.2801V24.1001H33.98V17.7301C34.43 18.1901 34.97 18.5501 35.57 18.8001C36.17 19.0501 36.81 19.1801 37.46 19.1801C37.68 19.1801 37.9 19.1601 38.12 19.1301L39.52 23.8801C38.23 23.8901 36.99 24.4101 36.08 25.3201C35.17 26.2401 34.66 27.4801 34.66 28.7701V36.8601H36.08V32.2201C36.61 32.7601 37.26 33.1701 37.98 33.4201C38.7 33.6601 39.46 33.7301 40.21 33.6201L43.12 43.8701L44.13 47.4101L45.39 46.7001L44.34 43.0101L41.57 33.2301ZM37.46 17.7601C36.77 17.7601 36.1 17.5601 35.52 17.1801C34.95 16.7901 34.51 16.2501 34.24 15.6101C33.98 14.9801 33.91 14.2801 34.04 13.6001C34.18 12.9301 34.51 12.3101 35 11.8201C35.48 11.3401 36.1 11.0001 36.78 10.8701C37.45 10.7401 38.15 10.8001 38.79 11.0701C39.42 11.3301 39.97 11.7801 40.35 12.3501C40.73 12.9201 40.94 13.5901 40.94 14.2801C40.94 15.2001 40.57 16.0901 39.92 16.7401C39.27 17.3901 38.38 17.7601 37.46 17.7601ZM39.56 32.2501C38.87 32.2501 38.2 32.0501 37.62 31.6701C37.05 31.2801 36.61 30.7401 36.34 30.1001C36.08 29.4701 36.01 28.7701 36.15 28.0901C36.28 27.4201 36.61 26.8001 37.1 26.3101C37.59 25.8201 38.2 25.4901 38.88 25.3601C39.55 25.2301 40.25 25.2901 40.89 25.5601C41.53 25.8201 42.07 26.2701 42.45 26.8401C42.83 27.4101 43.04 28.0801 43.04 28.7701C43.04 29.7001 42.67 30.5801 42.02 31.2301C41.37 31.8801 40.48 32.2501 39.56 32.2501Z" fill="#FFFBF2"/>
<path d="M26.78 44.3501C26.78 44.3501 26.71 44.6701 26.66 44.8501L26.49 45.4201H27.07L26.91 44.8501C26.86 44.6701 26.79 44.3501 26.79 44.3501H26.78Z" fill="#17299E"/>
<path d="M43.04 28.7701C43.04 28.0801 42.83 27.4101 42.45 26.8401C42.07 26.2701 41.53 25.8201 40.89 25.5601C40.25 25.2901 39.55 25.2301 38.88 25.3601C38.2 25.4901 37.58 25.8301 37.1 26.3101C36.62 26.7901 36.28 27.4201 36.15 28.0901C36.01 28.7701 36.08 29.4701 36.34 30.1001C36.61 30.7401 37.05 31.2801 37.62 31.6701C38.2 32.0501 38.87 32.2501 39.56 32.2501C40.48 32.2501 41.37 31.8801 42.02 31.2301C42.67 30.5801 43.04 29.7001 43.04 28.7701Z" fill="#17299E"/>
<path d="M40.94 14.2799C40.94 13.5899 40.73 12.9199 40.35 12.3499C39.97 11.7799 39.42 11.3299 38.79 11.0699C38.15 10.7999 37.45 10.7399 36.78 10.8699C36.1 10.9999 35.48 11.3399 35 11.8199C34.51 12.3099 34.18 12.9299 34.04 13.5999C33.91 14.2799 33.98 14.9799 34.24 15.6099C34.51 16.2499 34.95 16.7899 35.52 17.1799C36.1 17.5599 36.77 17.7599 37.46 17.7599C38.38 17.7599 39.27 17.3899 39.92 16.7399C40.57 16.0899 40.94 15.1999 40.94 14.2799Z" fill="#17299E"/>
<path d="M26.37 24.7099C26.95 24.7099 27.52 24.5399 28 24.2199C28.48 23.8999 28.86 23.4399 29.08 22.8999C29.3 22.3599 29.36 21.7699 29.25 21.1999C29.14 20.6299 28.86 20.1099 28.45 19.6999C28.04 19.2899 27.52 19.0099 26.95 18.8999C26.38 18.7899 25.79 18.8399 25.25 19.0699C24.71 19.2899 24.26 19.6699 23.93 20.1499C23.61 20.6299 23.44 21.1999 23.44 21.7799C23.44 22.5599 23.75 23.2999 24.3 23.8499C24.85 24.3999 25.6 24.7099 26.37 24.7099Z" fill="#17299E"/>
<path d="M26.26 30.1001C24.02 30.6301 22.64 32.8701 23.17 35.1101C23.7 37.3501 25.94 38.7301 28.18 38.2001C30.42 37.6701 31.8 35.4301 31.27 33.1901C30.74 30.9501 28.5 29.5701 26.26 30.1001Z" fill="#17299E"/>
<path d="M51.99 31.56C52.62 30.98 53.13 30.28 53.48 29.49C53.83 28.71 54.01 27.86 54.01 27C54.01 26.14 53.83 25.29 53.48 24.5C53.13 23.72 52.62 23.02 51.99 22.44C51.88 22.34 51.81 22.21 51.78 22.07C51.75 21.93 51.77 21.78 51.83 21.65C52.2 20.88 52.4 20.03 52.42 19.17C52.44 18.31 52.28 17.46 51.95 16.66C51.62 15.87 51.13 15.15 50.51 14.56C49.89 13.97 49.15 13.52 48.34 13.23C48.2 13.18 48.08 13.09 48 12.97C47.92 12.85 47.88 12.7 47.89 12.56C47.93 11.7 47.8 10.85 47.49 10.04C47.18 9.24 46.71 8.51 46.1 7.91C45.49 7.3 44.77 6.83 43.96 6.52C43.16 6.21 42.31 6.07 41.45 6.12C41.3 6.12 41.16 6.09 41.04 6C40.92 5.92 40.83 5.81 40.78 5.67C40.49 4.86 40.04 4.12 39.44 3.5C38.85 2.87 38.14 2.38 37.34 2.05C36.55 1.72 35.69 1.56 34.83 1.59C33.97 1.61 33.13 1.81 32.35 2.18C32.22 2.24 32.07 2.26 31.93 2.23C31.79 2.2 31.66 2.13 31.56 2.02C30.99 1.38 30.28 0.88 29.5 0.53C28.71 0.18 27.86 0 27 0C26.14 0 25.29 0.18 24.51 0.53C23.72 0.88 23.02 1.38 22.44 2.02C22.35 2.13 22.22 2.2 22.08 2.23C21.94 2.26 21.79 2.24 21.66 2.18C20.88 1.81 20.04 1.61 19.18 1.59C18.32 1.56 17.46 1.72 16.67 2.05C15.87 2.38 15.16 2.87 14.56 3.5C13.97 4.12 13.52 4.86 13.23 5.67C13.18 5.81 13.09 5.92 12.97 6C12.85 6.08 12.7 6.12 12.56 6.12C11.7 6.07 10.84 6.21 10.04 6.52C9.24001 6.83 8.51001 7.3 7.91001 7.91C7.30001 8.51 6.83001 9.24 6.52001 10.04C6.21001 10.85 6.07001 11.7 6.12001 12.56C6.12001 12.7 6.08001 12.85 6.00001 12.97C5.92001 13.09 5.81001 13.18 5.67001 13.23C4.86001 13.52 4.12001 13.97 3.50001 14.56C2.88001 15.16 2.38001 15.87 2.06001 16.67C1.73001 17.46 1.57001 18.31 1.59001 19.17C1.61001 20.03 1.81001 20.88 2.18001 21.65C2.24001 21.78 2.26001 21.93 2.23001 22.07C2.20001 22.21 2.13001 22.34 2.02001 22.44C1.38001 23.02 0.88001 23.72 0.53001 24.51C0.21001 25.23 0.0300098 26 0.0100098 26.79C0.0100098 26.86 0.0100098 26.93 0.0100098 27C0.0100098 27.07 0.0100098 27.14 0.0100098 27.21C0.0300098 28 0.21001 28.77 0.53001 29.49C0.88001 30.28 1.38001 30.98 2.02001 31.56C2.13001 31.66 2.20001 31.78 2.23001 31.93C2.26001 32.07 2.24001 32.21 2.18001 32.34C1.81001 33.12 1.61001 33.97 1.59001 34.83C1.56001 35.69 1.72001 36.54 2.05001 37.34C2.38001 38.13 2.87001 38.85 3.50001 39.44C4.12001 40.03 4.86001 40.49 5.67001 40.78C5.81001 40.83 5.92001 40.92 6.00001 41.04C6.08001 41.16 6.12001 41.3 6.12001 41.44C6.07001 42.3 6.21001 43.16 6.52001 43.96C6.83001 44.76 7.30001 45.49 7.91001 46.1C8.51001 46.7 9.24001 47.18 10.04 47.48C10.84 47.79 11.7 47.93 12.56 47.89C12.7 47.88 12.85 47.92 12.97 48C13.09 48.08 13.18 48.2 13.23 48.33C13.52 49.14 13.97 49.88 14.56 50.51C15.16 51.13 15.87 51.62 16.67 51.95C17.46 52.28 18.32 52.44 19.18 52.42C20.04 52.4 20.88 52.19 21.66 51.83C21.79 51.76 21.94 51.74 22.08 51.77C22.22 51.8 22.35 51.87 22.44 51.98C23.02 52.62 23.72 53.13 24.51 53.48C25.29 53.82 26.14 54 27 54C27.86 54 28.71 53.82 29.5 53.48C30.28 53.13 30.99 52.62 31.56 51.98C31.66 51.87 31.79 51.8 31.93 51.77C32.07 51.74 32.22 51.76 32.35 51.83C33.13 52.19 33.97 52.4 34.83 52.42C35.69 52.44 36.55 52.28 37.34 51.95C38.14 51.62 38.85 51.13 39.44 50.51C40.04 49.88 40.49 49.14 40.78 48.33C40.83 48.2 40.92 48.08 41.04 48C41.16 47.92 41.3 47.88 41.45 47.89C42.36 47.93 43.28 47.77 44.13 47.41L43.12 43.87L40.21 33.62C39.46 33.73 38.7 33.66 37.98 33.42C37.26 33.17 36.61 32.76 36.08 32.22V36.86H34.66V28.77C34.66 27.48 35.17 26.24 36.08 25.32C36.99 24.41 38.23 23.89 39.52 23.88L38.12 19.13C37.9 19.16 37.68 19.18 37.46 19.18C36.81 19.18 36.17 19.05 35.57 18.8C34.97 18.55 34.43 18.19 33.98 17.73V24.1H32.56V14.28C32.56 13.4 32.79 12.54 33.24 11.78C33.69 11.02 34.34 10.4 35.11 9.97C35.88 9.55 36.75 9.34 37.63 9.38C38.52 9.41 39.37 9.68 40.11 10.15C40.85 10.63 41.45 11.3 41.84 12.09C42.24 12.87 42.41 13.75 42.35 14.63C42.28 15.51 41.98 16.36 41.48 17.08C40.97 17.8 40.28 18.37 39.48 18.74L41.07 24.12C42.01 24.42 42.83 25 43.43 25.79C44.04 26.57 44.39 27.52 44.44 28.5C44.5 29.49 44.25 30.47 43.74 31.31C43.23 32.16 42.47 32.83 41.57 33.23L44.34 43.01L45.39 46.7C45.64 46.52 45.87 46.32 46.09 46.1C46.7 45.49 47.17 44.76 47.48 43.96C47.79 43.16 47.92 42.3 47.88 41.44C47.88 41.3 47.92 41.15 48 41.03C48.08 40.91 48.19 40.82 48.33 40.77C49.14 40.48 49.88 40.03 50.5 39.44C51.13 38.84 51.62 38.13 51.95 37.33C52.28 36.54 52.44 35.68 52.41 34.82C52.39 33.96 52.19 33.12 51.82 32.34C51.76 32.21 51.75 32.06 51.78 31.92C51.81 31.78 51.88 31.65 51.99 31.56ZM36.69 42.39H37.39L36.91 43.01H36.36L36.69 42.39ZM35.7 43.67H37.54V44.29H36.42V44.83H37.32V45.45H36.42V46H37.6V46.62H35.7V43.67ZM23.3 18.71C24.11 17.89 25.22 17.43 26.37 17.43C27.23 17.43 28.08 17.68 28.79 18.16C29.51 18.64 30.07 19.32 30.4 20.11C30.73 20.91 30.81 21.78 30.65 22.63C30.48 23.47 30.06 24.25 29.46 24.86C28.85 25.47 28.07 25.88 27.23 26.05C26.38 26.22 25.51 26.13 24.71 25.81C23.91 25.48 23.23 24.92 22.75 24.2C22.28 23.49 22.02 22.64 22.02 21.78C22.02 20.63 22.48 19.52 23.3 18.71ZM9.10001 27.79H7.66001L9.53001 13.35H11.34L14.15 25.33L16.97 13.35H18.73L20.47 25.61H19.03L17.72 16.35L15.03 27.79H13.27L10.58 16.32L9.10001 27.79ZM19.13 41.12L18.17 33.57L16.4 41.12H14.75L12.95 33.44L11.95 41.12H10.51L11.97 30.06H13.62L15.58 38.4L17.54 30.06H19.16L20.56 41.12H19.13ZM22.31 46.55C22.11 46.63 21.89 46.67 21.67 46.67C20.74 46.67 20.12 46.01 20.12 45.14C20.12 44.94 20.16 44.74 20.24 44.55C20.31 44.37 20.43 44.2 20.57 44.06C20.72 43.92 20.89 43.81 21.08 43.73C21.26 43.66 21.46 43.62 21.67 43.63C21.87 43.62 22.07 43.66 22.26 43.73C22.45 43.8 22.62 43.91 22.77 44.05L22.44 44.59C22.23 44.41 21.97 44.31 21.7 44.29C21.13 44.29 20.87 44.71 20.87 45.13C20.87 45.55 21.16 46.01 21.7 46.01C22.14 46.01 22.48 45.65 22.48 45.65L22.85 46.18C22.7 46.34 22.51 46.46 22.31 46.55ZM27.42 46.62L27.24 46H26.32L26.14 46.62H25.4L26.41 43.67H27.16L28.17 46.62H27.42ZM32.77 44.29H31.68V44.91H32.58V45.53H31.68V46.62H30.96V43.67H32.77V44.29ZM32.8 34.15C32.8 35.25 32.47 36.33 31.86 37.25C31.25 38.17 30.38 38.88 29.36 39.31C28.34 39.73 27.21 39.84 26.13 39.62C25.05 39.41 24.05 38.88 23.27 38.1C22.49 37.32 21.96 36.32 21.74 35.24C21.53 34.16 21.64 33.03 22.06 32.01C22.48 30.99 23.2 30.12 24.12 29.51C25.04 28.89 26.12 28.57 27.22 28.57C28.7 28.57 30.12 29.16 31.17 30.21C32.21 31.25 32.8 32.67 32.8 34.15ZM46.95 36.8C46.59 36.8 46.23 36.73 45.89 36.6C45.55 36.46 45.24 36.26 44.98 36.01L45.55 35.23C45.55 35.23 46.17 35.83 46.97 35.83C47.41 35.83 47.8 35.61 47.8 35.14C47.8 34.12 45.1 34.3 45.1 32.54C45.1 31.59 45.92 30.89 47.02 30.89C48.12 30.89 48.72 31.5 48.72 31.5L48.27 32.34C48.27 32.34 47.73 31.84 47.01 31.84C46.53 31.84 46.15 32.12 46.15 32.52C46.15 33.54 48.84 33.29 48.84 35.11C48.84 36.03 48.14 36.8 46.95 36.8Z" fill="#17299E"/>
</g>
<defs>
<clipPath id="clip0_280_16">
<rect width="54.01" height="54" fill="white"/>
</clipPath>
</defs>
</svg>
