<svg width="362" height="368" viewBox="0 0 362 368" fill="none" xmlns="http://www.w3.org/2000/svg">
<path d="M348.446 214.526C352.714 210.606 356.125 205.823 358.46 200.485C360.794 195.147 362 189.372 362 183.532C362 177.693 360.794 171.918 358.46 166.58C356.125 161.241 352.714 156.458 348.446 152.538C347.732 151.877 347.245 151.001 347.057 150.039C346.869 149.077 346.989 148.079 347.4 147.192C349.866 141.912 351.213 136.167 351.354 130.327C351.496 124.487 350.43 118.681 348.223 113.285C346.017 107.889 342.72 103.021 338.545 98.9962C334.37 94.9714 329.41 91.8786 323.984 89.9173C323.072 89.5863 322.29 88.9669 321.752 88.1505C321.215 87.334 320.95 86.3639 320.998 85.3833C321.289 79.5543 320.372 73.7282 318.305 68.2811C316.238 62.834 313.068 57.8872 308.999 53.7603C304.929 49.6333 300.051 46.4179 294.68 44.3218C289.309 42.2257 283.565 41.2955 277.817 41.5914C276.849 41.6405 275.891 41.3715 275.085 40.8243C274.28 40.2772 273.67 39.4812 273.346 38.5545C271.411 33.0478 268.359 28.0138 264.387 23.7772C260.415 19.5407 255.611 16.1956 250.285 13.9579C244.96 11.7203 239.231 10.6396 233.469 10.7857C227.706 10.9319 222.038 12.3016 216.829 14.8064C215.955 15.2276 214.97 15.3519 214.02 15.1609C213.071 14.9698 212.207 14.4735 211.557 13.7456C207.692 9.41729 202.976 5.958 197.712 3.59055C192.448 1.2231 186.754 0 180.996 0C175.238 0 169.544 1.2231 164.28 3.59055C159.016 5.958 154.3 9.41729 150.435 13.7456C149.787 14.474 148.925 14.9707 147.976 15.1619C147.028 15.353 146.044 15.2284 145.171 14.8064C139.963 12.3002 134.294 10.9295 128.531 10.7826C122.768 10.6358 117.039 11.7162 111.713 13.9541C106.387 16.1919 101.584 19.5375 97.6117 23.7748C93.6398 28.0121 90.5882 33.047 88.654 38.5545C88.3299 39.4803 87.7197 40.2753 86.9141 40.821C86.1085 41.3667 85.1507 41.6339 84.1832 41.5828C78.4349 41.2869 72.6893 42.2173 67.3176 44.3139C61.946 46.4105 57.0678 49.6266 52.9983 53.7545C48.9288 57.8825 45.7585 62.8303 43.6922 68.2784C41.6259 73.7265 40.7097 79.5536 41.0026 85.3833C41.0496 86.3649 40.7838 87.3359 40.2445 88.1524C39.7052 88.969 38.9211 89.5878 38.008 89.9173C32.5837 91.8806 27.625 94.9747 23.4517 99.0001C19.2783 103.025 15.9828 107.893 13.7775 113.289C11.5722 118.685 10.506 124.489 10.6477 130.329C10.7893 136.168 12.1356 141.912 14.5999 147.192C15.0129 148.08 15.1334 149.079 14.9435 150.042C14.7536 151.004 14.2635 151.88 13.5455 152.538C9.27992 156.46 5.87101 161.243 3.53811 166.581C1.20521 171.919 0 177.693 0 183.532C0 189.371 1.20521 195.145 3.53811 200.483C5.87101 205.821 9.27992 210.605 13.5455 214.526C14.2624 215.186 14.7517 216.061 14.9415 217.023C15.1313 217.986 15.0116 218.985 14.5999 219.873C12.1299 225.154 10.7789 230.903 10.6342 236.746C10.4896 242.59 11.5544 248.4 13.76 253.8C15.9657 259.201 19.2631 264.073 23.4396 268.101C27.6162 272.13 32.579 275.226 38.008 277.19C38.9218 277.518 39.7068 278.137 40.2462 278.953C40.7857 279.77 41.051 280.742 41.0026 281.724C40.7109 287.553 41.628 293.379 43.6949 298.826C45.7617 304.273 48.9322 309.22 53.0016 313.347C57.071 317.474 61.9487 320.689 67.3197 322.785C72.6908 324.881 78.4356 325.812 84.1832 325.516C85.1504 325.466 86.1076 325.734 86.9129 326.279C87.7183 326.825 88.3288 327.619 88.654 328.544C90.5882 334.052 93.6398 339.086 97.6117 343.324C101.584 347.561 106.387 350.907 111.713 353.145C117.039 355.382 122.768 356.463 128.531 356.316C134.294 356.169 139.963 354.798 145.171 352.292C146.044 351.87 147.028 351.746 147.976 351.937C148.925 352.128 149.787 352.625 150.435 353.353C154.3 357.681 159.016 361.141 164.28 363.508C169.544 365.875 175.238 367.099 180.996 367.099C186.754 367.099 192.448 365.875 197.712 363.508C202.976 361.141 207.692 357.681 211.557 353.353C212.207 352.625 213.071 352.129 214.02 351.938C214.97 351.747 215.955 351.871 216.829 352.292C222.038 354.797 227.706 356.167 233.469 356.313C239.231 356.459 244.96 355.378 250.285 353.141C255.611 350.903 260.415 347.558 264.387 343.321C268.359 339.085 271.411 334.051 273.346 328.544C273.67 327.618 274.28 326.823 275.086 326.278C275.892 325.732 276.849 325.465 277.817 325.516C283.796 325.792 289.761 324.759 295.307 322.487C295.458 322.426 295.609 322.363 295.759 322.299L295.755 322.286L269.542 228.565C264.504 229.312 259.364 228.835 254.543 227.173C249.723 225.512 245.361 222.714 241.815 219.009V250.533H232.3V195.594C232.317 186.809 235.75 178.386 241.854 172.152C247.958 165.919 263.962 177.18 272.624 177.102L255.522 130.056C254.047 130.27 252.559 130.385 251.068 130.399C246.727 130.402 242.428 129.529 238.423 127.831C234.417 126.134 230.784 123.645 227.736 120.509V163.813L222.81 157.328L218.23 97.0862C218.22 91.0973 219.802 85.2164 222.81 80.0627C225.819 74.909 230.141 70.673 235.323 67.8006C240.505 64.9283 246.354 63.5258 252.256 63.7407C258.157 63.9557 263.893 65.7802 268.858 69.0222C273.823 72.2642 277.835 76.8038 280.471 82.1631C283.107 87.5224 284.269 93.5032 283.836 99.4761C283.402 105.449 281.389 111.193 278.008 116.103C274.627 121.013 270.004 124.909 264.624 127.379L275.261 163.942C281.557 166.015 287.088 169.972 291.125 175.292C295.163 180.612 297.52 187.047 297.885 193.75C298.25 200.454 296.606 207.112 293.171 212.851C289.735 218.59 284.668 223.14 278.635 225.904L304.229 317.414L304.236 317.44C305.909 316.204 307.483 314.837 308.943 313.351C313.004 309.211 316.169 304.258 318.236 298.808C320.303 293.358 321.226 287.531 320.947 281.698C320.899 280.718 321.164 279.747 321.702 278.931C322.239 278.115 323.022 277.495 323.933 277.164C329.363 275.201 334.327 272.106 338.504 268.078C342.681 264.049 345.98 259.178 348.186 253.777C350.393 248.376 351.458 242.566 351.314 236.722C351.17 230.878 349.819 225.129 347.35 219.847C346.95 218.957 346.841 217.961 347.039 217.004C347.236 216.047 347.729 215.179 348.446 214.526Z" fill="#17299A"/>
<path d="M269.542 228.565L295.755 322.286C297.605 321.55 301.625 319.158 304.229 317.414L278.635 225.904C284.668 223.14 289.735 218.59 293.171 212.851C296.606 207.112 298.25 200.454 297.885 193.75C297.52 187.047 295.163 180.612 291.125 175.292C287.088 169.972 281.557 166.015 275.261 163.942L264.624 127.379C270.004 124.909 274.627 121.013 278.008 116.103C281.389 111.193 283.402 105.449 283.836 99.4761C284.269 93.5032 283.107 87.5224 280.471 82.1631C277.835 76.8038 273.823 72.2642 268.858 69.0222C263.893 65.7802 258.157 63.9557 252.256 63.7407C246.354 63.5258 240.505 64.9283 235.323 67.8006C230.141 70.673 225.819 74.909 222.81 80.0627C219.802 85.2164 218.22 91.0973 218.23 97.0862L222.81 157.328L227.736 163.813V120.509C230.784 123.645 234.417 126.134 238.423 127.831C242.428 129.529 246.727 130.402 251.068 130.399C252.559 130.385 254.047 130.27 255.522 130.056L272.624 177.102C263.962 177.18 247.958 165.919 241.854 172.152C235.75 178.386 232.317 186.809 232.3 195.594V250.533H241.815V219.009C245.361 222.714 249.723 225.512 254.543 227.173C259.364 228.835 264.504 229.312 269.542 228.565Z" fill="#17299A"/>
<path d="M289 195.718C289 191.105 287.651 186.596 285.124 182.76C282.597 178.925 279.004 175.935 274.802 174.17C270.599 172.405 265.975 171.943 261.513 172.843C257.051 173.743 252.953 175.964 249.737 179.226C246.52 182.488 244.329 186.644 243.442 191.168C242.554 195.693 243.01 200.382 244.751 204.644C246.492 208.906 249.44 212.549 253.222 215.112C257.004 217.675 261.451 219.042 266 219.042C272.098 219.036 277.944 216.576 282.256 212.204C286.568 207.831 288.993 201.902 289 195.718Z" fill="#FFFBF2"/>
<path d="M275 96.3299C274.998 91.7172 273.589 87.2086 270.951 83.3741C268.313 79.5396 264.564 76.5515 260.178 74.7874C255.793 73.0234 250.967 72.5627 246.312 73.4636C241.658 74.3645 237.382 76.5866 234.026 79.8488C230.671 83.1111 228.386 87.267 227.461 91.7912C226.535 96.3153 227.011 101.005 228.828 105.266C230.644 109.527 233.721 113.17 237.667 115.732C241.614 118.295 246.254 119.662 251 119.662C257.365 119.658 263.468 117.198 267.969 112.823C272.469 108.448 274.998 102.516 275 96.3299Z" fill="#FFFBF2"/>
<path d="M177 167.324C180.758 167.324 184.431 166.194 187.556 164.077C190.68 161.96 193.116 158.951 194.554 155.43C195.992 151.909 196.368 148.035 195.635 144.298C194.902 140.56 193.092 137.127 190.435 134.432C187.778 131.738 184.392 129.903 180.707 129.159C177.021 128.416 173.201 128.797 169.729 130.256C166.257 131.714 163.29 134.184 161.202 137.352C159.114 140.521 158 144.246 158 148.057C158.004 153.165 160.007 158.064 163.57 161.676C167.132 165.289 171.962 167.32 177 167.324Z" fill="#FFFBF2"/>
<path d="M189.243 259.753C204.239 256.164 213.526 240.927 209.987 225.72C206.448 210.513 191.422 201.095 176.427 204.684C161.431 208.273 152.144 223.51 155.683 238.717C159.222 253.924 174.248 263.342 189.243 259.753Z" fill="#FFFBF2"/>
<path d="M348.446 214.526C352.714 210.606 356.125 205.823 358.46 200.485C360.794 195.147 362 189.372 362 183.532C362 177.693 360.794 171.918 358.46 166.58C356.125 161.241 352.714 156.458 348.446 152.538C347.732 151.877 347.245 151.001 347.057 150.039C346.869 149.077 346.989 148.079 347.4 147.192C349.866 141.912 351.213 136.167 351.354 130.327C351.496 124.487 350.43 118.681 348.223 113.285C346.017 107.889 342.72 103.021 338.545 98.9962C334.37 94.9714 329.41 91.8786 323.984 89.9173C323.072 89.5863 322.29 88.9669 321.752 88.1505C321.215 87.334 320.95 86.3639 320.998 85.3833C321.289 79.5543 320.372 73.7282 318.305 68.2811C316.238 62.834 313.068 57.8872 308.999 53.7603C304.929 49.6333 300.051 46.4179 294.68 44.3218C289.309 42.2257 283.565 41.2955 277.817 41.5914C276.849 41.6405 275.891 41.3715 275.085 40.8243C274.28 40.2772 273.67 39.4812 273.346 38.5545C271.411 33.0478 268.359 28.0138 264.387 23.7772C260.415 19.5407 255.611 16.1956 250.285 13.9579C244.96 11.7203 239.231 10.6396 233.469 10.7857C227.706 10.9319 222.038 12.3016 216.829 14.8064C215.955 15.2276 214.97 15.3519 214.02 15.1609C213.071 14.9698 212.207 14.4735 211.557 13.7456C207.692 9.41729 202.976 5.958 197.712 3.59055C192.448 1.2231 186.754 0 180.996 0C175.238 0 169.544 1.2231 164.28 3.59055C159.016 5.958 154.3 9.41729 150.435 13.7456C149.787 14.474 148.925 14.9707 147.976 15.1619C147.028 15.353 146.044 15.2284 145.171 14.8064C139.963 12.3002 134.294 10.9295 128.531 10.7826C122.768 10.6358 117.039 11.7162 111.713 13.9541C106.387 16.1919 101.584 19.5375 97.6117 23.7748C93.6398 28.0121 90.5882 33.047 88.654 38.5545C88.3299 39.4803 87.7197 40.2753 86.9141 40.821C86.1085 41.3667 85.1507 41.6339 84.1832 41.5828C78.4349 41.2869 72.6893 42.2173 67.3176 44.3139C61.946 46.4105 57.0678 49.6266 52.9983 53.7545C48.9288 57.8825 45.7585 62.8303 43.6922 68.2784C41.6259 73.7265 40.7097 79.5536 41.0026 85.3833C41.0496 86.3649 40.7838 87.3359 40.2445 88.1524C39.7052 88.969 38.9211 89.5878 38.008 89.9173C32.5837 91.8806 27.625 94.9747 23.4517 99.0001C19.2783 103.025 15.9828 107.893 13.7775 113.289C11.5722 118.685 10.506 124.489 10.6477 130.329C10.7893 136.168 12.1356 141.912 14.5999 147.192C15.0129 148.08 15.1334 149.079 14.9435 150.042C14.7536 151.004 14.2635 151.88 13.5455 152.538C9.27992 156.46 5.87101 161.243 3.53811 166.581C1.20521 171.919 0 177.693 0 183.532C0 189.371 1.20521 195.145 3.53811 200.483C5.87101 205.821 9.27992 210.605 13.5455 214.526C14.2624 215.186 14.7517 216.061 14.9415 217.023C15.1313 217.986 15.0116 218.985 14.5999 219.873C12.1299 225.154 10.7789 230.903 10.6342 236.746C10.4896 242.59 11.5544 248.4 13.76 253.8C15.9657 259.201 19.2631 264.073 23.4396 268.101C27.6162 272.13 32.579 275.226 38.008 277.19C38.9218 277.518 39.7068 278.137 40.2462 278.953C40.7857 279.77 41.051 280.742 41.0026 281.724C40.7109 287.553 41.628 293.379 43.6949 298.826C45.7617 304.273 48.9322 309.22 53.0016 313.347C57.071 317.474 61.9487 320.689 67.3197 322.785C72.6908 324.881 78.4356 325.812 84.1832 325.516C85.1504 325.466 86.1076 325.734 86.9129 326.279C87.7183 326.825 88.3288 327.619 88.654 328.544C90.5882 334.052 93.6398 339.086 97.6117 343.324C101.584 347.561 106.387 350.907 111.713 353.145C117.039 355.382 122.768 356.463 128.531 356.316C134.294 356.169 139.963 354.798 145.171 352.292C146.044 351.87 147.028 351.746 147.976 351.937C148.925 352.128 149.787 352.625 150.435 353.353C154.3 357.681 159.016 361.141 164.28 363.508C169.544 365.875 175.238 367.099 180.996 367.099C186.754 367.099 192.448 365.875 197.712 363.508C202.976 361.141 207.692 357.681 211.557 353.353C212.207 352.625 213.071 352.129 214.02 351.938C214.97 351.747 215.955 351.871 216.829 352.292C222.038 354.797 227.706 356.167 233.469 356.313C239.231 356.459 244.96 355.378 250.285 353.141C255.611 350.903 260.415 347.558 264.387 343.321C268.359 339.085 271.411 334.051 273.346 328.544C273.67 327.618 274.28 326.823 275.086 326.278C275.892 325.732 276.849 325.465 277.817 325.516C283.958 325.8 290.086 324.701 295.759 322.299L269.542 228.565C264.504 229.312 259.364 228.835 254.543 227.173C249.723 225.512 245.361 222.714 241.815 219.009V250.533H232.3V195.594C232.317 186.809 235.75 178.386 241.854 172.152C247.958 165.919 256.24 162.378 264.902 162.299L255.522 130.056C254.047 130.27 252.559 130.385 251.068 130.399C246.727 130.402 242.428 129.529 238.423 127.831C234.417 126.134 230.784 123.645 227.736 120.509V163.813L218.23 163.813L218.23 97.0862C218.22 91.0973 219.802 85.2164 222.81 80.0627C225.819 74.909 230.141 70.673 235.323 67.8006C240.505 64.9283 246.354 63.5258 252.256 63.7407C258.157 63.9557 263.893 65.7802 268.858 69.0222C273.823 72.2642 277.835 76.8038 280.471 82.1631C283.107 87.5224 284.269 93.5032 283.836 99.4761C283.402 105.449 281.389 111.193 278.008 116.103C274.627 121.013 270.004 124.909 264.624 127.379L275.261 163.942C281.557 166.015 287.088 169.972 291.125 175.292C295.163 180.612 297.52 187.047 297.885 193.75C298.25 200.454 296.606 207.112 293.171 212.851C289.735 218.59 284.668 223.14 278.635 225.904L304.236 317.44C305.909 316.204 307.483 314.837 308.943 313.351C313.004 309.211 316.169 304.258 318.236 298.808C320.303 293.358 321.226 287.531 320.947 281.698C320.899 280.718 321.164 279.747 321.702 278.931C322.239 278.115 323.022 277.495 323.933 277.164C329.363 275.201 334.327 272.106 338.504 268.078C342.681 264.049 345.98 259.178 348.186 253.777C350.393 248.376 351.458 242.566 351.314 236.722C351.17 230.878 349.819 225.129 347.35 219.847C346.95 218.957 346.841 217.961 347.039 217.004C347.236 216.047 347.729 215.179 348.446 214.526ZM245.931 288.183H250.647L247.391 292.383H243.687L245.931 288.183ZM239.276 296.883H251.642V301.083H244.101V304.728H250.124V308.928H244.101V312.709H252.03V316.91H239.276V296.883ZM176.761 118.473C182.535 118.468 188.18 120.2 192.983 123.449C197.786 126.698 201.531 131.319 203.744 136.728C205.957 142.136 206.539 148.088 205.415 153.831C204.292 159.575 201.514 164.851 197.433 168.994C193.353 173.136 188.152 175.957 182.49 177.102C176.828 178.246 170.958 177.661 165.623 175.422C160.289 173.182 155.729 169.388 152.521 164.52C149.313 159.652 147.6 153.928 147.6 148.073C147.609 140.23 150.684 132.71 156.15 127.162C161.616 121.613 169.028 118.489 176.761 118.473ZM51.3528 188.922L63.8624 90.7728H76.0094L94.8371 172.223L113.741 90.7728H125.55L137.199 174.096H127.583L118.785 111.15L100.742 188.922H88.9323L70.906 110.919L60.9691 188.922H51.3528ZM121.813 228.18L109.894 279.508H98.8861L86.8319 227.324L80.0836 279.508H70.4589L80.2186 204.355H91.2942L104.403 261.056L117.562 204.355H128.444L137.798 279.508H128.199L121.813 228.18ZM145.221 317.243C139.038 317.243 134.863 312.795 134.863 306.858C134.852 305.486 135.114 304.127 135.634 302.86C136.154 301.594 136.92 300.447 137.887 299.489C138.855 298.53 140.003 297.78 141.263 297.282C142.523 296.784 143.87 296.549 145.221 296.592C146.579 296.545 147.933 296.771 149.204 297.257C150.475 297.743 151.639 298.479 152.628 299.424L150.384 303.119C149.005 301.902 147.266 301.182 145.441 301.075C141.662 301.075 139.865 303.898 139.865 306.789C139.865 309.681 141.797 312.778 145.441 312.778C148.427 312.778 150.696 310.314 150.696 310.314L153.176 313.898C152.145 314.977 150.908 315.83 149.54 316.405C148.172 316.98 146.702 317.265 145.221 317.243ZM183.78 316.91L182.565 312.709H176.407L175.218 316.91H170.249L176.998 296.883H182.059L188.807 316.91H183.78ZM219.63 301.083H212.367V305.284H218.39V309.493H212.367V316.91H207.534V296.883H219.63V301.083ZM219.849 232.132C219.851 239.637 217.658 246.973 213.548 253.214C209.438 259.454 203.595 264.318 196.759 267.191C189.922 270.064 182.4 270.816 175.142 269.352C167.884 267.889 161.217 264.275 155.985 258.968C150.752 253.662 147.189 246.901 145.746 239.54C144.303 232.18 145.044 224.55 147.877 217.617C150.709 210.684 155.506 204.759 161.659 200.591C167.813 196.422 175.047 194.198 182.447 194.2C192.369 194.211 201.881 198.216 208.894 205.335C215.907 212.453 219.847 222.104 219.849 232.166V232.132ZM314.722 250.097C312.284 250.136 309.863 249.688 307.596 248.778C305.33 247.868 303.262 246.514 301.512 244.793L305.283 239.489C305.283 239.489 309.433 243.587 314.831 243.587C317.742 243.587 320.382 242.055 320.382 238.89C320.382 231.944 302.313 233.141 302.313 221.225C302.313 214.766 307.813 209.958 315.152 209.958C322.702 209.958 326.582 214.116 326.582 214.116L323.562 219.856C323.562 219.856 319.901 216.434 315.127 216.434C311.887 216.434 309.357 218.342 309.357 221.079C309.357 227.966 327.366 226.272 327.366 238.693C327.341 244.938 322.702 250.131 314.722 250.131V250.097Z" fill="#FFFBF2"/>
</svg>
