<svg width="273" height="252" viewBox="0 0 273 252" fill="none" xmlns="http://www.w3.org/2000/svg">
<path d="M243.743 128.519C243.733 121.67 241.536 114.998 237.464 109.455C233.393 103.912 227.656 99.7811 221.07 97.6506L210.435 62.0044C215.804 59.5903 220.416 55.7912 223.787 51.0064C227.158 46.2216 229.162 40.6277 229.59 34.8125C230.018 28.9974 228.853 23.1757 226.218 17.9592C223.583 12.7428 219.575 8.32422 214.616 5.1678C209.656 2.01138 203.928 0.233674 198.033 0.0215029C192.138 -0.190669 186.295 1.17052 181.116 3.96204C175.937 6.75355 171.615 10.8723 168.603 15.8855C165.591 20.8987 164.001 26.6212 164 32.4517V97.5028H173.518V55.2847C177.073 58.8927 181.442 61.6177 186.268 63.2369C191.093 64.856 196.237 65.3234 201.28 64.6008L210.655 96.0392C201.989 96.1042 193.7 99.5497 187.591 105.626C181.482 111.702 178.049 119.918 178.038 128.484V182.038H187.563V151.331C190.61 154.387 194.242 156.814 198.246 158.47C202.251 160.126 206.549 160.978 210.89 160.978C212.365 160.966 213.837 160.858 215.297 160.654L241.458 252C244.485 250.76 247.353 249.168 250 247.257L224.423 158.058C230.17 155.485 235.048 151.332 238.474 146.094C241.899 140.857 243.728 134.756 243.743 128.519ZM196.845 55.538C192.23 55.538 187.718 54.1851 183.88 51.6503C180.043 49.1156 177.052 45.5129 175.286 41.2979C173.52 37.0828 173.058 32.4448 173.959 27.9704C174.86 23.4961 177.083 19.3862 180.348 16.1608C183.612 12.9354 187.77 10.7392 192.297 9.85C196.824 8.96082 201.516 9.41859 205.78 11.1654C210.044 12.9122 213.688 15.8697 216.251 19.6636C218.814 23.4576 220.182 27.9177 220.18 32.4799C220.169 38.5931 217.706 44.4526 213.333 48.7746C208.959 53.0966 203.03 55.5287 196.845 55.538ZM210.883 151.57C206.269 151.569 201.76 150.215 197.924 147.68C194.089 145.145 191.1 141.543 189.336 137.329C187.571 133.116 187.111 128.479 188.012 124.007C188.914 119.534 191.137 115.426 194.4 112.202C197.664 108.979 201.821 106.784 206.346 105.896C210.872 105.007 215.562 105.465 219.824 107.212C224.086 108.958 227.728 111.915 230.291 115.707C232.853 119.5 234.219 123.959 234.218 128.519C234.209 134.632 231.747 140.492 227.372 144.813C222.998 149.135 217.068 151.565 210.883 151.57Z" fill="#172983"/>
<path d="M93.1862 228.005C97.992 228.005 100.461 230.599 100.461 230.599L98.2578 233.987C96.9039 232.87 95.1965 232.209 93.403 232.108C89.6815 232.108 87.9186 234.702 87.9186 237.35C87.9186 239.997 89.8144 242.869 93.396 242.869C96.3341 242.869 98.5586 240.612 98.5586 240.612L101 243.921C99.9878 244.913 98.7716 245.697 97.4265 246.227C96.0814 246.756 94.6359 247.019 93.1792 246.999C87.1002 246.999 83.0009 242.915 83.0009 237.469C82.9832 236.207 83.236 234.954 83.7439 233.787C84.2518 232.62 85.0044 231.562 85.9563 230.678C86.9081 229.793 88.0394 229.101 89.282 228.641C90.5246 228.182 91.8527 227.965 93.1862 228.005Z" fill="#172983"/>
<path d="M129.991 243.015H124.002L122.846 247H118L124.528 228H129.472L136 246.993H131.154L129.991 243.015ZM126.986 232.334C126.986 232.334 126.557 234.388 126.204 235.6L125.103 239.297H128.89L127.817 235.6C127.471 234.409 127.042 232.334 127.042 232.334H126.986Z" fill="#172983"/>
<path d="M154 228H167V231.986H159.192V235.973H165.662V239.959H159.192V247H154V228Z" fill="#172983"/>
<path d="M185.007 226.785H197.608V231.025H189.923V234.704H196.057V238.943H189.923V242.76H198V247H185L185.007 226.785ZM191.765 218H196.579L193.258 222.24H189.488L191.765 218Z" fill="#172983"/>
<path d="M123.5 110C117.665 110 111.962 108.329 107.111 105.197C102.259 102.065 98.4783 97.6142 96.2456 92.4065C94.0128 87.1988 93.4286 81.4684 94.5668 75.9399C95.7051 70.4115 98.5147 65.3333 102.64 61.3475C106.766 57.3617 112.022 54.6473 117.745 53.5476C123.467 52.448 129.399 53.0124 134.789 55.1695C140.18 57.3265 144.787 60.9795 148.028 65.6663C151.27 70.3531 153 75.8632 153 81.5C152.987 89.0547 149.874 96.2963 144.345 101.638C138.816 106.98 131.32 109.987 123.5 110ZM123.5 62.2799C119.566 62.2785 115.721 63.4042 112.449 65.5145C109.178 67.6248 106.628 70.6251 105.121 74.1357C103.615 77.6463 103.22 81.5096 103.987 85.2371C104.753 88.9645 106.647 92.3886 109.428 95.0764C112.209 97.7641 115.752 99.5946 119.61 100.337C123.468 101.078 127.467 100.698 131.102 99.2444C134.736 97.7904 137.842 95.3278 140.028 92.168C142.214 89.0083 143.38 85.2934 143.38 81.493C143.376 76.4021 141.283 71.5205 137.559 67.9187C133.835 64.317 128.784 62.2891 123.514 62.2799H123.5Z" fill="#172983"/>
<path d="M129.993 201C122.675 200.999 115.522 198.857 109.438 194.845C103.354 190.833 98.6129 185.132 95.8138 178.462C93.0146 171.792 92.2833 164.452 93.7123 157.372C95.1414 150.292 98.6665 143.789 103.842 138.686C109.018 133.582 115.611 130.107 122.789 128.7C129.966 127.293 137.405 128.017 144.166 130.781C150.926 133.545 156.704 138.224 160.768 144.227C164.833 150.231 167.001 157.288 167 164.507C166.987 174.184 163.083 183.461 156.146 190.302C149.208 197.144 139.803 200.991 129.993 201ZM129.993 137.292C124.538 137.289 119.204 138.882 114.667 141.87C110.129 144.858 106.592 149.106 104.502 154.077C102.412 159.048 101.864 164.518 102.926 169.797C103.988 175.076 106.613 179.925 110.469 183.732C114.325 187.539 119.239 190.132 124.589 191.184C129.939 192.235 135.485 191.698 140.526 189.641C145.566 187.583 149.875 184.096 152.907 179.623C155.939 175.149 157.559 169.889 157.56 164.507C157.554 157.297 154.651 150.383 149.486 145.281C144.321 140.18 137.316 137.306 130.007 137.292H129.993Z" fill="#172983"/>
<path d="M73.4924 27.0212L61.7945 27.0141L43.0567 106.673L24.4387 27.0071L12.4096 27L0 122.986L9.5063 122.993L19.3649 46.7082L37.1937 123H48.8986L66.7907 46.9482L75.4796 108.515H85L73.4924 27.0212Z" fill="#172983"/>
<path d="M35.064 159.018L46.8662 208.986L57.6569 208.993L69.3475 159.806L75.5973 208.993L85 209L75.8554 137.014L65.1902 137.007L52.272 191.316L39.4445 137H28.591L19 208.979H28.4096L35.064 159.018Z" fill="#172983"/>
<path d="M250.832 171.398C250.832 171.398 255.008 175.487 260.437 175.487C263.366 175.487 266.031 173.964 266.031 170.802C266.031 163.889 247.845 165.053 247.852 153.21C247.852 146.786 253.389 141.993 260.745 142C268.344 142 272.248 146.139 272.248 146.139L269.211 151.888C269.211 151.888 265.515 148.511 260.688 148.511C257.429 148.511 254.879 150.415 254.879 153.131C254.879 159.994 273 158.312 273 170.672C273 176.824 268.33 181.998 260.294 181.998C257.84 182.036 255.403 181.589 253.122 180.681C250.841 179.774 248.761 178.424 247 176.709L250.832 171.398Z" fill="#172983"/>
</svg>
