<svg width="98" height="90" viewBox="0 0 98 90" fill="none" xmlns="http://www.w3.org/2000/svg">
<path d="M87.2444 45.8997C87.2409 43.4534 86.469 41.0707 85.0387 39.0911C83.6084 37.1115 81.5926 35.6361 79.2788 34.8752L75.5424 22.1444C77.4288 21.2822 79.0492 19.9254 80.2334 18.2166C81.4176 16.5077 82.1218 14.5099 82.2721 12.433C82.4224 10.3562 82.0132 8.27703 81.0875 6.41402C80.1617 4.551 78.7537 2.97293 77.0112 1.84564C75.2688 0.718349 73.2563 0.0834552 71.1853 0.00767961C69.1143 -0.0680959 67.0613 0.418044 65.2419 1.41501C63.4225 2.41198 61.9039 3.88297 60.8457 5.6734C59.7876 7.46382 59.229 9.50758 59.2285 11.5899V34.8224H62.5723V19.7445C63.8215 21.0331 65.3565 22.0063 67.0517 22.5846C68.747 23.1629 70.5544 23.3298 72.3261 23.0717L75.6199 34.2997C72.5752 34.3229 69.6629 35.5535 67.5168 37.7236C65.3706 39.8937 64.1643 42.8277 64.1604 45.8871V65.0134H67.5067V54.0467C68.5773 55.1382 69.8533 56.0049 71.2603 56.5964C72.6673 57.1879 74.1773 57.4923 75.7024 57.4921C76.2204 57.488 76.7376 57.4493 77.2505 57.3764L86.4416 90C87.5054 89.5571 88.5129 88.9885 89.4428 88.3062L80.4568 56.4492C82.4761 55.5302 84.1898 54.0471 85.3933 52.1765C86.5968 50.306 87.2394 48.1271 87.2444 45.8997ZM70.768 19.835C69.1465 19.835 67.5613 19.3518 66.2131 18.4465C64.8648 17.5413 63.8141 16.2546 63.1936 14.7492C62.5732 13.2439 62.411 11.5874 62.7275 9.98945C63.0441 8.39145 63.8251 6.92366 64.9719 5.77172C66.1187 4.61977 67.5797 3.83542 69.1702 3.51786C70.7606 3.20029 72.4091 3.36378 73.9071 3.98765C75.405 4.61152 76.6853 5.66774 77.5858 7.02273C78.4863 8.37772 78.9667 9.97061 78.9662 11.6C78.9622 13.7832 78.0972 15.8759 76.5605 17.4195C75.0238 18.9631 72.9409 19.8317 70.768 19.835ZM75.6999 54.1322C74.079 54.1317 72.4946 53.6482 71.1471 52.7429C69.7996 51.8376 68.7495 50.5512 68.1296 49.0462C67.5098 47.5413 67.348 45.8855 67.6647 44.2881C67.9814 42.6908 68.7624 41.2237 69.909 40.0723C71.0555 38.921 72.5161 38.1371 74.106 37.8198C75.6959 37.5026 77.3437 37.6662 78.8411 38.2899C80.3385 38.9137 81.6182 39.9696 82.5183 41.3241C83.4185 42.6786 83.8986 44.2709 83.8981 45.8997C83.8948 48.0829 83.0299 50.1757 81.493 51.719C79.9561 53.2624 77.8728 54.1302 75.6999 54.1322Z" fill="white"/>
<path d="M33.6589 81.0016C35.5469 81.0016 36.517 81.9671 36.517 81.9671L35.6514 83.2283C35.1195 82.8125 34.4487 82.5664 33.7441 82.5287C32.2821 82.5287 31.5895 83.4943 31.5895 84.4796C31.5895 85.4649 32.3343 86.5339 33.7414 86.5339C34.8956 86.5339 35.7695 85.6939 35.7695 85.6939L36.7287 86.9255C36.331 87.2945 35.8532 87.5865 35.3248 87.7835C34.7963 87.9805 34.2285 88.0783 33.6562 88.0709C31.268 88.0709 29.6576 86.5511 29.6576 84.5239C29.6506 84.0542 29.7499 83.5881 29.9495 83.1537C30.149 82.7193 30.4447 82.3257 30.8186 81.9965C31.1925 81.6673 31.637 81.4095 32.1252 81.2385C32.6133 81.0675 33.1351 80.9869 33.6589 81.0016Z" fill="white"/>
<path d="M47.2243 86.5882H44.8717L44.4175 88.0713H42.5137L45.0784 80.9999H47.0203L49.5851 88.0688H47.6813L47.2243 86.5882ZM46.0439 82.6129C46.0439 82.6129 45.8753 83.3774 45.7366 83.8285L45.3042 85.2045H46.7919L46.3703 83.8285C46.2343 83.3851 46.0657 82.6129 46.0657 82.6129H46.0439Z" fill="white"/>
<path d="M55.3716 80.9999H59.8716V82.4835H57.1689V83.9671H59.4083V85.4507H57.1689V88.0713H55.3716V80.9999Z" fill="white"/>
<path d="M66.9455 80.9018H70.6843V82.4055H68.404V83.7103H70.224V85.214H68.404V86.5678H70.8005V88.0715H66.9434L66.9455 80.9018ZM68.9505 77.7858H70.3789L69.3936 79.2895H68.275L68.9505 77.7858Z" fill="white"/>
<path d="M44.4429 39.214C42.4086 39.214 40.42 38.6108 38.7285 37.4805C37.037 36.3503 35.7187 34.7439 34.9402 32.8645C34.1617 30.985 33.958 28.9169 34.3549 26.9217C34.7517 24.9264 35.7314 23.0937 37.1698 21.6552C38.6083 20.2167 40.4411 19.2371 42.4363 18.8402C44.4315 18.4433 46.4996 18.647 48.3791 19.4255C50.2586 20.204 51.865 21.5224 52.9952 23.2139C54.1254 24.9053 54.7287 26.894 54.7287 28.9283C54.724 31.6548 53.6389 34.2683 51.7109 36.1963C49.783 38.1242 47.1695 39.2094 44.4429 39.214ZM44.4429 21.9917C43.0714 21.9912 41.7305 22.3975 40.5899 23.1591C39.4493 23.9207 38.5601 25.0035 38.0349 26.2705C37.5097 27.5375 37.372 28.9318 37.6393 30.277C37.9066 31.6223 38.5668 32.858 39.5364 33.828C40.5061 34.798 41.7416 35.4587 43.0867 35.7264C44.4319 35.9942 45.8262 35.857 47.0934 35.3323C48.3606 34.8075 49.4437 33.9188 50.2057 32.7784C50.9678 31.6381 51.3745 30.2973 51.3745 28.9258C51.3732 27.0885 50.6432 25.3267 49.3448 24.0268C48.0463 22.7269 46.2853 21.995 44.448 21.9917H44.4429Z" fill="white"/>
<path d="M46.6907 71.9997C44.0843 71.9992 41.5365 71.2258 39.3695 69.7773C37.2026 68.3288 35.5138 66.2703 34.5169 63.8621C33.5199 61.4538 33.2594 58.804 33.7684 56.2477C34.2774 53.6914 35.5329 51.3434 37.3763 49.5007C39.2197 47.658 41.5682 46.4033 44.1247 45.8953C46.6812 45.3873 49.3309 45.6488 51.7388 46.6467C54.1466 47.6446 56.2045 49.3341 57.6522 51.5016C59.0999 53.6691 59.8723 56.2172 59.8718 58.8237C59.8671 62.3176 58.4768 65.6671 56.0057 68.1372C53.5346 70.6073 50.1847 71.9964 46.6907 71.9997ZM46.6907 48.9974C44.7477 48.9964 42.8479 49.5717 41.2318 50.6504C39.6157 51.7291 38.3558 53.2629 37.6114 55.0577C36.867 56.8525 36.6716 58.8278 37.0499 60.7337C37.4282 62.6396 38.3632 64.3905 39.7366 65.7649C41.11 67.1394 42.8602 68.0757 44.7658 68.4555C46.6714 68.8352 48.6468 68.6413 50.4422 67.8983C52.2376 67.1553 53.7723 65.8966 54.8523 64.2813C55.9323 62.666 56.509 60.7667 56.5095 58.8237C56.5075 56.2204 55.4733 53.7241 53.6337 51.8821C51.794 50.0401 49.299 49.0027 46.6957 48.9974H46.6907Z" fill="white"/>
<path d="M26.8523 9.65083L22.6941 9.64832L16.0335 37.9201L9.41556 9.64582L5.13967 9.64331L0.728516 43.7097L4.10765 43.7122L7.61202 16.638L13.9495 43.7147H18.1101L24.4701 16.7232L27.5587 38.574H30.9428L26.8523 9.65083Z" fill="white"/>
<path d="M13.4327 56.7203L17.5711 74.566L21.3548 74.5685L25.4541 57.0018L27.6456 74.5685L30.9427 74.571L27.7361 48.8616L23.9964 48.8592L19.4666 68.2554L14.9687 48.8567H11.1629L7.7998 74.5636H11.0993L13.4327 56.7203Z" fill="white"/>
<path d="M89.5784 61.1803C89.5784 61.1803 91.1271 62.626 93.1407 62.626C94.2272 62.626 95.2154 62.0873 95.2154 60.9694C95.2154 58.5251 88.4707 58.9368 88.4734 54.7495C88.4734 52.4781 90.5268 50.7834 93.2549 50.7859C96.0734 50.7859 97.5211 52.2494 97.5211 52.2494L96.3948 54.282C96.3948 54.282 95.0241 53.0878 93.2337 53.0878C92.025 53.0878 91.0793 53.7612 91.0793 54.7216C91.0793 57.148 97.8001 56.5535 97.8001 60.9237C97.8001 63.0986 96.0681 64.9279 93.0876 64.9279C92.1776 64.9415 91.2737 64.7833 90.4277 64.4625C89.5817 64.1416 88.8102 63.6643 88.1572 63.0579L89.5784 61.1803Z" fill="white"/>
</svg>
