<svg width="228" height="107" viewBox="0 0 228 107" fill="none" xmlns="http://www.w3.org/2000/svg">
<path d="M60.8033 41.1658C58.8562 37.3328 57.9146 32.5165 59.0477 28.2502C60.1809 23.9839 63.9474 22.1007 67.7139 21.3341C69.8206 20.9008 72.0231 20.7842 74.1617 20.7675C76.428 20.7508 77.8644 21.3341 79.3487 23.134C81.6469 25.9337 84.9506 30.2167 82.7002 33.9998C81.4713 36.0496 84.5835 37.9328 85.7965 35.8996C88.0468 32.1166 86.8498 27.5836 84.5995 24.1506C83.4982 22.4674 82.2534 20.6675 80.801 19.3009C79.1731 17.7677 77.2739 17.1345 75.1033 17.0345C67.3149 16.6845 57.1325 18.901 55.361 28.2336C54.4034 33.2665 55.4089 38.566 57.6911 43.0657C58.7764 45.1988 61.8726 43.299 60.7874 41.1658H60.8033Z" fill="#17299A"/>
<path d="M73.2286 20.4013C70.2347 17.1069 67.0598 14.0132 63.6875 11.1034L61.4503 14.0634C62.7992 15.1169 64.1645 16.1872 65.5135 17.2407C66.1715 17.7424 66.813 18.2608 67.471 18.7625L68.4416 19.5318C68.639 19.6823 69.1325 20.2341 69.3464 20.2508C69.5438 20.4515 69.5438 20.3177 69.3464 19.8495C69.297 19.9331 69.2477 20.0334 69.1819 20.1171C68.9351 20.3846 68.7706 20.8194 68.6061 21.1539C68.2935 21.8228 68.0303 22.5419 67.8823 23.261C67.5697 24.7159 67.5204 26.2042 67.5368 27.6758C67.5533 28.9635 67.7013 30.318 68.6554 31.2712C69.7741 32.3917 71.6329 32.191 72.5048 30.8699C73.3108 29.6491 73.4589 27.8598 73.7057 26.4383C73.8702 25.5353 74.0018 24.6322 74.1169 23.7292C74.1663 23.3111 74.1498 22.0736 74.3143 21.7893L73.6563 22.4583L73.8372 22.3412L72.8996 22.592C73.3273 22.592 74.1498 23.0937 74.5611 23.261C75.2355 23.5285 75.9264 23.7961 76.6009 24.0804C77.9662 24.6155 79.3316 25.1674 80.6805 25.7025V22.0736C79.5784 22.2409 78.3775 22.0067 77.4069 21.4883C77.0615 21.3044 76.2719 20.9198 76.0909 20.5351C75.9429 20.2341 76.3706 19.1638 76.4857 18.7291C77.3082 15.6855 78.3611 12.6921 79.6606 9.81575C80.039 8.96288 79.9732 7.99295 79.1835 7.39093C78.4597 6.83907 77.4069 6.8558 76.7489 7.54144C74.0676 10.3843 71.7481 13.5617 69.8399 16.9899H73.0312C72.7515 16.4046 72.9489 15.535 73.0147 14.9162C73.0805 14.264 73.1299 13.6286 73.0641 12.9597C72.916 11.4379 72.2745 10.0331 70.9091 9.28062C69.5437 8.52809 67.652 9.7823 68.1948 11.4044C68.6554 12.7924 69.116 14.1971 69.5767 15.5851L70.2347 17.5752C70.4156 18.1103 70.8104 18.8796 70.7446 19.4314L70.9914 18.4782C71.2052 18.3779 71.2546 18.3444 71.1394 18.3444C70.9749 18.3946 70.794 18.428 70.613 18.4448C70.1195 18.5284 69.6096 18.5953 69.116 18.6956C68.1126 18.8796 67.1256 19.097 66.1386 19.3645C64.1646 19.8829 62.2399 20.5518 60.3646 21.3545C59.4433 21.7392 58.7853 22.592 59.065 23.6623C59.3117 24.5486 60.4139 25.368 61.3351 24.9834C63.2104 24.1807 65.1351 23.5118 67.1091 22.9934C68.0961 22.7425 69.0831 22.5084 70.0866 22.3245C70.9256 22.174 71.7974 22.1238 72.587 21.8061C73.3766 21.4883 74.1169 20.8361 74.3637 19.9331C74.6598 18.8461 74.1991 17.7758 73.8537 16.7725C73.1463 14.6487 72.439 12.5249 71.7316 10.3843L69.0174 12.5081C69.2641 12.6754 69.3135 12.6921 69.1819 12.575C69.0667 12.4412 69.0832 12.4914 69.2477 12.7255C69.2641 12.8426 69.3299 12.9597 69.3464 13.0767C69.4615 13.5951 69.3464 14.1971 69.297 14.7156C69.1325 16.2039 69.1654 17.4916 69.807 18.8628C70.4156 20.1505 72.3567 20.0167 72.9983 18.8628C74.7585 15.7022 76.8641 12.8091 79.3316 10.1837L76.4199 7.90934C75.5316 9.89936 74.7256 11.9228 74.0182 13.9798C73.6563 15.0333 73.3273 16.0868 73.0312 17.1571C72.7351 18.2274 72.3403 19.3144 72.3238 20.3846C72.2909 22.5084 74.0346 24.0135 75.7948 24.8664C77.6701 25.7694 79.6113 25.9868 81.6346 25.6858C82.4242 25.5687 83 24.6155 83 23.8797C83 22.9934 82.4078 22.3746 81.6346 22.0736C79.9074 21.388 78.1636 20.6856 76.4364 20C75.0546 19.4481 73.1957 18.2441 71.7481 19.1973C70.3005 20.1505 70.5637 22.3245 70.3498 23.8128C70.2182 24.7493 70.0537 25.6858 69.8728 26.6223C69.7247 27.3413 69.6589 28.3614 69.2641 28.9467L69.9221 28.2778C70.7611 28.9635 71.2052 29.0805 71.2546 28.6123C71.1723 28.3614 71.1559 28.2945 71.2052 28.3782C71.3039 27.9601 71.1888 27.3748 71.1888 26.94C71.1888 26.037 71.2052 25.1172 71.4026 24.2476C71.781 22.4917 73.4095 21.0201 72.8996 19.1137C72.6199 18.0936 71.8468 17.525 71.0572 16.923C70.1853 16.2373 69.3134 15.5684 68.458 14.8828C66.7143 13.5282 64.9871 12.1737 63.2433 10.8191C61.4996 9.46457 59.394 12.3911 61.0061 13.7791C64.3784 16.6721 67.5533 19.7826 70.5472 23.077C72.1593 24.8664 74.7749 22.1907 73.1628 20.4181L73.2286 20.4013Z" fill="#17299A"/>
<path d="M88.1414 25.6282C93.9424 21.5044 100.561 19.4222 107.522 19.5435C111.326 19.6041 115.225 19.8063 119.01 20.1904C121.083 20.4127 121.388 21.4437 122.301 23.3237C123.214 25.2037 124.126 27.0029 125.039 28.8626C126.333 31.4502 130.023 29.1659 128.729 26.5581C127.702 24.476 126.675 22.414 125.648 20.3319C124.773 18.5934 123.898 16.9762 122.091 16.2282C120.189 15.4196 117.869 15.5813 115.853 15.4398C113.571 15.2983 111.269 15.1164 108.987 15.0355C100.789 14.6919 92.8202 16.8347 85.9731 21.7065C83.6908 23.3237 85.84 27.2657 88.1414 25.6282Z" fill="#17299A"/>
<path d="M104.933 14.6252C103.846 10.443 103.051 6.20967 102.597 1.90839L99.854 3.5575C102.58 5.46162 105.291 7.73977 108.195 9.32088C109.348 9.94992 110.565 10.1539 111.814 9.72891C112.756 9.40588 113.681 8.26681 114.654 8.1988L112.902 6.78771C113.437 10.2559 115.612 13.5202 119.166 13.8942C123.304 14.3362 126.193 10.494 130.12 10.3579L128.302 8.45382C128.449 11.395 129.844 13.9112 132.278 15.4243C134.307 16.6824 136.141 13.3671 134.128 12.1261C132.83 11.327 132.035 10.0519 131.954 8.47082C131.905 7.46775 131.159 6.51569 130.136 6.5667C126.939 6.6857 124.667 8.69184 121.779 9.74591C120.529 10.2049 119.101 10.443 118.014 9.47389C117.007 8.57283 116.634 7.12773 116.439 5.81865C116.326 5.0536 115.417 4.35655 114.687 4.40755C113.632 4.49256 112.788 4.83258 111.895 5.39362C110.678 6.15867 110.484 6.32868 109.218 5.47862C106.702 3.79551 104.236 1.99339 101.753 0.259277C100.682 -0.488772 98.8478 0.480292 99.0101 1.90839C99.5132 6.54969 100.308 11.14 101.493 15.6453C102.11 18.0255 105.631 17.0054 105.015 14.6252H104.933Z" fill="#17299A"/>
<path d="M136.079 28.945C141.535 24.6507 147.007 20.3564 152.463 16.0621L149.897 13.4856C147.75 15.6894 146.813 18.5901 146.442 21.588C146.248 23.1761 146.248 24.7641 146.232 26.3684C146.232 27.2273 146.216 28.1023 146.168 28.9612C146.152 29.3987 146.119 29.82 146.071 30.2576C146.071 30.4196 146.039 30.5817 146.022 30.7437C145.909 31.1488 145.958 31.165 146.152 30.8247L146.959 30.3548C147.927 30.0145 147.75 30.7599 147.507 30.29C147.411 30.1279 147.249 29.9659 147.12 29.82C146.813 29.4473 146.491 29.107 146.119 28.7991C145.361 28.1185 144.521 27.5189 143.617 27.049C141.777 26.1091 139.743 25.623 137.677 25.704C135.352 25.8012 135.336 29.4473 137.677 29.3501C140.017 29.2529 142.1 29.9983 143.746 31.554C144.666 32.4128 145.296 33.612 146.62 33.9361C147.394 34.1143 148.218 33.9199 148.799 33.3527C149.412 32.7531 149.509 31.9753 149.622 31.165C150.01 28.2158 149.751 25.2341 150.026 22.2848C150.236 20.0485 150.881 17.7312 152.479 16.0945C153.174 15.3977 153.174 14.2148 152.479 13.518C151.721 12.7563 150.688 12.9022 149.913 13.518C144.457 17.8123 138.984 22.1065 133.528 26.4008C132.753 27.0004 132.898 28.3454 133.528 28.9774C134.287 29.739 135.32 29.5932 136.095 28.9774L136.079 28.945Z" fill="#17299A"/>
<path d="M44.4257 76.266L44.6997 60.8327L42.538 62.5708C47.9727 64.4536 53.6358 65.4836 59.3445 65.6767C61.5518 65.7572 61.5518 62.1362 59.3445 62.0558C53.925 61.8788 48.5969 60.8649 43.4362 59.0786C42.3553 58.7084 41.2897 59.7062 41.2745 60.8166L41.0005 76.2499C40.9548 78.5834 44.38 78.5834 44.4257 76.2499V76.266Z" fill="#17299A"/>
<path d="M40.1177 63.4575L34.4681 61.0677L31.5861 59.8579C30.5217 59.4098 29.5064 58.8871 28.2946 59.0215C25.7073 59.3351 25.8055 62.0834 26.2313 63.8309C26.6079 65.3544 27.4267 66.7435 28.4911 67.9533C29.7029 69.3274 31.3404 70.3132 33.1417 70.9256C34.0424 71.2243 35.2051 70.582 35.4016 69.7456C35.6472 68.7897 35.0904 68.013 34.1079 67.6844C34.0096 67.6546 33.9114 67.6097 33.7968 67.5799C33.9769 67.6546 33.9933 67.6546 33.7968 67.5799C33.6003 67.4903 33.4038 67.4006 33.2236 67.311C33.0762 67.2363 32.9452 67.1617 32.8142 67.072C32.7487 67.0422 32.2247 66.6837 32.5359 66.9078C32.2411 66.6986 31.9627 66.4597 31.6843 66.2058C31.5369 66.0713 31.3896 65.922 31.2422 65.7726C31.1931 65.7129 30.9147 65.3693 31.1276 65.6382C30.8983 65.3544 30.7018 65.0706 30.5053 64.757C30.407 64.5777 30.3088 64.3985 30.2105 64.2342C30.1123 64.055 30.1287 64.055 30.2105 64.2342C30.1778 64.1446 30.1287 64.055 30.0959 63.9504C29.9649 63.6218 29.8667 63.2932 29.7848 62.9497C29.752 62.8003 29.7193 62.6659 29.6865 62.5165C29.7684 62.9198 29.6702 62.3074 29.6702 62.2327C29.6702 62.0684 29.6702 61.8892 29.6702 61.7249C29.6702 61.6054 29.6701 61.6353 29.6538 61.8295C29.752 61.5457 29.6865 61.6353 29.4409 62.0983C29.1625 62.3373 28.8841 62.4269 28.573 62.3373C28.6876 62.3672 28.8022 62.397 28.9169 62.4269C28.5894 62.3224 29.2116 62.5613 29.2116 62.5613L32.2902 63.8608L38.2509 66.385C39.1188 66.7584 40.2814 66.6389 40.7727 65.7875C41.1985 65.0407 41.0511 63.8907 40.1177 63.4874V63.4575Z" fill="#17299A"/>
<path d="M55.4876 49.2838C55.6844 44.5648 55.3728 39.8787 54.5855 35.209L51.5019 37.0013C55.6024 41.5229 60.8838 44.7292 66.772 46.2748C67.5101 46.4721 68.4942 46.1597 68.8551 45.4198C69.6588 43.792 70.4624 42.1478 71.2661 40.5199C71.9714 39.0895 72.1354 37.8891 73.9068 37.9056C76.7771 37.9385 79.6475 38.6126 82.5178 38.1851C84.7812 37.8398 86.0278 36.3271 86.815 34.2882C87.1595 33.3839 87.3891 31.9534 88.2912 31.4437C89.3409 30.8353 90.9975 31.3779 92.1456 31.3944C94.3435 31.4437 96.1149 30.7038 97.5255 29.0102C98.3783 27.9908 99.3788 25.36 100.757 25.0147C101.609 24.8009 103.479 26.0505 104.431 26.1985C105.546 26.3794 106.71 26.3136 107.793 26.0177C109.991 25.3928 111.828 23.8637 112.812 21.8084C113.796 19.7531 110.647 17.78 109.63 19.9339C108.351 22.6634 105.841 22.9758 103.315 21.907C101.363 21.0849 99.4609 21.0849 97.8207 22.5318C96.4265 23.765 95.8197 25.623 94.4911 26.8891C92.7197 28.5827 89.7838 27.0864 87.5859 27.6948C85.3881 28.3032 84.4204 30.1283 83.6823 32.1014C83.2231 33.3181 83.0918 34.3047 81.6813 34.5513C80.2707 34.798 78.7782 34.5513 77.4168 34.4855C74.9401 34.354 71.8894 33.4497 69.9212 35.4557C69.0683 36.3271 68.609 37.5439 68.0842 38.6291C67.2805 40.2569 66.4768 41.9011 65.6731 43.5289L67.7561 42.6739C62.4419 41.2763 57.8002 38.4317 54.1098 34.3376C52.7485 32.8413 50.7475 34.4691 51.0263 36.1298C51.748 40.4706 51.9776 44.8279 51.7972 49.218C51.6988 51.6022 55.3892 51.5858 55.4876 49.218V49.2838Z" fill="#17299A"/>
<path d="M104.183 44.9153C102.519 43.7971 100.448 42.235 98.4736 42.022C96.2387 41.7735 95.2762 43.6728 94.2158 45.4301C93.1555 47.1873 92.0299 48.9624 90.4148 50.1339C88.7998 51.3054 86.7933 51.6781 84.9336 52.2462C82.9271 52.8497 81.1326 53.7549 79.7134 55.4767C78.2941 57.1985 77.2501 59.009 76.3528 60.9615C74.4605 65.0618 73.4654 69.4816 73.0086 74.0079C72.8944 75.1084 73.9385 75.9782 74.8357 75.9959C77.038 76.0669 79.1098 75.1972 81.1489 74.3984C83.1881 73.5997 85.3414 72.6944 87.4132 71.7714C91.5242 69.9254 95.5698 67.8663 99.5176 65.6121C100.823 64.8666 100.66 62.204 99.0772 61.9555C93.5633 61.0858 88.1473 59.506 83.0249 57.1275C82.1114 56.7015 81.0674 56.8435 80.5127 57.8375C80.0559 58.6717 80.268 60.145 81.1652 60.571C86.5975 63.0915 92.2419 64.8843 98.0821 65.8073L97.6416 62.1508C93.9711 64.2453 90.2354 66.1801 86.4181 67.9018C84.6073 68.7183 82.7639 69.4994 80.9205 70.2271C79.0771 70.9549 76.9238 72.0376 74.8194 71.9666L76.6465 73.9547C77.038 70.1561 77.9189 66.3398 79.5013 62.914C80.268 61.2633 81.1489 59.6125 82.2909 58.2457C83.5143 56.7725 84.9989 56.2932 86.7118 55.8139C90.0723 54.8554 92.9434 53.5774 95.2109 50.6131C96.2224 49.2819 96.9402 47.6843 97.9516 46.3708C98.2779 45.9626 98.0821 46.0868 98.441 46.0691C98.7999 46.0513 99.4198 46.5838 99.746 46.7613C100.611 47.2406 101.443 47.7731 102.275 48.3234C104.297 49.6724 106.141 46.2111 104.134 44.8798L104.183 44.9153Z" fill="#17299A"/>
<path d="M105.451 48.714C103.065 41.5458 108.211 34.6116 115.707 33.8263C119.216 33.4587 122.641 34.5448 125.503 36.4997C127.888 38.1205 132.028 41.8633 130.989 45.0547C130.239 47.3606 133.936 48.3464 134.686 46.0573C136.168 41.4957 132.113 36.8339 128.723 34.1939C125.077 31.3534 120.392 29.6323 115.707 30.0668C111.294 30.4845 107.018 32.4562 104.224 35.8982C101.089 39.7747 100.186 45.0046 101.754 49.6998C102.52 51.9889 106.217 51.0031 105.451 48.6973V48.714Z" fill="#17299A"/>
<path d="M122.826 38.1355C122.339 38.1527 121.95 37.3101 121.675 36.863C121.01 35.797 120.378 34.6965 119.761 33.596C118.545 31.4467 117.427 29.2457 116.357 27.0104L114.298 29.8475C116.114 30.4837 117.8 31.4123 119.372 32.5643C120.183 33.1489 120.929 33.8196 121.626 34.5417C122.323 35.2639 123.004 36.0721 123.896 36.5707C124.917 37.1382 126.084 37.2757 127.138 36.7255C128.046 36.244 128.76 35.3327 129.473 34.5933C131.143 32.8738 132.813 31.1543 134.483 29.4348C135.942 27.9389 134.029 25.1705 132.278 26.3913C127.527 29.71 123.182 33.6476 119.356 38.1183L121.123 37.6196C118.659 37.0522 116.032 37.8432 114.363 39.9065C113.438 41.0414 113.941 43.3799 115.66 43.208C116.746 43.0876 117.832 42.9844 118.902 42.8641C119.389 42.8125 119.859 42.7609 120.345 42.7093C120.653 42.6749 120.945 42.6405 121.253 42.6061C121.35 42.6061 121.448 42.589 121.545 42.5718C121.772 42.5718 121.691 42.5374 121.334 42.503L120.686 41.8152C120.572 41.4885 120.54 41.5401 120.572 41.9699C120.572 42.2107 120.54 42.4514 120.54 42.6921C120.507 43.1736 120.491 43.655 120.459 44.1365H124.106C124.123 43.7926 124.139 43.4315 124.155 43.0876C124.285 40.5943 120.637 40.6115 120.507 43.0876C120.491 43.4315 120.475 43.7926 120.459 44.1365C120.329 46.6298 123.977 46.6126 124.106 44.1365C124.155 43.0876 124.382 41.8668 124.171 40.8179C123.944 39.6142 123.036 38.7889 121.869 38.7201C120.945 38.6685 119.988 38.8749 119.08 38.978C117.929 39.0984 116.794 39.2188 115.643 39.3391L116.94 42.6405C117.751 41.6432 118.902 41.0758 120.151 41.3509C120.767 41.4885 121.48 41.3853 121.918 40.8523C125.533 36.6223 129.603 32.8738 134.094 29.7272L131.889 26.6837C130.429 28.1796 128.97 29.6756 127.511 31.1715C127.122 31.567 126.733 31.9625 126.36 32.358C126.133 32.5987 125.809 33.0974 125.517 33.2177C125.728 33.1146 125.63 33.2177 125.355 32.977C125.047 32.7363 124.787 32.4268 124.528 32.1344C121.918 29.3833 118.74 27.3371 115.254 26.099C113.649 25.5316 112.53 27.5262 113.195 28.9362C114.46 31.6014 115.838 34.215 117.313 36.7599C118.562 38.9092 120.021 42.0731 122.826 41.9527C125.16 41.8496 125.177 37.9807 122.826 38.0839V38.1355Z" fill="#17299A"/>
<path d="M135.668 47.6115L143.92 42.111L141.457 41.4561C143.024 44.8121 145.919 47.235 149.373 48.2991C150.109 48.5283 151.037 48.1517 151.404 47.4478C153.323 43.8299 156.202 41.0796 159.833 39.3443C161.96 38.3293 160.104 35.2517 158.009 36.1684C153.611 38.1002 151.324 43.2569 152.396 47.9553C152.572 48.7083 153.371 49.3468 154.123 49.3141C157.066 49.1503 159.849 49.5924 162.615 50.6564L163.095 47.0385C158.745 47.3005 154.875 49.6087 152.604 53.4395C152.028 54.389 152.54 55.9114 153.675 56.1406C157.37 56.8937 160.808 58.4653 163.735 60.9209L164.534 57.8432C162.439 58.2688 160.232 58.94 159.049 60.9209C158.105 62.4924 158.073 64.4733 159.177 65.963C160.04 67.1253 161.384 67.6983 162.695 68.1731C163.511 68.4677 165.206 68.7133 165.462 69.6955C166.054 71.9874 169.524 71.0052 168.932 68.7133C168.341 66.4214 166.182 65.4883 164.119 64.768C163.559 64.5715 162.263 64.3096 161.976 63.6711C161.288 62.1159 164.646 61.5593 165.478 61.3956C166.741 61.1337 167.285 59.1692 166.278 58.3179C162.871 55.4531 158.969 53.4722 154.635 52.5882L155.706 55.2893C157.306 52.6209 160.024 50.8856 163.095 50.7056C165.174 50.591 165.462 47.8243 163.575 47.0876C160.552 45.9253 157.354 45.4342 154.139 45.6143L155.866 46.973C155.131 43.748 156.938 40.6212 159.833 39.3443L158.009 36.1684C153.867 38.1656 150.461 41.4725 148.286 45.5979L150.317 44.7466C147.694 43.9445 145.727 42.0946 144.544 39.5899C144.144 38.7222 142.848 38.4112 142.081 38.9351C139.33 40.7686 136.579 42.6021 133.828 44.4356C131.893 45.7289 133.7 48.9212 135.652 47.6115H135.668Z" fill="#17299A"/>
<path d="M110.076 58.7647C111.988 56.8305 114.237 55.6767 116.84 55.1677L114.559 53.3354C114.591 56.8135 116.149 61.0382 120.102 60.7837C121.886 60.6649 123.46 59.4094 124.858 58.3744C126.609 57.085 128.297 55.6937 129.903 54.2007L126.818 52.8433C127.027 55.4392 128.538 60.3086 131.639 60.4443C133.197 60.5122 134.756 59.0701 136.154 58.4762C137.921 57.7297 139.769 57.2716 141.665 57.0001L139.383 55.1677C139.335 56.4911 139.271 57.8315 139.223 59.1549C139.126 61.615 142.742 61.615 142.838 59.1549C142.886 57.8315 142.95 56.4911 142.999 55.1677C143.047 53.8444 141.81 53.1657 140.717 53.3354C138.291 53.6917 135.961 54.4043 133.728 55.4731C133.294 55.6767 132.571 55.9482 132.201 56.2875C131.526 56.5081 131.542 56.6778 132.233 56.7796L131.88 56.3893C131.671 55.9143 131.221 55.5071 130.996 55.015C130.691 54.3364 130.514 53.6238 130.45 52.8773C130.305 51.1976 128.586 50.4002 127.365 51.5199C125.533 53.1996 123.621 54.7775 121.564 56.1348C120.761 56.6608 119.861 57.3904 119.009 56.5929C118.158 55.7955 118.206 54.3873 118.19 53.3354C118.19 52.012 117.049 51.2654 115.908 51.503C112.727 52.1307 109.883 53.7256 107.553 56.0839C105.866 57.7806 108.421 60.4783 110.108 58.7816L110.076 58.7647Z" fill="#17299A"/>
<path d="M88.3247 75.5641C96.8136 77.3493 104.794 73.0755 113.218 73.0575C115.594 73.0575 115.594 69 113.218 69C105.221 69.018 97.2889 73.346 89.308 71.6509C86.9973 71.164 85.9976 75.0772 88.3247 75.5641Z" fill="#17299A"/>
<path d="M118.613 74.3008C118.943 72.6133 120.166 73.2849 121.438 73.4743C122.595 73.6292 123.669 73.6981 124.792 73.2676C125.8 72.8888 126.626 72.1484 127.353 71.3563C128.163 70.4609 129.204 68.498 130.592 68.9801L129.22 67.1205C129.138 70.2371 130.013 74.4041 133.748 74.5591C135.515 74.6279 137.333 73.4226 138.919 72.7166C141.017 71.7696 143.099 70.8225 145.198 69.8755L142.951 66.8277C141.728 68.2914 140.555 69.8927 140.687 71.9418C140.786 73.612 141.794 75.0756 143.314 75.6094C145.198 76.2637 147.626 75.9021 149.576 75.8849C152.12 75.8849 154.665 75.7988 157.209 75.6955C159.589 75.5922 159.605 71.7179 157.209 71.8213C154.533 71.9418 151.873 72.0107 149.196 72.0107C147.924 72.0107 146.652 72.0107 145.379 71.9762C143.595 71.9246 144.834 70.4437 145.578 69.5656C147.015 67.8437 145.247 65.6568 143.331 66.5178C141.232 67.4648 139.15 68.4119 137.052 69.3589C136.16 69.7722 134.689 70.8225 133.781 70.4093C132.69 69.9099 132.938 68.1708 132.954 67.1032C132.987 66.2251 132.36 65.5019 131.583 65.2436C129.898 64.6581 128.262 65.1747 126.891 66.2939C125.519 67.4132 124.561 69.6861 122.76 69.755C121.207 69.8066 119.737 69.0318 118.167 69.4278C116.333 69.8927 115.408 71.4596 115.044 73.2849C114.565 75.7127 118.134 76.7631 118.63 74.318L118.613 74.3008Z" fill="#17299A"/>
<path d="M166.922 43.6099C170.442 43.8649 173.877 43.1338 177.04 41.5697L174.727 38.5606C173.265 39.9036 171.972 41.3827 170.799 42.9808C169.711 44.4769 167.993 46.636 168.503 48.6081C169.047 50.7163 171.19 51.0393 173.044 51.0393C175.357 51.0393 177.669 50.9713 179.982 50.8693L179.013 47.2991C177.023 48.2001 175.357 49.8492 174.455 51.8213C173.979 52.8754 173.622 53.9975 173.962 55.1535C174.336 56.3776 175.442 57.0916 176.666 57.2786C178.792 57.5847 181.224 56.9386 183.196 56.1736C185.424 55.3065 187.431 54.0655 189.199 52.4504L185.934 51.0903C185.526 54.6095 185.662 58.1117 186.274 61.5969C186.444 62.6169 187.703 63.195 188.621 62.94C189.693 62.651 190.135 61.6139 189.965 60.5938C189.42 57.4487 189.386 54.2525 189.761 51.1073C189.965 49.3392 187.601 48.7442 186.495 49.7472C184.37 51.6853 181.683 52.9774 178.826 53.4024C178.469 53.4534 178.095 53.4874 177.72 53.5044C177.618 53.5044 177.21 53.4704 177.159 53.5044C177.448 54.2865 177.601 54.5245 177.635 54.2015C177.635 54.0995 177.669 53.9805 177.72 53.8784C177.839 53.5894 177.941 53.3344 178.095 53.0624C178.758 51.9063 179.727 51.1413 180.935 50.5973C182.686 49.8152 181.785 46.9421 179.965 47.0271C178.282 47.1121 176.598 47.1631 174.914 47.1801C174.149 47.1801 173.367 47.1971 172.602 47.1801C172.483 47.1801 171.904 47.0951 171.836 47.1461C171.717 47.2311 172.023 47.8941 172.279 47.7071C172.67 47.4351 172.993 46.483 173.248 46.075C173.622 45.497 173.996 44.9359 174.421 44.3919C175.306 43.2528 176.326 42.1988 177.397 41.2127C179.081 39.6826 176.938 37.2855 175.084 38.2035C172.534 39.4616 169.745 39.9377 166.905 39.7166C165.867 39.6316 165 40.6517 165 41.6207C165 42.7258 165.884 43.4569 166.905 43.5249L166.922 43.6099Z" fill="#17299A"/>
<path d="M60.5685 63.0849C56.5264 64.5071 52.4673 65.9456 48.4252 67.3678C47.4872 67.6948 46.7538 68.6265 47.0779 69.6237C47.3678 70.5065 48.4252 71.2584 49.4315 70.9151C53.4736 69.4929 57.5327 68.0544 61.5748 66.6322C62.5128 66.3052 63.2462 65.3735 62.9221 64.3763C62.6322 63.4935 61.5748 62.7416 60.5685 63.0849Z" fill="#17299A"/>
<path d="M54.0154 51C42.3377 51 30.6601 52.7793 19.5525 56.3378C11.9139 58.7903 -2.53246 62.942 0.382881 73.6336C3.29822 84.3253 16.458 84.4375 25.5297 84.5497C38.1031 84.71 50.6766 84.8543 63.25 85.0146C88.5923 85.3191 113.935 85.6878 139.293 85.9282C164.652 86.1687 188.072 86.1046 211.672 80.7507C216.737 79.5966 222.226 77.7372 225.45 73.4733C228.073 70.011 228.985 64.8655 226.688 61.0184C223.757 56.1134 216.558 55.6646 211.444 54.9433C204.554 53.9815 197.6 53.7571 190.662 54.27C188.316 54.4463 188.3 58.053 190.662 57.8766C196.134 57.4759 201.623 57.508 207.079 58.0369C209.896 58.3094 212.714 58.7102 215.499 59.2552C217.812 59.704 220.711 60.0567 222.551 61.6596C225.483 64.2083 224.489 69.0492 222.258 71.6941C219.327 75.1885 214.375 76.4708 210.076 77.4166C188.479 82.1132 166.085 82.4979 144.049 82.3697C121.443 82.2415 98.8367 81.8568 76.2469 81.5682C64.895 81.424 53.5268 81.2957 42.1748 81.1515C36.4907 81.0873 30.8229 81.0072 25.1388 80.9431C20.0573 80.879 14.4873 81.1995 9.76409 79.0356C5.72496 77.1922 1.76726 72.1108 4.73146 67.7989C6.13212 65.7632 8.54257 64.5289 10.7576 63.519C13.3635 62.3328 16.0671 61.339 18.7707 60.4093C30.1226 56.5462 42.0283 54.6227 54.0316 54.6066C56.3932 54.6066 56.3932 51 54.0316 51H54.0154Z" fill="#17299A"/>
<path d="M28.8559 87.8014C48.6565 101.555 72.0974 105.757 95.0485 106.721C106.573 107.213 118.114 106.976 129.638 106.612C140.232 106.285 150.925 105.575 161.306 102.974C172.553 100.154 183.327 94.8054 191.473 85.5091C193.121 83.6171 190.526 80.7246 188.877 82.6166C174.3 99.208 152.181 101.646 132.446 102.41C110.213 103.283 87.3927 103.938 65.4699 99.0442C53.2108 96.3154 41.3598 91.64 30.7168 84.2539C28.709 82.8531 26.8644 86.4006 28.8559 87.7832V87.8014Z" fill="#17299A"/>
<path d="M128.97 85.1921C128.97 85.1921 154.468 95.0081 103.871 104.902C103.871 104.902 166.764 110.325 188.134 85.2219L128.986 85.1919L128.97 85.1921Z" fill="#17299A"/>
<path d="M49.8865 84C49.8865 84 45.6065 92.406 65 101C65 101 31.68 94.7754 22 84.0564" fill="#17299A"/>
<path d="M48.2385 75.4097C50.1499 77.0231 52.5933 78.2099 55.0533 77.9688C56.2833 77.8576 57.48 77.5052 58.5438 76.782C59.0259 76.4482 59.4913 76.0402 59.8902 75.5952C60.0564 75.4283 60.3722 75.113 60.4886 74.8905C60.688 74.501 60.7379 74.9832 60.2559 74.9276L58.9926 74.5567C59.8902 75.0017 60.555 75.7621 61.5523 76.0031C62.6327 76.2813 63.8129 76.1515 64.86 75.7621C66.7217 75.0574 68.0015 73.2771 69.7966 72.5168L66.6385 69.8278C66.3726 72.7579 68.8492 75.4283 71.4256 75.3726C74.0019 75.317 75.9799 73.1658 76.8774 70.5325C77.3595 69.1231 76.3455 67.4727 75.1322 67.1018C73.736 66.6753 72.5392 67.6396 72.0572 69.049C71.9242 69.457 71.5918 69.5682 71.4089 69.8093C71.2261 70.0689 71.4588 69.8093 71.5253 69.8464C71.5585 69.8464 71.5253 70.6994 71.6084 69.8278C71.758 68.1217 69.8797 66.5455 68.4503 67.1389C67.4696 67.5469 66.6053 68.0476 65.7576 68.7152C65.0263 69.29 64.2949 70.0689 63.4472 70.4213C63.1813 70.5325 62.8322 70.6252 62.5496 70.5696L62.5164 70.514C62.8488 70.718 62.7325 70.5882 62.1673 70.1616C61.2365 69.4384 60.1063 69.0861 58.976 69.4755C57.3305 70.0318 56.6323 72.1273 54.9203 72.387C53.3745 72.628 51.9118 71.5525 50.7483 70.5696C49.6679 69.6609 47.9559 70.3842 47.3409 71.571C46.5929 72.9989 47.1581 74.4639 48.2385 75.3726V75.4097Z" fill="#17299A"/>
<path d="M186.614 63.8839C186.508 63.9174 186.402 63.9509 186.296 63.9677L187.003 63.8839C186.861 63.8839 186.72 63.8839 186.579 63.8839L187.285 63.9677C187.056 63.9342 186.861 63.8671 186.649 63.7832L187.285 64.0348C186.349 63.6491 185.483 63.1795 184.459 63.0454C183.275 62.8944 182.198 63.1292 181.138 63.6155C179.53 64.3702 178.329 65.8459 177.357 67.2211C176.986 67.7409 176.916 68.5627 177.092 69.1664C177.269 69.7701 177.728 70.3906 178.311 70.6757C179.654 71.3465 181.102 70.944 181.933 69.7701C182.127 69.5018 182.339 69.2167 182.551 68.9651L182.145 69.4683C182.586 68.9316 183.063 68.4453 183.611 68.026L183.081 68.4117C183.381 68.1937 183.682 68.026 184.017 67.8751L183.381 68.1266C183.611 68.0428 183.841 67.9757 184.088 67.9422L183.381 68.026C183.629 67.9925 183.876 67.9925 184.123 68.026L183.417 67.9422C183.682 67.9757 183.929 68.0596 184.176 68.1602L183.54 67.9086C184.176 68.177 184.794 68.4956 185.466 68.7304C186.261 68.9987 187.25 69.0322 188.045 68.7639C188.699 68.5459 189.264 68.1937 189.635 67.6068C189.97 67.0701 190.112 66.2652 189.9 65.6615C189.476 64.4373 188.045 63.4311 186.632 63.9006L186.614 63.8839Z" fill="#17299A"/>
<path d="M194 63C198 63 198 57 194 57C190 57 190 63 194 63Z" fill="#17299A"/>
<path d="M178.454 65.3987C176.35 65.2585 174.16 64.918 172.039 65.0182C170.715 65.0782 169.612 65.6391 168.678 66.7207C168.22 67.2415 167.932 67.6221 167.321 67.8825C165.437 68.6837 163.264 68.844 161.296 69.2646C160.26 69.4849 159.225 69.7053 158.19 69.9056C157.901 69.9657 157.596 70.0257 157.307 70.0858C157.545 70.0458 157.494 70.0458 157.172 70.0858C156.849 70.0858 156.798 70.0858 157.053 70.0858C157.273 70.2461 157.494 70.4063 157.698 70.5866C157.121 69.1043 155.322 68.7438 154.218 69.505C152.946 70.3863 152.725 72.1289 153.302 73.6112C154.354 76.2952 157.019 76.1951 159.089 75.7744C161.601 75.2537 164.13 74.7329 166.642 74.192C168.712 73.7514 170.715 73.0103 172.158 71.0873C172.31 70.867 172.293 70.887 172.039 70.9872C172.243 70.9071 172.582 70.9872 172.803 70.9872C173.38 71.0072 173.957 71.0673 174.534 71.1074L178.454 71.3477C179.829 71.4279 181 69.9056 181 68.3432C181 66.6406 179.829 65.4188 178.454 65.3386V65.3987Z" fill="#17299A"/>
<path d="M156.336 31.7589C157.078 31.6104 157.838 31.462 158.597 31.3465C158.774 31.3135 158.933 31.297 159.109 31.264C159.215 31.264 159.321 31.231 159.427 31.2146L159.145 31.2475C159.498 31.1651 159.922 31.1651 160.293 31.1321C161.776 31.0001 163.278 30.9341 164.779 30.9506L162.218 29.1362C162.748 32.1547 163.278 35.1568 163.825 38.1753C164.055 39.4619 165.821 40.2866 167.093 39.9072C168.576 39.4619 169.194 38.2413 168.947 36.8557C168.417 33.8372 167.887 30.8352 167.34 27.8167C167.145 26.7445 165.856 26.0187 164.779 26.0023C161.476 25.9693 158.173 26.2992 154.959 26.9754C153.599 27.2558 152.68 28.7898 153.104 30.0269C153.563 31.3465 154.906 32.0558 156.372 31.7589H156.336Z" fill="#17299A"/>
<path d="M52.8123 59.5064L50.473 52.3527C50.3216 51.8649 50.1701 51.3952 50.0523 50.8894C49.9513 50.5281 50.0691 50.9436 50.0523 51.0881C50.0523 50.9797 50.0523 50.8533 50.0355 50.7449C50.0018 50.3655 50.0355 50.8533 49.985 50.9617C50.0187 50.9075 50.0691 50.7088 50.0691 50.6546C50.0691 50.8713 49.8504 51.1423 49.7325 51.2868C49.9682 51.0339 49.6484 51.341 49.5474 51.4133C49.9008 51.1604 49.1267 51.5217 49.4128 51.4675C49.4969 51.4494 49.6147 51.4133 49.6989 51.3952C49.985 51.3049 49.1772 51.4133 49.4801 51.4314C49.5811 51.4314 49.6821 51.4314 49.783 51.4314C50.0186 51.4314 50.2374 51.4314 50.473 51.4314C51.7857 51.5036 53.0648 50.1307 52.9975 48.7216C52.9301 47.1861 51.8867 46.0841 50.473 46.0119C48.9921 45.9396 47.3596 46.1744 46.2489 47.3667C44.953 48.7758 44.7847 50.7088 45.2054 52.5514C45.5252 53.9063 46.0469 55.225 46.4845 56.5438L47.9318 60.9878C48.3694 62.3246 49.6821 63.3543 51.0452 62.8846C52.2738 62.451 53.2836 60.9878 52.8123 59.5426V59.5064Z" fill="#17299A"/>
<path d="M110.011 55.937C109.947 54.7592 109.898 53.5814 109.882 52.4036C109.882 51.8056 109.882 51.2258 109.882 50.6278C109.882 50.3742 109.882 50.1386 109.882 49.8849C109.882 49.7399 109.882 49.595 109.882 49.45C109.802 49.8668 109.802 49.9393 109.882 49.6493L109.254 50.8453L109.028 51.0446L107.804 51.407C107.095 51.0989 106.934 51.0627 107.304 51.3164C107.53 51.4976 107.546 51.5157 107.336 51.3526C107.514 51.5157 107.675 51.6607 107.852 51.8237C108.271 52.2224 108.674 52.6573 109.06 53.1103C109.415 53.527 109.769 53.9619 110.092 54.4149C110.156 54.5055 110.237 54.6142 110.301 54.7048C110.156 54.4874 110.156 54.5055 110.317 54.7411C110.478 55.0129 110.656 55.2847 110.817 55.5565C111.993 57.5497 114.539 57.151 115.231 54.9041C115.264 54.7954 115.602 53.8894 115.36 54.4511C115.441 54.2337 115.538 54.0344 115.634 53.8169C115.844 53.3639 116.085 52.9291 116.343 52.5123C116.408 52.4217 116.456 52.313 116.52 52.2224C116.359 52.4579 116.359 52.4579 116.52 52.2224C116.665 52.0412 116.794 51.86 116.939 51.6969C117.278 51.2983 117.632 50.9359 118.019 50.5916L114.603 46.7502C113.733 47.8555 112.976 49.0514 112.444 50.4104C111.88 51.8419 111.219 53.5814 111.638 55.1397C111.961 56.2994 112.815 57.1148 113.846 57.3866C114.506 57.5497 115.151 57.4591 115.811 57.4047C117.149 57.296 118.486 57.2054 119.84 57.0967L118.132 52.4579C117.407 53.3458 116.875 54.3424 116.601 55.5202C116.198 57.2597 117.358 58.9268 118.937 58.963L120.581 58.9993C121.837 59.0355 123.062 57.7309 122.998 56.2813C122.933 54.8317 121.934 53.5995 120.581 53.5633L118.937 53.527L121.274 56.9698C121.306 56.8067 121.338 56.6618 121.386 56.5168C121.29 56.7705 121.29 56.8067 121.37 56.6255C121.419 56.5168 121.467 56.4262 121.531 56.3175C121.37 56.5531 121.37 56.5531 121.547 56.3175C122.208 55.5021 122.434 54.3787 122.047 53.3458C121.692 52.4036 120.79 51.6063 119.84 51.6788C118.889 51.7513 117.906 51.8237 116.955 51.8962C116.488 51.9325 116.037 51.9687 115.57 52.0049C115.328 52.0049 115.038 51.9868 114.813 52.0593H114.651C114.877 52.0955 115.086 52.1499 115.28 52.2405L116.15 53.219C116.311 53.5451 116.375 53.8894 116.311 54.2156C116.279 54.4693 116.295 54.433 116.343 54.1431C116.408 53.9075 116.456 53.672 116.537 53.4364C116.601 53.2371 116.665 53.0559 116.73 52.8566C116.794 52.6754 116.778 52.7116 116.698 52.9291C116.746 52.8203 116.794 52.7116 116.843 52.6029C117.02 52.2043 117.229 51.8056 117.439 51.4251C117.487 51.3345 117.874 50.7547 117.584 51.1714C117.713 50.9721 117.858 50.7909 118.003 50.6097C118.841 49.5406 119.002 47.8011 118.003 46.7683C117.004 45.7354 115.634 45.8079 114.587 46.7683C112.686 48.5078 111.332 50.8815 110.543 53.4727L114.958 52.8203C114.168 51.4976 113.282 50.2292 112.283 49.0876C111.848 48.5803 111.381 48.1092 110.897 47.6743C110.204 47.0401 109.479 46.2972 108.593 46.0797C107.256 45.7536 105.854 46.4421 105.306 47.8917C104.984 48.7615 105 49.7037 105 50.6278C105 52.4036 105.048 54.1612 105.145 55.937C105.226 57.3503 106.209 58.7275 107.562 58.655C108.803 58.6006 110.059 57.4591 109.979 55.937H110.011Z" fill="#17299A"/>
<path d="M110.074 30.3629L110.175 28.1282L106.366 29.9904C108.523 30.8356 110.664 31.6664 112.821 32.5116C113.663 32.8411 114.539 32.927 115.365 32.5116C116.073 32.1535 116.696 31.3943 116.612 30.6494C116.595 30.4345 116.562 30.2053 116.562 29.9904C116.562 29.8758 116.562 29.7755 116.562 29.6609C116.511 29.9618 116.511 29.9904 116.562 29.7612C116.427 30.0047 116.393 30.0477 116.494 29.9188C116.696 29.6466 116.494 29.7899 115.938 30.3485C116.174 30.2339 116.09 30.2626 115.685 30.4345C115.23 30.4631 115.129 30.4775 115.399 30.4775C115.112 30.4775 114.86 30.4202 114.607 30.2912C114.978 30.4775 114.792 30.3056 114.034 29.7755L113.781 28.9877C113.832 28.6868 113.815 28.6439 113.731 28.8874C113.343 29.4747 113.629 30.4058 113.899 30.9788C114.506 32.1821 116.022 33.013 117.573 33.0273C118.955 33.0416 120.168 32.5116 121.263 31.8383L117.556 30.5491C117.724 31.1651 117.876 31.7954 118.045 32.4113C118.331 33.5143 119.898 34.2592 121.162 33.9154C122.51 33.543 123.235 32.4543 122.932 31.2653C122.763 30.6494 122.611 30.0191 122.443 29.4031C122.123 28.1568 120.016 27.3117 118.735 28.1139C118.516 28.2571 118.281 28.4003 118.045 28.5293C117.927 28.5866 117.809 28.6582 117.674 28.7155C117.118 28.9877 117.943 28.6439 117.606 28.7298C117.269 28.8158 117.994 28.7155 117.691 28.7298C117.488 28.7298 118.011 28.8014 118.078 28.8158C118.247 28.8874 118.264 28.8874 118.146 28.8301C118.028 28.7728 118.045 28.7871 118.196 28.8731C118.348 29.0306 118.483 29.1166 118.567 29.3171C118.651 29.5177 118.618 29.6896 118.651 29.8901C118.702 30.191 118.719 29.8328 118.752 29.7182C118.87 29.2455 118.904 28.7871 118.752 28.3144C118.55 27.5982 117.96 26.9679 117.236 26.6097C115.837 25.9078 113.967 26.1084 112.77 27.0538C111.574 27.9993 111.388 29.4031 111.54 30.6637L115.348 28.8014C113.191 27.9563 111.051 27.1254 108.894 26.2803C108.052 25.9508 107.175 25.8648 106.35 26.2803C105.558 26.6814 105.136 27.369 105.103 28.1425L105.001 30.3772C104.951 31.4945 106.198 32.5832 107.529 32.5259C108.945 32.4686 110.006 31.5805 110.057 30.3772L110.074 30.3629Z" fill="#17299A"/>
<path d="M153.015 65.3301C152.522 66.9303 151.962 68.514 151.304 70.0482C150.893 70.9885 150.794 72.2918 151.682 73.0507C152.719 73.925 153.887 74.2384 155.187 73.8095C156.306 73.4466 157.211 72.5887 158.116 71.8794C159.975 70.4606 161.834 69.0419 163.694 67.6067C164.747 66.7983 165.306 65.4786 164.582 64.2248C163.924 63.103 162.345 62.6246 161.209 63.334C158.889 64.8022 158.067 68.1841 158.873 70.7576C159.169 71.7144 159.893 72.5392 160.864 72.8362C162.015 73.1826 162.986 72.7867 163.973 72.2258C165.405 71.4175 166.82 70.5596 168.235 69.7348L165.24 65.8415C164.385 66.9303 163.825 68.0521 163.71 69.4543C163.595 70.8566 164.154 72.6877 165.75 73.1166C167.017 73.4466 168.268 72.8197 169.436 72.4238C170.687 71.9948 171.937 71.5659 173.188 71.137C174.438 70.7081 175.277 69.4378 174.915 68.0851C174.57 66.8478 173.155 65.924 171.871 66.3529C169.913 67.0293 167.955 67.8376 165.948 68.3655H167.264L167.067 68.3325L168.153 68.9759L168.005 68.8109L168.646 69.8997C168.729 70.1967 168.646 69.7183 168.646 69.6688C168.646 69.6028 168.762 69.2894 168.745 69.3224C169.502 68.349 169.765 67.1118 168.943 66.0725C168.186 65.1156 166.836 64.8022 165.75 65.4291C164.928 65.9075 164.105 66.3859 163.299 66.8643C162.657 67.2437 161.834 67.9201 161.16 68.0851H162.476L162.18 68.0356L163.266 68.679C163.562 69.7018 163.677 69.9327 163.611 69.3553C163.611 69.1904 163.611 69.0254 163.595 68.8604C163.595 68.5305 163.595 68.1841 163.628 67.8541C163.595 68.1016 163.628 68.0686 163.661 67.7881C163.76 67.5077 163.76 67.4747 163.661 67.7056C163.809 67.4582 163.809 67.4417 163.661 67.6397C163.858 67.4417 163.875 67.4252 163.71 67.5902L161.226 63.3175C159.811 64.3898 158.412 65.4621 156.997 66.5509C156.29 67.0953 155.582 67.6232 154.891 68.1676C154.595 68.3985 154.299 68.646 153.986 68.8604C153.838 68.9759 153.69 69.0584 153.542 69.1574C153.756 69.0254 154.002 68.9924 154.266 69.0584L155.352 69.7018L155.171 69.5533L155.549 72.5557C156.388 70.6256 157.145 68.6625 157.77 66.6498C158.708 63.5979 153.937 62.2947 153.015 65.3301Z" fill="#17299A"/>
<path d="M73.8067 68.4947C73.7753 65.1185 73.7439 61.7424 73.7282 58.3662L69.7069 60.1467C71.7804 62.515 74.3879 64.2283 77.2468 65.2697C78.6134 65.7568 80.3569 64.4299 80.2313 62.8342C80.137 61.6584 80.0899 60.4826 80.137 59.29C80.1527 58.7189 80.1999 58.1478 80.247 57.5767C80.247 57.476 80.3569 56.6529 80.2941 57.1568C80.3412 56.8377 80.3884 56.5185 80.4355 56.1994L76.4928 57.308C77.2782 58.3494 78.3306 59.2228 79.493 59.7603C80.6554 60.2978 82.0691 60.1635 82.7131 58.8533C83.2472 57.7615 83.0744 55.9642 81.8649 55.4099C81.4094 55.1916 80.9696 54.9396 80.5612 54.6205C81.0324 54.99 80.4041 54.4525 80.3255 54.3517C80.1527 54.167 79.98 53.9654 79.8229 53.7471C78.7547 52.3193 76.1786 53.0752 75.8802 54.8557C75.4403 57.4928 75.2676 60.1635 75.5032 62.8342L78.4877 60.3986C78.2049 60.2978 77.9222 60.1803 77.6395 60.0627C77.3724 59.9619 77.9693 60.2307 77.5609 60.0291C77.4353 59.9619 77.3253 59.9115 77.1996 59.8443C76.6342 59.542 76.0687 59.2228 75.5346 58.8533C75.2833 58.6853 75.0319 58.5006 74.7963 58.3158C74.6078 58.1814 74.6235 58.1814 74.7963 58.3158C74.6707 58.1982 74.5293 58.0975 74.4036 57.9799C73.9167 57.5432 73.4611 57.0728 73.0213 56.5689C71.6233 54.9732 68.9844 56.2162 69.0001 58.3494C69.0315 61.7256 69.0629 65.1018 69.0786 68.4779C69.0786 69.7881 70.1468 71.0646 71.4348 70.9975C72.7229 70.9303 73.8067 69.8889 73.791 68.4779L73.8067 68.4947Z" fill="#17299A"/>
<path d="M130.061 33.5664C130.061 32.4412 130.772 31.1285 131.263 30.0033C131.872 28.5542 132.498 27.1051 133.107 25.656C133.717 24.2069 134.343 22.7578 134.952 21.3087C135.24 20.6098 135.545 19.9278 135.832 19.2289C135.985 18.8879 136.12 18.5299 136.272 18.1889L136.56 17.4899C136.78 17.0637 136.763 17.0296 136.492 17.4047L135.375 18.0696C135.003 18.1378 134.411 18.0184 135.054 18.206C135.291 18.2742 135.545 18.3082 135.782 18.3423L137.22 18.6322L140.114 19.1948C140.504 19.28 140.91 19.3652 141.299 19.4505C141.638 19.5187 141.418 19.5869 141.367 19.4505C141.265 19.2118 140.961 18.9902 140.91 18.7004L141.198 17.3365L140.994 17.524C141.164 17.4899 140.944 17.524 140.842 17.5922C140.453 17.8309 140.08 18.0866 139.708 18.3594C136.865 20.4393 134.495 23.1158 132.887 26.2698L137.626 27.5654C137.846 24.6672 138.574 21.8884 139.573 19.1777C139.505 19.3652 139.81 18.8879 139.64 19.0072C139.437 19.1436 139.59 19.0072 139.827 19.0072C139.624 19.0072 140.453 18.9731 140.436 18.9731C140.808 18.9561 141.198 18.922 141.57 18.9049C143.195 18.8026 144.836 18.7004 146.461 18.5981C147.832 18.5128 149 17.4899 149 16.0408C149 14.7281 147.832 13.3984 146.461 13.4836C144.447 13.6029 142.45 13.7393 140.436 13.8587C138.422 13.978 136.442 14.4042 135.308 16.3648C134.428 17.9161 133.92 19.8426 133.497 21.5645C133.006 23.525 132.718 25.5367 132.566 27.5484C132.363 30.0715 136.171 31.0432 137.305 28.844C138.506 26.4743 140.114 24.4285 142.196 22.8431C143.381 21.9395 144.972 21.2405 145.632 19.7062C146.41 17.882 145.564 15.8704 143.838 14.9668C142.467 14.2508 140.808 14.1144 139.319 13.8075L136.797 13.3131C135.9 13.1426 134.952 12.8358 134.055 13.1086C132.21 13.6541 131.686 16.092 131.026 17.6604C130.365 19.2289 129.688 20.7802 129.028 22.3487C128.267 24.1387 127.505 25.9458 126.744 27.7359C125.982 29.526 124.983 31.4524 125 33.5323C125.017 36.8226 130.095 36.8226 130.078 33.5323L130.061 33.5664Z" fill="#17299A"/>
</svg>
