<svg width="86" height="111" viewBox="0 0 86 111" fill="none" xmlns="http://www.w3.org/2000/svg">
<g clip-path="url(#clip0_11_1049)">
<path d="M53.5577 41.0175C55.1937 41.0175 56.7326 41.3902 58.1884 42.0529C58.7846 40.3824 59.1173 38.5876 59.1173 36.71C59.1173 27.819 52.5318 16.7466 43.5893 16.7466C34.6469 16.7466 26.772 27.819 26.772 36.71C26.772 44.2067 31.9295 50.4884 38.9032 52.2831C41.8563 46.1809 47.4574 41.0175 53.5439 41.0175H53.5577Z" stroke="#17299A" stroke-width="2" stroke-linecap="round" stroke-linejoin="round"/>
<path d="M39.4439 67.2902C39.4717 67.2212 39.4994 67.1384 39.5271 67.0693C38.7507 65.1917 38.3209 63.1346 38.3209 60.9671C38.3209 58.7996 38.7923 56.5216 39.6242 54.285C37.392 47.3406 31.9711 40.9899 25.2192 40.9899C16.2906 40.9899 8.40186 52.0623 8.40186 60.9533C8.40186 61.6574 8.45731 62.3477 8.55436 63.0242C14.8765 65.4126 25.0667 67.8839 39.4439 67.2764V67.2902Z" fill="#17299A"/>
<path d="M21.7667 99.2235L6.11394 88.3168C3.14699 86.2459 1.38623 82.8772 1.38623 79.2739V67.6354C1.38623 64.1563 4.92162 61.7127 8.16585 63.0381C18.2313 67.1384 39.7764 72.0534 74.4786 61.547C77.6535 60.5806 80.87 62.969 80.87 66.2825V77.9071C80.87 82.1317 78.8736 86.1216 75.4907 88.6757L68.0179 94.2948C63.7615 97.4978 58.5763 99.2373 53.2386 99.2373H31.5549" stroke="#17299A" stroke-width="2" stroke-linecap="round" stroke-linejoin="round"/>
<path d="M72.122 60.4149C73.4946 55.2929 71.4565 49.8119 67.2556 46.6503C66.5763 46.1395 65.5088 46.5399 65.1206 47.2026C64.6492 48.0033 65.0096 48.8179 65.6751 49.3287C65.5365 49.2321 65.7999 49.4392 65.8415 49.4668C65.9247 49.5358 66.0217 49.6186 66.1049 49.6877C66.299 49.8533 66.4792 50.0328 66.6733 50.2261C67.0338 50.5989 67.2834 50.9026 67.5329 51.2477C68.143 52.1175 68.5866 52.9873 68.8916 53.8709C69.5432 55.8037 69.6403 57.6951 69.1273 59.5865C68.6143 61.478 71.6229 62.3477 72.1359 60.4149H72.122Z" fill="#17299A"/>
<path d="M55.9841 21.7859C58.646 18.9557 61.4744 16.2911 64.4552 13.7922C65.8832 12.6049 67.3251 11.459 68.8224 10.3546C69.1967 10.0784 69.5711 9.80231 69.9454 9.54C70.1118 9.41575 70.3752 9.29149 70.5139 9.13963L70.7773 8.96015L70.0147 8.8497C70.0425 9.01537 70.9852 9.55381 71.1516 9.69187C71.3457 9.84373 71.5398 9.98179 71.7339 10.1337C71.8726 10.2441 72.2192 10.6721 72.0389 10.3546L71.7616 9.3053V9.51239C71.8448 9.16724 71.9419 8.82209 72.0251 8.46314C72.0944 8.32508 71.6923 8.78067 71.5537 8.89112C71.3041 9.0706 71.013 9.22246 70.7357 9.38813C70.0009 9.80231 69.2383 10.1889 68.4897 10.6031C66.9091 11.4452 65.3425 12.2874 63.762 13.1434C60.6148 14.8277 57.4676 16.5258 54.3204 18.2101C51.9635 19.4803 54.057 23.056 56.4139 21.7859C59.6165 20.0601 62.8192 18.3482 66.0218 16.6225C67.6024 15.7803 69.169 14.9381 70.7495 14.0822C72.2053 13.309 73.8829 12.5911 75.0197 11.3486C75.6159 10.6997 75.9764 9.91276 75.8516 9.02918C75.6991 7.88328 74.7979 7.31724 73.9522 6.66836C72.5796 5.61911 71.2903 4.40418 69.4324 5.02545C68.6283 5.30157 67.9351 5.88142 67.2557 6.37843C66.5764 6.87545 65.8555 7.41388 65.1622 7.93851C63.8174 8.96015 62.5003 10.0094 61.2109 11.1001C58.3272 13.5299 55.5959 16.1254 53.0033 18.8728C51.1732 20.8195 54.1124 23.7463 55.9425 21.7997L55.9841 21.7859Z" fill="#17299A"/>
<path d="M51.977 18.3894C54.32 14.1372 57.7306 10.1887 58.6179 5.28758C58.8536 3.97601 59.0755 2.49877 58.3407 1.29766C57.5781 0.0275062 55.8312 -0.428091 54.6112 0.455491C53.5298 1.24243 53.2386 2.84392 52.8227 4.04504C52.3513 5.41183 51.8661 6.77863 51.3947 8.14542C50.2994 11.2656 49.1071 14.3719 48.9407 17.6991C48.8436 19.701 51.9631 19.6872 52.0602 17.6991C52.2127 14.7723 53.3495 11.9973 54.3062 9.2637C54.8191 7.80027 55.3321 6.33683 55.8451 4.8596C55.9837 4.47303 56.1224 4.07266 56.261 3.68609C56.3165 3.52042 56.5938 3.05101 56.5383 2.91295C56.5799 3.0096 55.6926 3.03721 55.7342 2.95437C55.6649 3.05101 55.7342 3.46519 55.7342 3.58945C55.5955 5.95027 54.4864 8.20064 53.3218 10.2163C52.0324 12.4529 50.549 14.5514 49.3012 16.8156C48.3307 18.5689 51.0203 20.1428 51.9908 18.3894H51.977Z" fill="#17299A"/>
<path d="M62.2506 17.6577C69.3768 17.1883 72.9677 25.1544 73.5222 31.1185C74.0768 37.0827 72.1913 43.5991 68.0874 48.2932C66.7703 49.798 68.9748 52.007 70.2919 50.4883C75.2691 44.7865 77.529 37.1518 76.4615 29.6689C75.3939 22.1861 70.6107 13.9991 62.2506 14.5514C60.2541 14.6756 60.2403 17.7958 62.2506 17.6577Z" fill="#17299A"/>
<path d="M60.4484 41.5559C61.5714 41.8597 62.6805 42.2462 63.7619 42.7018L63.3876 42.55C63.6787 42.6742 63.956 42.7985 64.2472 42.9227C64.6354 43.1022 65.0236 43.1988 65.4534 43.0746C65.8138 42.978 66.202 42.7018 66.3823 42.3567C66.5764 41.9977 66.6734 41.5559 66.5348 41.1556C66.41 40.7966 66.1743 40.3962 65.8138 40.2306C64.3442 39.5541 62.833 38.988 61.2664 38.56C60.4761 38.3391 59.5333 38.8224 59.3531 39.6507C59.1729 40.4791 59.6026 41.335 60.4484 41.5559Z" fill="#17299A"/>
<path d="M60.6701 34.5977C62.5972 34.7496 64.5521 34.5701 66.4238 34.0869C67.2141 33.8936 67.7686 32.9686 67.5191 32.1817C67.2695 31.3948 66.4515 30.8839 65.6058 31.091C64.9819 31.2429 64.3441 31.3671 63.7064 31.4638L64.1223 31.4086C62.9716 31.5604 61.8209 31.588 60.6701 31.4914C59.8521 31.4224 59.0757 32.2507 59.1173 33.0377C59.1589 33.9351 59.8105 34.5149 60.6701 34.5839V34.5977Z" fill="#17299A"/>
<path d="M59.256 27.6395C60.9475 27.1149 62.5835 26.4108 64.1224 25.541C64.8295 25.1406 65.1345 24.119 64.677 23.4149C64.2194 22.7108 63.3044 22.4208 62.5419 22.8626C61.7793 23.3044 60.9752 23.691 60.1572 24.0361L60.5315 23.8843C59.8383 24.1742 59.1313 24.4227 58.4242 24.6436C57.6478 24.8783 57.0655 25.7343 57.3289 26.5488C57.5923 27.3634 58.4103 27.888 59.2422 27.6395H59.256Z" fill="#17299A"/>
<path d="M64.6629 101.46C64.2331 100.066 63.6647 98.6989 62.9853 97.4011C62.611 96.6832 61.5435 96.4071 60.8502 96.8489C60.1154 97.3183 59.8798 98.2019 60.2957 98.975C60.5868 99.5272 60.8502 100.079 61.0998 100.659L60.9473 100.287C61.2246 100.949 61.4603 101.612 61.6821 102.288C61.793 102.675 62.0564 103.02 62.403 103.213C62.7497 103.407 63.2349 103.49 63.6092 103.365C63.9836 103.241 64.344 103.006 64.5381 102.647C64.7322 102.288 64.8154 101.86 64.6906 101.446L64.6629 101.46Z" fill="#17299A"/>
<path d="M17.1915 97.7187C16.5538 99.0855 15.7635 100.369 14.8623 101.571C14.6405 101.874 14.6128 102.427 14.7098 102.772C14.8069 103.117 15.0842 103.517 15.4308 103.697C15.7912 103.89 16.2349 103.987 16.637 103.849L17.0113 103.697C17.247 103.559 17.4272 103.379 17.5659 103.144C18.4809 101.943 19.2573 100.646 19.8951 99.2925C20.0753 98.906 20.1723 98.5194 20.0476 98.0914C19.9505 97.7325 19.6732 97.3459 19.3266 97.1664C18.9661 96.9731 18.5225 96.8765 18.1204 97.0146C17.76 97.1388 17.3579 97.3735 17.1915 97.7325V97.7187Z" fill="#17299A"/>
<path d="M31.0007 84.9205L27.9921 79.7295C27.5901 79.0254 26.5641 78.7216 25.857 79.1772C25.15 79.6328 24.8588 80.544 25.3025 81.3033C26.3007 83.0291 27.3128 84.7686 28.311 86.4944C28.7131 87.1985 29.739 87.5022 30.4461 87.0466C31.1532 86.591 31.4443 85.6798 31.0007 84.9205Z" fill="#17299A"/>
<path d="M10.2875 79.3981C11.7294 82.0351 13.6843 84.3545 15.7916 86.4944C16.3601 87.0742 17.4276 87.1157 17.996 86.4944C18.5645 85.8731 18.6061 84.9205 17.996 84.2992C16.9978 83.2914 16.0412 82.2421 15.1677 81.1377C15.1123 81.0686 15.0707 81.0134 15.0152 80.9444C14.8766 80.7649 15.1677 81.1515 15.043 80.972C14.932 80.8339 14.8211 80.6821 14.7241 80.544C14.5161 80.2541 14.3082 79.9642 14.1002 79.6604C13.6981 79.0668 13.3238 78.4593 12.9772 77.8242C12.589 77.1063 11.5353 76.8164 10.8421 77.272C10.1489 77.7276 9.85772 78.6388 10.2875 79.3981Z" fill="#17299A"/>
<path d="M64.9958 104.856C66.2852 104.856 67.5746 104.856 68.864 104.856L67.3666 102.896C66.9784 104.428 62.8607 104 61.7655 104.042C59.2422 104.138 56.7189 104.207 54.1956 104.249C49.0381 104.345 43.8667 104.359 38.7092 104.276C33.5517 104.194 28.616 104.028 23.5833 103.779C21.06 103.655 18.5367 103.503 16.0273 103.338C14.5993 103.241 11.4659 103.365 10.8143 101.695L10.0934 103.448C11.1609 102.868 12.4364 102.896 13.4069 103.669C14.9597 104.912 17.178 102.73 15.6114 101.474C13.5179 99.7895 10.8975 99.4582 8.51285 100.756C7.95828 101.06 7.55622 101.888 7.79191 102.509C9.59426 107.134 16.1105 106.458 20.1311 106.692C26.3146 107.051 32.5119 107.272 38.6953 107.369C44.8788 107.466 51.09 107.438 57.2735 107.272C60.185 107.203 63.2212 107.314 66.105 106.886C68.0321 106.596 69.8345 105.712 70.3475 103.71C70.597 102.73 69.8761 101.75 68.8501 101.75C67.5607 101.75 66.2714 101.75 64.982 101.75C62.9717 101.75 62.9717 104.856 64.982 104.856H64.9958Z" fill="#17299A"/>
<path d="M37.6831 23.8014L35.7143 26.9629C35.5064 27.2943 35.4509 27.7775 35.5618 28.1641C35.6728 28.5506 35.9362 28.9096 36.2828 29.0891C37.0453 29.4894 37.9604 29.2685 38.4179 28.5368L40.3866 25.3753C40.5946 25.0439 40.65 24.5607 40.5391 24.1741C40.4282 23.7876 40.1648 23.4286 39.8182 23.2491C39.0556 22.8488 38.1406 23.0697 37.6831 23.8014Z" fill="#17299A"/>
<path d="M43.9498 22.2553L46.0433 25.2236C46.279 25.555 46.5701 25.8311 46.9722 25.9415C47.3465 26.0382 47.8456 25.9967 48.1784 25.7897C48.5111 25.5826 48.8023 25.2512 48.8993 24.8647C48.9964 24.4781 48.9825 24.0087 48.7468 23.6635L46.6533 20.6953C46.4176 20.3639 46.1265 20.0878 45.7244 19.9773C45.3501 19.8807 44.851 19.9221 44.5182 20.1292C44.1855 20.3363 43.8943 20.6676 43.7973 21.0542C43.7002 21.4408 43.7141 21.9102 43.9498 22.2553Z" fill="#17299A"/>
<path d="M44.9062 28.9925L41.2322 28.316C40.8162 28.2332 40.4142 28.247 40.026 28.4679C39.7071 28.6612 39.3882 29.0201 39.305 29.3929C39.208 29.7933 39.2357 30.2351 39.4575 30.594C39.6655 30.9116 39.9982 31.2291 40.3864 31.3119L44.0605 31.9884C44.4764 32.0713 44.8785 32.0574 45.2667 31.8365C45.5855 31.6433 45.9044 31.2843 45.9876 30.9115C46.0847 30.5112 46.0569 30.0694 45.8351 29.7104C45.6271 29.3929 45.2944 29.0754 44.9062 28.9925Z" fill="#17299A"/>
<path d="M9.30273 71.6254C9.30273 71.6254 29.9189 81.828 71.8721 71.6254" stroke="#17299A" stroke-width="2" stroke-linecap="round" stroke-linejoin="round"/>
<path d="M49.2181 86.4115C50.2163 84.6858 51.2284 82.9462 52.2267 81.2205C52.6287 80.5164 52.4208 79.4947 51.6721 79.0944C50.9234 78.694 49.9806 78.9011 49.537 79.6466C48.5388 81.3724 47.5267 83.1119 46.5284 84.8377C46.1264 85.5418 46.3343 86.5634 47.083 86.9638C47.8317 87.3642 48.7745 87.1571 49.2181 86.4115Z" fill="#17299A"/>
<path d="M64.5518 77.7552C64.219 78.3627 63.8586 78.9563 63.4704 79.5362C63.2763 79.8399 63.0683 80.1299 62.8603 80.4198C62.7494 80.5578 62.6524 80.7097 62.5415 80.8478C62.4305 80.9858 62.4999 80.9168 62.5692 80.8202C62.5137 80.903 62.4444 80.972 62.389 81.0549C61.5016 82.1593 60.545 83.2086 59.5606 84.2164C58.9922 84.7963 58.9368 85.8455 59.5606 86.4116C60.1845 86.9776 61.155 87.0328 61.7651 86.4116C63.8724 84.2854 65.8273 81.9522 67.2692 79.3153C67.6574 78.5974 67.4633 77.5896 66.7146 77.1892C65.9659 76.7888 64.9954 76.9821 64.5795 77.7414L64.5518 77.7552Z" fill="#17299A"/>
<path d="M30.5845 98.188C30.5845 98.188 68.1566 94.3499 74.451 88.082L63.2764 97.6358C63.2764 97.6358 37.1007 102.026 30.5845 98.188Z" fill="#17299A"/>
<path d="M48.0814 41.9839C46.8752 44.3309 47.3189 47.3406 49.3708 49.094C50.6324 50.1846 52.0882 50.3779 53.6826 50.5988C54.0014 50.6402 54.9442 50.6955 55.1106 51.0406C55.0135 50.8473 54.9026 51.51 54.8887 51.6067C54.2649 54.4093 54.1123 58.7443 57.5784 59.697C58.23 59.8764 58.9094 59.8764 59.561 59.9455C59.9076 59.9731 60.1433 59.9869 60.3097 60.1526C60.7949 60.6082 60.9752 61.8231 61.0583 62.61C61.1693 63.7283 61.9318 64.6809 63.138 64.6809C64.1778 64.6809 65.3285 63.7283 65.2176 62.61C64.9681 60.194 64.3719 57.4328 61.9179 56.3145C61.197 55.9832 60.476 55.8865 59.6996 55.8175C59.3946 55.7899 59.048 55.7208 58.7569 55.7485C58.9232 55.7485 58.4657 55.569 58.6182 55.6794C59.0064 55.997 58.7707 55.9003 58.7846 55.5966C58.7846 55.3481 58.7153 55.0443 58.7153 54.8096C58.6875 54.0917 58.743 53.4014 58.9094 52.7111C59.256 51.1373 59.3253 49.6048 58.2023 48.307C57.3011 47.2716 55.9979 46.7746 54.6669 46.5813C54.0014 46.4846 53.1973 46.4985 52.5734 46.2499C52.4209 46.1809 52.2407 46.1119 52.1159 46.0014C52.2823 46.1395 51.8802 45.7253 52.0188 45.891C51.5197 45.2697 51.4781 44.538 51.7138 44.0824C52.2268 43.0884 51.9772 41.832 50.9652 41.2522C50.0362 40.7137 48.636 40.9899 48.123 41.9977L48.0814 41.9839Z" fill="#17299A"/>
<path d="M41.6621 52.5869C41.5789 54.4231 41.8285 56.3145 42.9792 57.8056C43.506 58.4821 44.1993 59.0205 44.9757 59.4071C45.4054 59.6142 45.8491 59.7936 46.2928 59.9731C46.4591 60.0421 46.6255 60.1112 46.7919 60.1664C46.3621 60.0007 46.8889 60.2078 46.9444 60.2354C47.0969 60.3045 47.2494 60.3873 47.4019 60.4701C47.4989 60.5254 47.8733 60.8429 47.5405 60.5392C47.6515 60.6358 47.7485 60.7324 47.8456 60.8291C47.9426 60.9257 47.9149 60.9119 47.804 60.7739C47.901 60.9671 47.9287 61.0086 47.8733 60.8843C47.804 60.7324 47.9565 61.2157 47.9703 61.2985C48.0119 61.5056 47.9981 61.0776 47.9703 61.4504C47.9426 61.8783 47.9426 62.2787 47.901 62.7067C47.8456 63.1899 47.9287 62.5686 47.8594 62.9966C47.8178 63.3142 47.7624 63.6455 47.7208 63.963C47.6653 64.4324 47.6792 64.8742 47.7762 65.3436C47.9981 66.3791 48.7745 67.4145 49.8836 67.594C50.9927 67.7735 52.1712 67.3179 52.4485 66.1444C52.6703 65.1504 52.1435 63.7836 50.9927 63.5903C51.3393 63.6455 51.6444 64.1287 51.8246 64.391C51.9355 64.5429 51.8246 64.75 51.8523 64.391C51.8523 64.322 51.8939 63.9768 51.8523 64.2944C51.8801 64.1149 51.9078 63.9492 51.9216 63.7698C52.0464 62.9276 52.1851 62.0854 52.1296 61.2295C52.0048 59.3795 51.1175 57.8194 49.5093 56.8668C48.8992 56.5078 48.2199 56.2731 47.5683 56.0108C47.5128 55.9832 46.986 55.7485 47.4019 55.9418C47.2633 55.8727 47.1385 55.8175 46.9998 55.7485C46.8612 55.6795 46.7364 55.6104 46.6116 55.5414C46.5978 55.5414 46.2096 55.2377 46.4037 55.4033C46.6116 55.5966 46.2512 55.2377 46.2096 55.1963C46.4591 55.4724 46.1264 55.0306 46.0987 54.9892C45.9046 54.6716 46.0987 55.072 46.0432 54.8649C45.9877 54.713 45.9462 54.5474 45.9046 54.3955C45.9046 54.3541 45.8075 53.7466 45.8491 54.1608C45.8491 54.0227 45.8214 53.8985 45.8214 53.7604C45.7936 53.3601 45.8214 52.9597 45.8214 52.5593C45.863 51.4824 44.837 50.4332 43.7417 50.4884C42.5771 50.5436 41.7176 51.3996 41.6621 52.5593V52.5869Z" fill="#17299A"/>
<path d="M1.38623 63.259C1.38623 63.259 2.02399 59.8627 13.0461 58.2888L12.4499 64.5567L1.40009 63.259H1.38623Z" fill="#17299A"/>
<path d="M79.7474 61.3123C79.7474 61.3123 75.2415 57.5018 72.0943 57.5018C68.9471 57.5018 70.9991 61.9473 70.9991 61.9473L79.7474 61.3123Z" fill="#17299A"/>
<path d="M26.0372 106.844C26.0372 106.844 60.5592 113.361 70.3474 109.357C80.1356 105.353 86.5131 110.917 85.5704 105.892C84.6276 100.866 64.1917 100.438 64.1917 100.438L66.6041 103.862L66.4654 106.872L49.3985 105.892H25.2192" fill="#17299A"/>
<path d="M26.0372 106.844C26.0372 106.844 60.5592 113.361 70.3474 109.357C80.1356 105.353 86.5131 110.917 85.5704 105.892C84.6276 100.866 64.1917 100.438 64.1917 100.438L66.6041 103.862L66.4654 106.872L49.3985 105.892H25.2192" stroke="#17299A" stroke-width="0.5" stroke-miterlimit="10"/>
</g>
<defs>
<clipPath id="clip0_11_1049">
<rect width="86" height="111" fill="white"/>
</clipPath>
</defs>
</svg>
